{"glyphs":{"0":{"ha":904,"x_min":57,"x_max":847,"o":"m 453 -14 q 156 105 254 -14 q 57 458 57 224 q 156 812 57 693 q 453 931 254 931 q 749 812 651 931 q 847 458 847 693 q 749 105 847 224 q 453 -14 651 -14 m 453 203 q 521 226 496 203 q 557 306 546 250 q 568 458 568 363 q 557 610 568 554 q 521 690 546 667 q 453 714 496 714 q 384 690 410 714 q 347 610 358 667 q 336 458 336 554 q 347 306 336 363 q 384 226 358 250 q 453 203 410 203 z "},"1":{"ha":619,"x_min":28,"x_max":531,"o":"m 257 0 l 257 475 q 257 559 257 517 q 258 644 257 601 q 159 575 213 604 q 47 536 106 546 l 28 767 q 109 785 67 769 q 190 822 151 800 q 260 867 229 843 q 307 917 292 892 l 531 917 l 531 0 l 257 0 z "},"2":{"ha":835,"x_min":46,"x_max":789,"o":"m 76 0 l 76 175 q 267 299 188 239 q 399 413 347 358 q 475 517 450 468 q 500 611 500 567 q 476 684 500 654 q 403 714 453 714 q 317 671 346 714 q 289 539 289 628 l 46 604 q 96 786 47 714 q 230 894 144 858 q 421 931 315 931 q 588 903 519 931 q 699 833 657 876 q 761 737 742 789 q 781 633 781 685 q 733 468 781 543 q 603 328 686 393 q 410 206 519 264 l 410 203 q 469 207 436 206 q 540 209 503 208 q 613 210 578 210 l 789 210 l 789 0 l 76 0 z "},"3":{"ha":829,"x_min":31,"x_max":779,"o":"m 424 -14 q 169 44 268 -14 q 31 217 69 101 l 289 324 q 306 247 290 275 q 348 209 321 219 q 406 199 375 199 q 459 209 436 199 q 494 240 482 219 q 507 289 507 261 q 494 339 507 321 q 458 365 481 357 q 407 372 436 372 q 373 371 388 372 q 339 367 358 369 l 339 539 q 361 537 350 538 q 389 536 372 536 q 464 558 440 536 q 488 631 488 581 q 465 695 488 672 q 401 718 442 718 q 328 692 358 718 q 294 599 299 667 l 49 678 q 112 817 60 761 q 244 901 164 872 q 421 931 324 931 q 606 900 531 931 q 722 813 682 869 q 761 674 761 756 q 741 571 761 611 q 690 507 721 531 q 632 473 660 483 q 589 463 604 463 l 589 457 q 637 450 606 457 q 701 424 668 443 q 756 366 733 404 q 779 265 779 328 q 732 116 779 179 q 604 19 685 53 q 424 -14 524 -14 z "},"4":{"ha":915,"x_min":60,"x_max":885,"o":"m 507 0 l 507 188 l 60 188 l 60 361 q 103 435 76 392 q 168 535 131 478 l 424 917 l 754 917 l 754 375 l 885 375 l 885 188 l 754 188 l 754 0 l 507 0 m 276 375 l 511 375 l 511 631 q 512 681 511 654 q 514 738 513 708 l 511 738 q 482 684 497 711 q 451 635 467 657 l 315 432 q 297 404 307 418 q 276 375 288 390 z "},"5":{"ha":810,"x_min":25,"x_max":769,"o":"m 396 -14 q 185 30 278 -14 q 25 181 93 74 l 271 301 q 315 223 285 253 q 403 193 344 193 q 465 206 439 193 q 504 243 490 218 q 518 304 518 268 q 505 360 518 338 q 466 394 492 382 q 400 407 440 407 q 348 401 371 407 q 307 387 325 396 q 274 364 289 378 l 64 403 l 124 917 l 722 917 l 722 704 l 325 704 l 306 557 l 300 532 l 301 532 q 376 578 328 563 q 483 593 425 593 q 638 558 575 593 q 735 461 701 522 q 769 321 769 400 q 739 168 769 232 q 656 65 708 104 q 536 6 603 25 q 396 -14 469 -14 z "},"6":{"ha":860,"x_min":57,"x_max":824,"o":"m 483 931 q 624 911 558 931 q 739 847 689 892 q 813 724 789 801 l 585 617 q 543 686 572 661 q 467 711 514 711 q 406 697 433 711 q 358 654 378 682 q 328 583 339 626 q 317 485 317 540 q 317 476 317 481 q 317 464 317 471 l 318 451 q 369 513 335 488 q 447 553 403 539 q 533 567 490 567 q 682 535 617 567 q 785 442 747 503 q 824 296 824 382 q 779 131 824 201 q 656 24 735 61 q 469 -14 576 -14 q 257 35 350 -14 q 110 186 164 85 q 57 447 57 288 q 114 720 57 614 q 267 878 171 826 q 483 931 364 931 m 464 388 q 411 376 435 388 q 372 342 388 364 q 357 289 357 319 q 372 237 357 260 q 412 202 388 214 q 464 190 436 190 q 542 216 515 190 q 569 289 569 242 q 557 342 569 321 q 522 376 544 364 q 464 388 499 388 z "},"7":{"ha":868,"x_min":42,"x_max":825,"o":"m 42 917 l 825 917 l 825 724 q 648 500 711 615 q 559 260 585 385 q 533 0 533 136 l 256 0 q 294 284 256 151 q 415 538 332 417 q 631 774 497 658 l 693 700 l 42 700 l 42 917 z "},"8":{"ha":876,"x_min":51,"x_max":825,"o":"m 438 926 q 628 896 547 926 q 753 808 708 865 q 797 672 797 751 q 760 544 797 597 q 649 464 724 492 l 649 463 q 779 385 733 436 q 825 250 825 333 q 778 111 825 169 q 646 19 732 53 q 438 -14 560 -14 q 231 19 317 -14 q 98 111 144 53 q 51 250 51 169 q 97 385 51 333 q 228 463 143 436 l 228 464 q 117 544 154 492 q 79 672 79 597 q 124 808 79 751 q 249 896 168 865 q 438 926 331 926 m 439 729 q 364 705 392 729 q 336 638 336 681 q 364 572 336 596 q 439 547 392 547 q 513 572 486 547 q 540 638 540 596 q 513 705 540 681 q 439 729 486 729 m 439 185 q 500 195 475 185 q 538 228 525 206 q 551 279 551 250 q 538 330 551 308 q 499 363 525 351 q 439 374 474 374 q 378 363 404 374 q 338 330 351 351 q 324 279 324 308 q 337 228 324 250 q 376 195 350 206 q 439 185 403 185 z "},"9":{"ha":856,"x_min":42,"x_max":799,"o":"m 404 931 q 622 879 535 931 q 754 724 710 828 q 799 463 799 621 q 747 187 799 292 q 605 34 694 82 q 404 -14 515 -14 q 193 33 283 -14 q 57 183 103 79 l 308 278 q 341 216 317 238 q 408 194 365 194 q 467 208 442 194 q 511 247 493 221 q 538 311 529 272 q 547 401 547 350 q 547 414 547 408 q 547 428 547 419 l 542 428 q 496 372 528 394 q 422 337 464 349 q 335 325 381 325 q 184 360 250 325 q 80 460 118 396 q 42 611 42 525 q 88 782 42 711 q 215 892 133 853 q 404 931 297 931 m 404 719 q 328 693 357 719 q 299 618 299 667 q 328 547 299 572 q 404 522 358 522 q 458 534 435 522 q 497 568 482 546 q 511 621 511 590 q 497 674 511 651 q 458 708 482 696 q 404 719 435 719 z "},"A":{"ha":950,"x_min":-4,"x_max":954,"o":"m 954 0 l 663 0 l 611 190 l 332 190 l 279 0 l -4 0 l 304 917 l 644 917 l 954 0 m 379 374 l 565 374 l 472 715 l 379 374 z "},"Á":{"ha":950,"x_min":-4,"x_max":954,"o":"m 954 0 l 663 0 l 611 190 l 332 190 l 279 0 l -4 0 l 304 917 l 644 917 l 954 0 m 379 374 l 565 374 l 472 715 l 379 374 m 442 1224 l 686 1224 l 560 993 l 360 993 l 442 1224 z "},"Ă":{"ha":950,"x_min":-4,"x_max":954,"o":"m 954 0 l 663 0 l 611 190 l 332 190 l 279 0 l -4 0 l 304 917 l 644 917 l 954 0 m 379 374 l 565 374 l 472 715 l 379 374 m 718 1215 q 653 1044 718 1106 q 474 982 588 982 q 295 1044 361 982 q 229 1215 229 1106 l 403 1215 q 421 1153 403 1176 q 474 1131 439 1131 q 527 1153 510 1131 q 544 1215 544 1176 l 718 1215 z "},"Ắ":{"ha":950,"x_min":-4,"x_max":954,"o":"m 699 1196 q 638 1038 699 1094 q 474 982 578 982 q 310 1038 369 982 q 250 1196 250 1094 l 407 1196 q 425 1138 408 1160 q 474 1117 442 1117 q 524 1138 507 1117 q 540 1196 540 1160 l 699 1196 m 365 1228 l 438 1432 l 658 1432 l 546 1228 l 365 1228 m 954 0 l 663 0 l 611 190 l 332 190 l 279 0 l -4 0 l 304 917 l 644 917 l 954 0 m 379 374 l 565 374 l 472 715 l 379 374 z "},"Ặ":{"ha":950,"x_min":-4,"x_max":954,"o":"m 954 0 l 663 0 l 611 190 l 332 190 l 279 0 l -4 0 l 304 917 l 644 917 l 954 0 m 379 374 l 565 374 l 472 715 l 379 374 m 474 -311 q 367 -281 403 -311 q 332 -189 332 -250 q 367 -99 332 -129 q 474 -68 403 -68 q 583 -99 546 -68 q 619 -189 619 -129 q 583 -281 619 -250 q 474 -311 546 -311 m 718 1215 q 653 1044 718 1106 q 474 982 588 982 q 295 1044 361 982 q 229 1215 229 1106 l 403 1215 q 421 1153 403 1176 q 474 1131 439 1131 q 527 1153 510 1131 q 544 1215 544 1176 l 718 1215 z "},"Ằ":{"ha":950,"x_min":-4,"x_max":954,"o":"m 699 1196 q 638 1038 699 1094 q 474 982 578 982 q 310 1038 369 982 q 250 1196 250 1094 l 407 1196 q 425 1138 408 1160 q 474 1117 442 1117 q 524 1138 507 1117 q 540 1196 540 1160 l 699 1196 m 583 1228 l 401 1228 l 290 1432 l 511 1432 l 583 1228 m 954 0 l 663 0 l 611 190 l 332 190 l 279 0 l -4 0 l 304 917 l 644 917 l 954 0 m 379 374 l 565 374 l 472 715 l 379 374 z "},"Ẳ":{"ha":950,"x_min":-4,"x_max":954,"o":"m 699 1196 q 638 1038 699 1094 q 474 982 578 982 q 310 1038 369 982 q 250 1196 250 1094 l 407 1196 q 425 1138 408 1160 q 474 1117 442 1117 q 524 1138 507 1117 q 540 1196 540 1160 l 699 1196 m 475 1206 l 424 1278 q 475 1308 460 1292 q 490 1340 490 1324 q 480 1369 490 1358 q 449 1381 469 1381 q 419 1372 431 1381 q 403 1346 408 1363 l 289 1397 q 351 1481 304 1451 q 465 1511 399 1511 q 546 1495 508 1511 q 606 1449 583 1479 q 629 1372 629 1418 q 605 1288 629 1321 q 545 1235 581 1254 q 475 1206 510 1215 m 954 0 l 663 0 l 611 190 l 332 190 l 279 0 l -4 0 l 304 917 l 644 917 l 954 0 m 379 374 l 565 374 l 472 715 l 379 374 z "},"Ẵ":{"ha":950,"x_min":-4,"x_max":954,"o":"m 699 1196 q 639 1038 699 1094 q 475 982 579 982 q 310 1038 371 982 q 250 1196 250 1094 l 408 1196 q 425 1138 408 1160 q 475 1117 442 1117 q 524 1138 507 1117 q 542 1196 540 1160 l 699 1196 m 735 1440 q 683 1281 731 1332 q 572 1229 636 1229 q 512 1239 538 1229 q 466 1262 486 1249 q 430 1285 446 1275 q 396 1296 414 1296 q 366 1281 376 1296 q 353 1232 356 1265 l 217 1232 q 269 1392 219 1340 q 389 1443 318 1443 q 448 1433 424 1443 q 490 1409 472 1422 q 522 1386 507 1396 q 556 1376 538 1376 q 584 1392 574 1376 q 599 1440 594 1407 l 735 1440 m 954 0 l 663 0 l 611 190 l 332 190 l 279 0 l -4 0 l 304 917 l 644 917 l 954 0 m 379 374 l 565 374 l 472 715 l 379 374 z "},"Â":{"ha":950,"x_min":-4,"x_max":954,"o":"m 954 0 l 663 0 l 611 190 l 332 190 l 279 0 l -4 0 l 304 917 l 644 917 l 954 0 m 379 374 l 565 374 l 472 715 l 379 374 m 743 993 l 557 993 l 474 1114 l 390 993 l 204 993 l 339 1224 l 608 1224 l 743 993 z "},"Ấ":{"ha":950,"x_min":-4,"x_max":986,"o":"m 732 989 l 554 989 l 474 1092 l 394 989 l 217 989 l 354 1214 l 594 1214 l 732 989 m 767 1333 l 986 1333 l 874 1128 l 692 1128 l 767 1333 m 954 0 l 663 0 l 611 190 l 332 190 l 279 0 l -4 0 l 304 917 l 644 917 l 954 0 m 379 374 l 565 374 l 472 715 l 379 374 z "},"Ậ":{"ha":950,"x_min":-4,"x_max":954,"o":"m 954 0 l 663 0 l 611 190 l 332 190 l 279 0 l -4 0 l 304 917 l 644 917 l 954 0 m 379 374 l 565 374 l 472 715 l 379 374 m 474 -311 q 367 -281 403 -311 q 332 -189 332 -250 q 367 -99 332 -129 q 474 -68 403 -68 q 583 -99 546 -68 q 619 -189 619 -129 q 583 -281 619 -250 q 474 -311 546 -311 m 743 993 l 557 993 l 474 1114 l 390 993 l 204 993 l 339 1224 l 608 1224 l 743 993 z "},"Ầ":{"ha":950,"x_min":-4,"x_max":954,"o":"m 732 989 l 554 989 l 474 1092 l 394 989 l 217 989 l 354 1214 l 594 1214 l 732 989 m 824 1333 l 897 1128 l 717 1128 l 604 1333 l 824 1333 m 954 0 l 663 0 l 611 190 l 332 190 l 279 0 l -4 0 l 304 917 l 644 917 l 954 0 m 379 374 l 565 374 l 472 715 l 379 374 z "},"Ẩ":{"ha":950,"x_min":-4,"x_max":954,"o":"m 732 989 l 554 989 l 474 1092 l 394 989 l 217 989 l 354 1214 l 594 1214 l 732 989 m 728 1106 l 672 1185 q 727 1217 711 1200 q 743 1253 743 1235 q 732 1283 743 1271 q 699 1294 721 1294 q 668 1285 679 1294 q 649 1258 657 1275 l 525 1314 q 592 1405 542 1372 q 717 1438 643 1438 q 803 1421 763 1438 q 869 1371 844 1404 q 894 1288 894 1338 q 868 1197 894 1233 q 802 1138 842 1160 q 728 1106 763 1117 m 954 0 l 663 0 l 611 190 l 332 190 l 279 0 l -4 0 l 304 917 l 644 917 l 954 0 m 379 374 l 565 374 l 472 715 l 379 374 z "},"Ẫ":{"ha":950,"x_min":-4,"x_max":954,"o":"m 732 989 l 554 989 l 474 1092 l 394 989 l 217 989 l 354 1214 l 594 1214 l 732 989 m 733 1456 q 683 1297 731 1349 q 572 1246 635 1246 q 512 1256 538 1246 q 466 1278 486 1265 q 430 1302 446 1292 q 396 1313 414 1313 q 366 1297 376 1313 q 353 1249 356 1281 l 217 1249 q 269 1407 219 1356 q 389 1458 318 1458 q 447 1449 424 1458 q 489 1425 471 1439 q 522 1401 507 1411 q 556 1392 536 1392 q 584 1407 574 1392 q 597 1456 594 1422 l 733 1456 m 954 0 l 663 0 l 611 190 l 332 190 l 279 0 l -4 0 l 304 917 l 644 917 l 954 0 m 379 374 l 565 374 l 472 715 l 379 374 z "},"Ȁ":{"ha":950,"x_min":-4,"x_max":954,"o":"m 954 0 l 663 0 l 611 190 l 332 190 l 279 0 l -4 0 l 304 917 l 644 917 l 954 0 m 379 374 l 565 374 l 472 715 l 379 374 m 335 1224 l 417 993 l 217 993 l 92 1224 l 335 1224 m 668 1224 l 751 993 l 550 993 l 425 1224 l 668 1224 z "},"Ä":{"ha":950,"x_min":-4,"x_max":954,"o":"m 954 0 l 663 0 l 611 190 l 332 190 l 279 0 l -4 0 l 304 917 l 644 917 l 954 0 m 379 374 l 565 374 l 472 715 l 379 374 m 313 1217 q 411 1186 376 1217 q 446 1099 446 1156 q 411 1012 446 1043 q 313 981 376 981 q 217 1012 251 981 q 183 1099 183 1043 q 217 1186 183 1156 q 313 1217 251 1217 m 631 1217 q 729 1186 694 1217 q 764 1099 764 1156 q 729 1012 764 1043 q 631 981 694 981 q 535 1012 569 981 q 501 1099 501 1043 q 535 1186 501 1156 q 631 1217 569 1217 z "},"Ạ":{"ha":950,"x_min":-4,"x_max":954,"o":"m 954 0 l 663 0 l 611 190 l 332 190 l 279 0 l -4 0 l 304 917 l 644 917 l 954 0 m 379 374 l 565 374 l 472 715 l 379 374 m 474 -311 q 367 -281 403 -311 q 332 -189 332 -250 q 367 -99 332 -129 q 474 -68 403 -68 q 583 -99 546 -68 q 619 -189 619 -129 q 583 -281 619 -250 q 474 -311 546 -311 z "},"À":{"ha":950,"x_min":-4,"x_max":954,"o":"m 954 0 l 663 0 l 611 190 l 332 190 l 279 0 l -4 0 l 304 917 l 644 917 l 954 0 m 379 374 l 565 374 l 472 715 l 379 374 m 504 1224 l 586 993 l 386 993 l 260 1224 l 504 1224 z "},"Ả":{"ha":950,"x_min":-4,"x_max":954,"o":"m 954 0 l 663 0 l 611 190 l 332 190 l 279 0 l -4 0 l 304 917 l 644 917 l 954 0 m 379 374 l 565 374 l 472 715 l 379 374 m 475 965 l 419 1043 q 475 1076 460 1060 q 490 1111 490 1093 q 479 1142 490 1131 q 447 1154 468 1154 q 415 1144 426 1154 q 396 1117 404 1135 l 274 1172 q 341 1264 290 1232 q 464 1296 392 1296 q 551 1279 510 1296 q 617 1229 592 1263 q 643 1146 643 1196 q 616 1055 643 1092 q 550 997 589 1018 q 475 965 511 975 z "},"Ȃ":{"ha":950,"x_min":-4,"x_max":954,"o":"m 954 0 l 663 0 l 611 190 l 332 190 l 279 0 l -4 0 l 304 917 l 644 917 l 954 0 m 379 374 l 565 374 l 472 715 l 379 374 m 718 982 l 544 982 q 527 1044 544 1021 q 474 1067 510 1067 q 421 1044 439 1067 q 403 982 403 1021 l 229 982 q 295 1154 229 1093 q 474 1215 361 1215 q 653 1154 588 1215 q 718 982 718 1093 z "},"Ā":{"ha":950,"x_min":-4,"x_max":954,"o":"m 954 0 l 663 0 l 611 190 l 332 190 l 279 0 l -4 0 l 304 917 l 644 917 l 954 0 m 379 374 l 565 374 l 472 715 l 379 374 m 735 1164 l 735 999 l 213 999 l 213 1164 l 735 1164 z "},"Ą":{"ha":950,"x_min":-4,"x_max":960,"o":"m 806 -299 q 703 -281 750 -299 q 630 -228 657 -264 q 603 -137 603 -193 q 668 -12 603 -57 q 838 44 733 33 l 954 0 q 858 -19 893 -7 q 809 -50 824 -32 q 794 -90 794 -68 q 813 -133 794 -118 q 867 -147 832 -147 q 898 -144 882 -147 q 925 -135 914 -142 l 960 -264 q 892 -292 929 -285 q 806 -299 854 -299 m 954 0 l 663 0 l 611 190 l 332 190 l 279 0 l -4 0 l 304 917 l 644 917 l 954 0 m 379 374 l 565 374 l 472 715 l 379 374 z "},"Å":{"ha":950,"x_min":-4,"x_max":954,"o":"m 954 0 l 663 0 l 611 190 l 332 190 l 279 0 l -4 0 l 304 917 l 644 917 l 954 0 m 379 374 l 565 374 l 472 715 l 379 374 m 474 1168 q 620 1119 565 1168 q 675 989 675 1071 q 620 860 675 908 q 474 811 565 811 q 328 860 383 811 q 274 989 274 908 q 328 1119 274 1071 q 474 1168 383 1168 m 475 1054 q 426 1037 444 1054 q 408 990 408 1019 q 426 942 408 960 q 475 925 444 925 q 522 942 504 925 q 540 990 540 960 q 522 1037 540 1019 q 475 1054 504 1054 z "},"Ǻ":{"ha":950,"x_min":-4,"x_max":954,"o":"m 954 0 l 663 0 l 611 190 l 332 190 l 279 0 l -4 0 l 304 917 l 644 917 l 954 0 m 379 374 l 565 374 l 472 715 l 379 374 m 474 1168 q 620 1119 565 1168 q 675 989 675 1071 q 620 860 675 908 q 474 811 565 811 q 328 860 383 811 q 274 989 274 908 q 328 1119 274 1071 q 474 1168 383 1168 m 475 1054 q 426 1037 444 1054 q 408 990 408 1019 q 426 942 408 960 q 475 925 444 925 q 522 942 504 925 q 540 990 540 960 q 522 1037 540 1019 q 475 1054 504 1054 m 461 1444 l 706 1444 l 579 1214 l 379 1214 l 461 1444 z "},"Ã":{"ha":950,"x_min":-4,"x_max":954,"o":"m 954 0 l 663 0 l 611 190 l 332 190 l 279 0 l -4 0 l 304 917 l 644 917 l 954 0 m 379 374 l 565 374 l 472 715 l 379 374 m 757 1221 q 731 1090 756 1142 q 666 1012 706 1038 q 581 986 626 986 q 513 998 542 986 q 463 1024 485 1010 q 424 1050 442 1039 q 386 1061 406 1061 q 354 1044 365 1061 q 339 989 343 1026 l 189 989 q 247 1165 193 1107 q 379 1222 300 1222 q 443 1211 417 1222 q 488 1185 469 1200 q 524 1160 507 1171 q 561 1149 542 1149 q 594 1166 583 1149 q 608 1221 604 1183 l 757 1221 z "},"Æ":{"ha":1268,"x_min":-10,"x_max":1238,"o":"m 832 201 l 1238 201 l 1238 0 l 569 0 l 569 264 l 356 264 l 272 0 l -10 0 l 332 917 l 1219 917 l 1219 715 l 832 715 l 832 551 l 1129 551 l 1129 364 l 832 364 l 832 201 m 406 438 l 569 438 l 569 725 l 501 725 l 406 438 z "},"Ǽ":{"ha":1268,"x_min":-10,"x_max":1238,"o":"m 832 201 l 1238 201 l 1238 0 l 569 0 l 569 264 l 356 264 l 272 0 l -10 0 l 332 917 l 1219 917 l 1219 715 l 832 715 l 832 551 l 1129 551 l 1129 364 l 832 364 l 832 201 m 406 438 l 569 438 l 569 725 l 501 725 l 406 438 m 669 1224 l 914 1224 l 788 993 l 588 993 l 669 1224 z "},"B":{"ha":964,"x_min":85,"x_max":933,"o":"m 85 0 l 85 917 l 572 917 q 827 853 744 915 q 910 671 910 792 q 862 535 910 592 q 713 463 814 478 l 713 461 q 879 389 825 447 q 933 244 933 331 q 851 63 933 125 q 601 0 768 0 l 85 0 m 357 192 l 536 192 q 617 213 590 192 q 643 275 643 235 q 617 336 643 315 q 536 357 590 357 l 357 357 l 357 192 m 357 553 l 515 553 q 619 635 619 553 q 515 717 619 717 l 357 717 l 357 553 z "},"C":{"ha":943,"x_min":50,"x_max":922,"o":"m 922 272 q 838 107 897 171 q 695 15 779 43 q 510 -14 611 -14 q 265 42 368 -14 q 106 204 161 99 q 50 458 50 310 q 106 713 50 607 q 265 874 161 818 q 508 931 368 931 q 692 903 608 931 q 835 817 776 875 q 914 665 893 758 l 668 567 q 615 685 653 656 q 517 714 576 714 q 422 685 461 714 q 362 601 382 657 q 342 458 342 544 q 360 317 342 374 q 419 231 379 260 q 522 203 458 203 q 618 236 579 203 q 669 340 657 269 l 922 272 z "},"Ć":{"ha":943,"x_min":50,"x_max":922,"o":"m 922 272 q 838 107 897 171 q 695 15 779 43 q 510 -14 611 -14 q 265 42 368 -14 q 106 204 161 99 q 50 458 50 310 q 106 713 50 607 q 265 874 161 818 q 508 931 368 931 q 692 903 608 931 q 835 817 776 875 q 914 665 893 758 l 668 567 q 615 685 653 656 q 517 714 576 714 q 422 685 461 714 q 362 601 382 657 q 342 458 342 544 q 360 317 342 374 q 419 231 379 260 q 522 203 458 203 q 618 236 579 203 q 669 340 657 269 l 922 272 m 467 1224 l 711 1224 l 585 993 l 385 993 l 467 1224 z "},"Č":{"ha":943,"x_min":50,"x_max":922,"o":"m 922 272 q 838 107 897 171 q 695 15 779 43 q 510 -14 611 -14 q 265 42 368 -14 q 106 204 161 99 q 50 458 50 310 q 106 713 50 607 q 265 874 161 818 q 508 931 368 931 q 692 903 608 931 q 835 817 776 875 q 914 665 893 758 l 668 567 q 615 685 653 656 q 517 714 576 714 q 422 685 461 714 q 362 601 382 657 q 342 458 342 544 q 360 317 342 374 q 419 231 379 260 q 522 203 458 203 q 618 236 579 203 q 669 340 657 269 l 922 272 m 768 1224 l 633 993 l 364 993 l 229 1224 l 415 1224 l 499 1103 l 582 1224 l 768 1224 z "},"Ç":{"ha":943,"x_min":50,"x_max":922,"o":"m 922 272 q 838 107 897 171 q 695 15 779 43 q 510 -14 611 -14 q 265 42 368 -14 q 106 204 161 99 q 50 458 50 310 q 106 713 50 607 q 265 874 161 818 q 508 931 368 931 q 692 903 608 931 q 835 817 776 875 q 914 665 893 758 l 668 567 q 615 685 653 656 q 517 714 576 714 q 422 685 461 714 q 362 601 382 657 q 342 458 342 544 q 360 317 342 374 q 419 231 379 260 q 522 203 458 203 q 618 236 579 203 q 669 340 657 269 l 922 272 m 376 17 l 432 56 q 609 0 551 43 q 667 -121 667 -43 q 613 -251 667 -203 q 461 -299 558 -299 q 372 -286 404 -299 q 315 -258 340 -274 l 357 -133 q 392 -151 374 -144 q 438 -157 411 -157 q 494 -137 472 -157 q 515 -85 515 -118 q 485 -30 515 -54 q 376 17 456 -6 z "},"Ḉ":{"ha":943,"x_min":50,"x_max":922,"o":"m 922 272 q 838 107 897 171 q 695 15 779 43 q 510 -14 611 -14 q 265 42 368 -14 q 106 204 161 99 q 50 458 50 310 q 106 713 50 607 q 265 874 161 818 q 508 931 368 931 q 692 903 608 931 q 835 817 776 875 q 914 665 893 758 l 668 567 q 615 685 653 656 q 517 714 576 714 q 422 685 461 714 q 362 601 382 657 q 342 458 342 544 q 360 317 342 374 q 419 231 379 260 q 522 203 458 203 q 618 236 579 203 q 669 340 657 269 l 922 272 m 376 17 l 432 56 q 609 0 551 43 q 667 -121 667 -43 q 613 -251 667 -203 q 461 -299 558 -299 q 372 -286 404 -299 q 315 -258 340 -274 l 357 -133 q 392 -151 374 -144 q 438 -157 411 -157 q 494 -137 472 -157 q 515 -85 515 -118 q 485 -30 515 -54 q 376 17 456 -6 m 467 1224 l 711 1224 l 585 993 l 385 993 l 467 1224 z "},"Ĉ":{"ha":943,"x_min":50,"x_max":922,"o":"m 922 272 q 838 107 897 171 q 695 15 779 43 q 510 -14 611 -14 q 265 42 368 -14 q 106 204 161 99 q 50 458 50 310 q 106 713 50 607 q 265 874 161 818 q 508 931 368 931 q 692 903 608 931 q 835 817 776 875 q 914 665 893 758 l 668 567 q 615 685 653 656 q 517 714 576 714 q 422 685 461 714 q 362 601 382 657 q 342 458 342 544 q 360 317 342 374 q 419 231 379 260 q 522 203 458 203 q 618 236 579 203 q 669 340 657 269 l 922 272 m 768 993 l 582 993 l 499 1114 l 415 993 l 229 993 l 364 1224 l 633 1224 l 768 993 z "},"Ċ":{"ha":943,"x_min":50,"x_max":922,"o":"m 922 272 q 838 107 897 171 q 695 15 779 43 q 510 -14 611 -14 q 265 42 368 -14 q 106 204 161 99 q 50 458 50 310 q 106 713 50 607 q 265 874 161 818 q 508 931 368 931 q 692 903 608 931 q 835 817 776 875 q 914 665 893 758 l 668 567 q 615 685 653 656 q 517 714 576 714 q 422 685 461 714 q 362 601 382 657 q 342 458 342 544 q 360 317 342 374 q 419 231 379 260 q 522 203 458 203 q 618 236 579 203 q 669 340 657 269 l 922 272 m 499 1228 q 608 1197 571 1228 q 644 1106 644 1167 q 608 1015 644 1046 q 499 985 571 985 q 392 1015 428 985 q 357 1106 357 1046 q 392 1197 357 1167 q 499 1228 428 1228 z "},"D":{"ha":996,"x_min":85,"x_max":946,"o":"m 506 917 q 833 797 721 917 q 946 458 946 678 q 833 120 946 240 q 506 0 721 0 l 85 0 l 85 917 l 506 917 m 471 207 q 614 269 574 207 q 654 458 654 331 q 614 648 654 586 q 471 710 574 710 l 368 710 l 368 207 l 471 207 z "},"Ǳ":{"ha":1875,"x_min":85,"x_max":1844,"o":"m 506 917 q 833 797 721 917 q 946 458 946 678 q 833 120 946 240 q 506 0 721 0 l 85 0 l 85 917 l 506 917 m 471 207 q 614 269 574 207 q 654 458 654 331 q 614 648 654 586 q 471 710 574 710 l 368 710 l 368 207 l 471 207 m 1253 113 l 1203 207 l 1844 207 l 1844 0 l 1036 0 l 1036 199 l 1614 804 l 1663 710 l 1043 710 l 1043 917 l 1829 917 l 1829 718 l 1253 113 z "},"Ǆ":{"ha":1875,"x_min":85,"x_max":1844,"o":"m 506 917 q 833 797 721 917 q 946 458 946 678 q 833 120 946 240 q 506 0 721 0 l 85 0 l 85 917 l 506 917 m 471 207 q 614 269 574 207 q 654 458 654 331 q 614 648 654 586 q 471 710 574 710 l 368 710 l 368 207 l 471 207 m 1253 113 l 1203 207 l 1844 207 l 1844 0 l 1036 0 l 1036 199 l 1614 804 l 1663 710 l 1043 710 l 1043 917 l 1829 917 l 1829 718 l 1253 113 m 1713 1224 l 1578 993 l 1308 993 l 1174 1224 l 1360 1224 l 1443 1103 l 1526 1224 l 1713 1224 z "},"Ð":{"ha":1032,"x_min":11,"x_max":981,"o":"m 11 363 l 11 551 l 553 551 l 553 363 l 11 363 m 542 917 q 869 797 757 917 q 981 458 981 678 q 869 120 981 240 q 542 0 757 0 l 121 0 l 121 917 l 542 917 m 507 207 q 649 269 608 207 q 690 458 690 331 q 649 648 690 586 q 507 710 608 710 l 404 710 l 404 207 l 507 207 z "},"Ď":{"ha":996,"x_min":85,"x_max":946,"o":"m 506 917 q 833 797 721 917 q 946 458 946 678 q 833 120 946 240 q 506 0 721 0 l 85 0 l 85 917 l 506 917 m 471 207 q 614 269 574 207 q 654 458 654 331 q 614 648 654 586 q 471 710 574 710 l 368 710 l 368 207 l 471 207 m 738 1224 l 603 993 l 333 993 l 199 1224 l 385 1224 l 468 1103 l 551 1224 l 738 1224 z "},"Đ":{"ha":1032,"x_min":11,"x_max":981,"o":"m 11 363 l 11 551 l 553 551 l 553 363 l 11 363 m 542 917 q 869 797 757 917 q 981 458 981 678 q 869 120 981 240 q 542 0 757 0 l 121 0 l 121 917 l 542 917 m 507 207 q 649 269 608 207 q 690 458 690 331 q 649 648 690 586 q 507 710 608 710 l 404 710 l 404 207 l 507 207 z "},"Ḍ":{"ha":996,"x_min":85,"x_max":946,"o":"m 506 917 q 833 797 721 917 q 946 458 946 678 q 833 120 946 240 q 506 0 721 0 l 85 0 l 85 917 l 506 917 m 471 207 q 614 269 574 207 q 654 458 654 331 q 614 648 654 586 q 471 710 574 710 l 368 710 l 368 207 l 471 207 m 464 -311 q 358 -281 393 -311 q 322 -189 322 -250 q 358 -99 322 -129 q 464 -68 393 -68 q 573 -99 536 -68 q 610 -189 610 -129 q 573 -281 610 -250 q 464 -311 536 -311 z "},"Ḏ":{"ha":996,"x_min":85,"x_max":946,"o":"m 506 917 q 833 797 721 917 q 946 458 946 678 q 833 120 946 240 q 506 0 721 0 l 85 0 l 85 917 l 506 917 m 471 207 q 614 269 574 207 q 654 458 654 331 q 614 648 654 586 q 471 710 574 710 l 368 710 l 368 207 l 471 207 m 725 -82 l 725 -247 l 203 -247 l 203 -82 l 725 -82 z "},"ǲ":{"ha":1701,"x_min":85,"x_max":1669,"o":"m 506 917 q 833 797 721 917 q 946 458 946 678 q 833 120 946 240 q 506 0 721 0 l 85 0 l 85 917 l 506 917 m 471 207 q 614 269 574 207 q 654 458 654 331 q 614 648 654 586 q 471 710 574 710 l 368 710 l 368 207 l 471 207 m 1033 0 l 1033 165 l 1278 439 l 1346 507 l 1242 504 l 1033 504 l 1033 694 l 1657 694 l 1657 529 l 1415 258 l 1344 188 l 1463 190 l 1669 190 l 1669 0 l 1033 0 z "},"ǅ":{"ha":1701,"x_min":85,"x_max":1669,"o":"m 506 917 q 833 797 721 917 q 946 458 946 678 q 833 120 946 240 q 506 0 721 0 l 85 0 l 85 917 l 506 917 m 471 207 q 614 269 574 207 q 654 458 654 331 q 614 648 654 586 q 471 710 574 710 l 368 710 l 368 207 l 471 207 m 1033 0 l 1033 165 l 1278 439 l 1346 507 l 1242 504 l 1033 504 l 1033 694 l 1657 694 l 1657 529 l 1415 258 l 1344 188 l 1463 190 l 1669 190 l 1669 0 l 1033 0 m 1618 1019 l 1469 776 l 1204 776 l 1054 1019 l 1250 1019 l 1336 910 l 1424 1019 l 1618 1019 z "},"E":{"ha":872,"x_min":85,"x_max":842,"o":"m 85 0 l 85 917 l 824 917 l 824 704 l 368 704 l 368 556 l 732 556 l 732 358 l 368 358 l 368 213 l 842 213 l 842 0 l 85 0 z "},"É":{"ha":872,"x_min":85,"x_max":842,"o":"m 85 0 l 85 917 l 824 917 l 824 704 l 368 704 l 368 556 l 732 556 l 732 358 l 368 358 l 368 213 l 842 213 l 842 0 l 85 0 m 410 1224 l 654 1224 l 528 993 l 328 993 l 410 1224 z "},"Ĕ":{"ha":872,"x_min":85,"x_max":842,"o":"m 85 0 l 85 917 l 824 917 l 824 704 l 368 704 l 368 556 l 732 556 l 732 358 l 368 358 l 368 213 l 842 213 l 842 0 l 85 0 m 699 1215 q 633 1044 699 1106 q 454 982 568 982 q 276 1044 342 982 q 210 1215 210 1106 l 383 1215 q 401 1153 383 1176 q 454 1131 419 1131 q 508 1153 490 1131 q 525 1215 525 1176 l 699 1215 z "},"Ě":{"ha":872,"x_min":85,"x_max":842,"o":"m 85 0 l 85 917 l 824 917 l 824 704 l 368 704 l 368 556 l 732 556 l 732 358 l 368 358 l 368 213 l 842 213 l 842 0 l 85 0 m 724 1224 l 589 993 l 319 993 l 185 1224 l 371 1224 l 454 1103 l 538 1224 l 724 1224 z "},"Ḝ":{"ha":872,"x_min":85,"x_max":842,"o":"m 85 0 l 85 917 l 824 917 l 824 704 l 368 704 l 368 556 l 732 556 l 732 358 l 368 358 l 368 213 l 842 213 l 842 0 l 85 0 m 358 17 l 414 56 q 591 0 533 43 q 649 -121 649 -43 q 594 -251 649 -203 q 443 -299 540 -299 q 354 -286 386 -299 q 297 -258 322 -274 l 339 -133 q 374 -151 356 -144 q 419 -157 393 -157 q 476 -137 454 -157 q 497 -85 497 -118 q 467 -30 497 -54 q 358 17 438 -6 m 699 1215 q 633 1044 699 1106 q 454 982 568 982 q 276 1044 342 982 q 210 1215 210 1106 l 383 1215 q 401 1153 383 1176 q 454 1131 419 1131 q 508 1153 490 1131 q 525 1215 525 1176 l 699 1215 z "},"Ê":{"ha":872,"x_min":85,"x_max":842,"o":"m 85 0 l 85 917 l 824 917 l 824 704 l 368 704 l 368 556 l 732 556 l 732 358 l 368 358 l 368 213 l 842 213 l 842 0 l 85 0 m 724 993 l 538 993 l 454 1114 l 371 993 l 185 993 l 319 1224 l 589 1224 l 724 993 z "},"Ế":{"ha":872,"x_min":85,"x_max":965,"o":"m 713 989 l 535 989 l 454 1092 l 374 989 l 196 989 l 335 1214 l 574 1214 l 713 989 m 746 1333 l 965 1333 l 853 1128 l 672 1128 l 746 1333 m 85 0 l 85 917 l 824 917 l 824 704 l 368 704 l 368 556 l 732 556 l 732 358 l 368 358 l 368 213 l 842 213 l 842 0 l 85 0 z "},"Ệ":{"ha":872,"x_min":85,"x_max":842,"o":"m 85 0 l 85 917 l 824 917 l 824 704 l 368 704 l 368 556 l 732 556 l 732 358 l 368 358 l 368 213 l 842 213 l 842 0 l 85 0 m 472 -311 q 366 -281 401 -311 q 331 -189 331 -250 q 366 -99 331 -129 q 472 -68 401 -68 q 581 -99 544 -68 q 618 -189 618 -129 q 581 -281 618 -250 q 472 -311 544 -311 m 724 993 l 538 993 l 454 1114 l 371 993 l 185 993 l 319 1224 l 589 1224 l 724 993 z "},"Ề":{"ha":872,"x_min":85,"x_max":878,"o":"m 713 989 l 535 989 l 454 1092 l 374 989 l 196 989 l 335 1214 l 574 1214 l 713 989 m 803 1333 l 878 1128 l 697 1128 l 583 1333 l 803 1333 m 85 0 l 85 917 l 824 917 l 824 704 l 368 704 l 368 556 l 732 556 l 732 358 l 368 358 l 368 213 l 842 213 l 842 0 l 85 0 z "},"Ể":{"ha":872,"x_min":85,"x_max":875,"o":"m 713 989 l 535 989 l 454 1092 l 374 989 l 196 989 l 335 1214 l 574 1214 l 713 989 m 707 1106 l 651 1185 q 707 1217 692 1200 q 722 1253 722 1235 q 711 1283 722 1271 q 679 1294 700 1294 q 647 1285 658 1294 q 628 1258 636 1275 l 506 1314 q 573 1405 522 1372 q 696 1438 624 1438 q 783 1421 742 1438 q 849 1371 824 1404 q 875 1288 875 1338 q 848 1197 875 1233 q 782 1138 821 1160 q 707 1106 743 1117 m 85 0 l 85 917 l 824 917 l 824 704 l 368 704 l 368 556 l 732 556 l 732 358 l 368 358 l 368 213 l 842 213 l 842 0 l 85 0 z "},"Ễ":{"ha":872,"x_min":85,"x_max":842,"o":"m 713 989 l 535 989 l 454 1092 l 374 989 l 196 989 l 335 1214 l 574 1214 l 713 989 m 714 1456 q 663 1297 710 1349 q 553 1246 615 1246 q 491 1256 517 1246 q 446 1278 465 1265 q 410 1302 426 1292 q 376 1313 393 1313 q 346 1297 356 1313 q 332 1249 336 1281 l 196 1249 q 249 1407 200 1356 q 369 1458 297 1458 q 427 1449 403 1458 q 469 1425 451 1439 q 501 1401 486 1411 q 535 1392 517 1392 q 564 1407 554 1392 q 578 1456 574 1422 l 714 1456 m 85 0 l 85 917 l 824 917 l 824 704 l 368 704 l 368 556 l 732 556 l 732 358 l 368 358 l 368 213 l 842 213 l 842 0 l 85 0 z "},"Ȅ":{"ha":872,"x_min":72,"x_max":842,"o":"m 85 0 l 85 917 l 824 917 l 824 704 l 368 704 l 368 556 l 732 556 l 732 358 l 368 358 l 368 213 l 842 213 l 842 0 l 85 0 m 315 1224 l 397 993 l 197 993 l 72 1224 l 315 1224 m 649 1224 l 732 993 l 531 993 l 406 1224 l 649 1224 z "},"Ë":{"ha":872,"x_min":85,"x_max":842,"o":"m 85 0 l 85 917 l 824 917 l 824 704 l 368 704 l 368 556 l 732 556 l 732 358 l 368 358 l 368 213 l 842 213 l 842 0 l 85 0 m 293 1217 q 392 1186 357 1217 q 426 1099 426 1156 q 392 1012 426 1043 q 293 981 357 981 q 198 1012 232 981 q 164 1099 164 1043 q 198 1186 164 1156 q 293 1217 232 1217 m 611 1217 q 710 1186 675 1217 q 744 1099 744 1156 q 710 1012 744 1043 q 611 981 675 981 q 516 1012 550 981 q 482 1099 482 1043 q 516 1186 482 1156 q 611 1217 550 1217 z "},"Ė":{"ha":872,"x_min":85,"x_max":842,"o":"m 85 0 l 85 917 l 824 917 l 824 704 l 368 704 l 368 556 l 732 556 l 732 358 l 368 358 l 368 213 l 842 213 l 842 0 l 85 0 m 454 1228 q 563 1197 526 1228 q 600 1106 600 1167 q 563 1015 600 1046 q 454 985 526 985 q 348 1015 383 985 q 313 1106 313 1046 q 348 1197 313 1167 q 454 1228 383 1228 z "},"Ẹ":{"ha":872,"x_min":85,"x_max":842,"o":"m 85 0 l 85 917 l 824 917 l 824 704 l 368 704 l 368 556 l 732 556 l 732 358 l 368 358 l 368 213 l 842 213 l 842 0 l 85 0 m 472 -311 q 366 -281 401 -311 q 331 -189 331 -250 q 366 -99 331 -129 q 472 -68 401 -68 q 581 -99 544 -68 q 618 -189 618 -129 q 581 -281 618 -250 q 472 -311 544 -311 z "},"È":{"ha":872,"x_min":85,"x_max":842,"o":"m 85 0 l 85 917 l 824 917 l 824 704 l 368 704 l 368 556 l 732 556 l 732 358 l 368 358 l 368 213 l 842 213 l 842 0 l 85 0 m 486 1224 l 568 993 l 368 993 l 242 1224 l 486 1224 z "},"Ẻ":{"ha":872,"x_min":85,"x_max":842,"o":"m 85 0 l 85 917 l 824 917 l 824 704 l 368 704 l 368 556 l 732 556 l 732 358 l 368 358 l 368 213 l 842 213 l 842 0 l 85 0 m 456 965 l 400 1043 q 456 1076 440 1060 q 471 1111 471 1093 q 460 1142 471 1131 q 428 1154 449 1154 q 396 1144 407 1154 q 376 1117 385 1135 l 254 1172 q 322 1264 271 1232 q 444 1296 372 1296 q 531 1279 490 1296 q 598 1229 572 1263 q 624 1146 624 1196 q 597 1055 624 1092 q 531 997 569 1018 q 456 965 492 975 z "},"Ȇ":{"ha":872,"x_min":85,"x_max":842,"o":"m 85 0 l 85 917 l 824 917 l 824 704 l 368 704 l 368 556 l 732 556 l 732 358 l 368 358 l 368 213 l 842 213 l 842 0 l 85 0 m 699 982 l 525 982 q 508 1044 525 1021 q 454 1067 490 1067 q 401 1044 419 1067 q 383 982 383 1021 l 210 982 q 276 1154 210 1093 q 454 1215 342 1215 q 633 1154 568 1215 q 699 982 699 1093 z "},"Ē":{"ha":872,"x_min":85,"x_max":842,"o":"m 85 0 l 85 917 l 824 917 l 824 704 l 368 704 l 368 556 l 732 556 l 732 358 l 368 358 l 368 213 l 842 213 l 842 0 l 85 0 m 715 1164 l 715 999 l 193 999 l 193 1164 l 715 1164 z "},"Ḗ":{"ha":872,"x_min":85,"x_max":842,"o":"m 85 0 l 85 917 l 824 917 l 824 704 l 368 704 l 368 556 l 732 556 l 732 358 l 368 358 l 368 213 l 842 213 l 842 0 l 85 0 m 715 1164 l 715 999 l 193 999 l 193 1164 l 715 1164 m 422 1468 l 667 1468 l 540 1238 l 340 1238 l 422 1468 z "},"Ḕ":{"ha":872,"x_min":85,"x_max":842,"o":"m 85 0 l 85 917 l 824 917 l 824 704 l 368 704 l 368 556 l 732 556 l 732 358 l 368 358 l 368 213 l 842 213 l 842 0 l 85 0 m 715 1164 l 715 999 l 193 999 l 193 1164 l 715 1164 m 486 1468 l 568 1238 l 368 1238 l 242 1468 l 486 1468 z "},"Ę":{"ha":872,"x_min":85,"x_max":846,"o":"m 692 -303 q 590 -285 636 -303 q 516 -233 543 -268 q 489 -143 489 -197 q 567 -15 489 -61 q 771 43 646 31 l 842 0 q 715 -37 750 -12 q 679 -94 679 -61 q 699 -136 679 -121 q 751 -151 718 -151 q 784 -149 768 -151 q 811 -139 800 -146 l 846 -268 q 778 -295 815 -287 q 692 -303 740 -303 m 85 0 l 85 917 l 824 917 l 824 704 l 368 704 l 368 556 l 732 556 l 732 358 l 368 358 l 368 213 l 842 213 l 842 0 l 85 0 z "},"Ǝ":{"ha":872,"x_min":32,"x_max":788,"o":"m 788 0 l 32 0 l 32 213 l 504 213 l 504 358 l 140 358 l 140 556 l 504 556 l 504 704 l 49 704 l 49 917 l 788 917 l 788 0 z "},"Ẽ":{"ha":872,"x_min":85,"x_max":842,"o":"m 85 0 l 85 917 l 824 917 l 824 704 l 368 704 l 368 556 l 732 556 l 732 358 l 368 358 l 368 213 l 842 213 l 842 0 l 85 0 m 738 1221 q 711 1090 736 1142 q 647 1012 686 1038 q 561 986 607 986 q 494 998 522 986 q 444 1024 465 1010 q 404 1050 422 1039 q 367 1061 386 1061 q 335 1044 346 1061 q 319 989 324 1026 l 169 989 q 227 1165 174 1107 q 360 1222 281 1222 q 424 1211 397 1222 q 469 1185 450 1200 q 505 1160 488 1171 q 542 1149 522 1149 q 574 1166 564 1149 q 589 1221 585 1183 l 738 1221 z "},"F":{"ha":851,"x_min":85,"x_max":822,"o":"m 822 704 l 368 704 l 368 544 l 732 544 l 732 332 l 368 332 l 368 0 l 85 0 l 85 917 l 822 917 l 822 704 z "},"G":{"ha":1003,"x_min":50,"x_max":933,"o":"m 468 -14 q 253 39 347 -14 q 104 197 158 92 q 50 456 50 303 q 106 712 50 606 q 268 874 163 818 q 518 931 374 931 q 780 872 681 931 q 933 688 879 814 l 669 589 q 617 685 656 657 q 519 714 578 714 q 420 685 460 714 q 361 600 381 657 q 342 458 342 543 q 363 308 342 367 q 429 223 385 250 q 539 196 474 196 q 600 203 572 196 q 649 226 628 211 q 682 265 671 242 q 693 318 693 288 l 693 325 l 513 325 l 513 507 l 932 507 l 932 0 l 742 0 l 719 232 l 764 188 q 664 38 739 90 q 468 -14 589 -14 z "},"Ğ":{"ha":1003,"x_min":50,"x_max":933,"o":"m 468 -14 q 253 39 347 -14 q 104 197 158 92 q 50 456 50 303 q 106 712 50 606 q 268 874 163 818 q 518 931 374 931 q 780 872 681 931 q 933 688 879 814 l 669 589 q 617 685 656 657 q 519 714 578 714 q 420 685 460 714 q 361 600 381 657 q 342 458 342 543 q 363 308 342 367 q 429 223 385 250 q 539 196 474 196 q 600 203 572 196 q 649 226 628 211 q 682 265 671 242 q 693 318 693 288 l 693 325 l 513 325 l 513 507 l 932 507 l 932 0 l 742 0 l 719 232 l 764 188 q 664 38 739 90 q 468 -14 589 -14 m 753 1215 q 688 1044 753 1106 q 508 982 622 982 q 330 1044 396 982 q 264 1215 264 1106 l 438 1215 q 456 1153 438 1176 q 508 1131 474 1131 q 562 1153 544 1131 q 579 1215 579 1176 l 753 1215 z "},"Ǧ":{"ha":1003,"x_min":50,"x_max":933,"o":"m 468 -14 q 253 39 347 -14 q 104 197 158 92 q 50 456 50 303 q 106 712 50 606 q 268 874 163 818 q 518 931 374 931 q 780 872 681 931 q 933 688 879 814 l 669 589 q 617 685 656 657 q 519 714 578 714 q 420 685 460 714 q 361 600 381 657 q 342 458 342 543 q 363 308 342 367 q 429 223 385 250 q 539 196 474 196 q 600 203 572 196 q 649 226 628 211 q 682 265 671 242 q 693 318 693 288 l 693 325 l 513 325 l 513 507 l 932 507 l 932 0 l 742 0 l 719 232 l 764 188 q 664 38 739 90 q 468 -14 589 -14 m 778 1224 l 643 993 l 374 993 l 239 1224 l 425 1224 l 508 1103 l 592 1224 l 778 1224 z "},"Ĝ":{"ha":1003,"x_min":50,"x_max":933,"o":"m 468 -14 q 253 39 347 -14 q 104 197 158 92 q 50 456 50 303 q 106 712 50 606 q 268 874 163 818 q 518 931 374 931 q 780 872 681 931 q 933 688 879 814 l 669 589 q 617 685 656 657 q 519 714 578 714 q 420 685 460 714 q 361 600 381 657 q 342 458 342 543 q 363 308 342 367 q 429 223 385 250 q 539 196 474 196 q 600 203 572 196 q 649 226 628 211 q 682 265 671 242 q 693 318 693 288 l 693 325 l 513 325 l 513 507 l 932 507 l 932 0 l 742 0 l 719 232 l 764 188 q 664 38 739 90 q 468 -14 589 -14 m 778 993 l 592 993 l 508 1114 l 425 993 l 239 993 l 374 1224 l 643 1224 l 778 993 z "},"Ģ":{"ha":1003,"x_min":50,"x_max":933,"o":"m 468 -14 q 253 39 347 -14 q 104 197 158 92 q 50 456 50 303 q 106 712 50 606 q 268 874 163 818 q 518 931 374 931 q 780 872 681 931 q 933 688 879 814 l 669 589 q 617 685 656 657 q 519 714 578 714 q 420 685 460 714 q 361 600 381 657 q 342 458 342 543 q 363 308 342 367 q 429 223 385 250 q 539 196 474 196 q 600 203 572 196 q 649 226 628 211 q 682 265 671 242 q 693 318 693 288 l 693 325 l 513 325 l 513 507 l 932 507 l 932 0 l 742 0 l 719 232 l 764 188 q 664 38 739 90 q 468 -14 589 -14 m 678 -76 l 576 -336 l 399 -336 l 438 -76 l 678 -76 z "},"Ġ":{"ha":1003,"x_min":50,"x_max":933,"o":"m 468 -14 q 253 39 347 -14 q 104 197 158 92 q 50 456 50 303 q 106 712 50 606 q 268 874 163 818 q 518 931 374 931 q 780 872 681 931 q 933 688 879 814 l 669 589 q 617 685 656 657 q 519 714 578 714 q 420 685 460 714 q 361 600 381 657 q 342 458 342 543 q 363 308 342 367 q 429 223 385 250 q 539 196 474 196 q 600 203 572 196 q 649 226 628 211 q 682 265 671 242 q 693 318 693 288 l 693 325 l 513 325 l 513 507 l 932 507 l 932 0 l 742 0 l 719 232 l 764 188 q 664 38 739 90 q 468 -14 589 -14 m 508 1228 q 617 1197 581 1228 q 654 1106 654 1167 q 617 1015 654 1046 q 508 985 581 985 q 402 1015 438 985 q 367 1106 367 1046 q 402 1197 367 1167 q 508 1228 438 1228 z "},"Ɂ":{"ha":878,"x_min":25,"x_max":850,"o":"m 463 931 q 661 894 574 931 q 799 786 749 857 q 850 613 850 715 q 813 438 850 507 q 713 329 775 369 q 571 272 650 289 l 571 0 l 299 0 l 300 426 q 442 455 390 431 q 517 519 494 479 q 540 611 540 560 q 527 664 540 643 q 492 697 514 685 q 440 708 469 708 q 344 669 379 708 q 299 549 310 629 l 25 635 q 93 785 44 718 q 231 892 142 853 q 463 931 319 931 z "},"Ḡ":{"ha":1003,"x_min":50,"x_max":933,"o":"m 468 -14 q 253 39 347 -14 q 104 197 158 92 q 50 456 50 303 q 106 712 50 606 q 268 874 163 818 q 518 931 374 931 q 780 872 681 931 q 933 688 879 814 l 669 589 q 617 685 656 657 q 519 714 578 714 q 420 685 460 714 q 361 600 381 657 q 342 458 342 543 q 363 308 342 367 q 429 223 385 250 q 539 196 474 196 q 600 203 572 196 q 649 226 628 211 q 682 265 671 242 q 693 318 693 288 l 693 325 l 513 325 l 513 507 l 932 507 l 932 0 l 742 0 l 719 232 l 764 188 q 664 38 739 90 q 468 -14 589 -14 m 769 1164 l 769 999 l 247 999 l 247 1164 l 769 1164 z "},"H":{"ha":1035,"x_min":85,"x_max":950,"o":"m 950 917 l 950 0 l 665 0 l 665 917 l 950 917 m 368 917 l 368 0 l 85 0 l 85 917 l 368 917 m 821 568 l 821 356 l 222 356 l 222 568 l 821 568 z "},"Ħ":{"ha":1035,"x_min":-11,"x_max":1046,"o":"m 950 917 l 950 0 l 665 0 l 665 917 l 950 917 m 368 917 l 368 0 l 85 0 l 85 917 l 368 917 m 821 568 l 821 356 l 222 356 l 222 568 l 821 568 m 1046 811 l 1046 665 l -11 665 l -11 811 l 1046 811 z "},"Ḫ":{"ha":1035,"x_min":85,"x_max":950,"o":"m 950 917 l 950 0 l 665 0 l 665 917 l 950 917 m 368 917 l 368 0 l 85 0 l 85 917 l 368 917 m 821 568 l 821 356 l 222 356 l 222 568 l 821 568 m 763 -65 q 697 -237 763 -175 q 518 -299 632 -299 q 340 -237 406 -299 q 274 -65 274 -175 l 447 -65 q 465 -127 447 -104 q 518 -150 483 -150 q 572 -127 554 -150 q 589 -65 589 -104 l 763 -65 z "},"Ĥ":{"ha":1035,"x_min":85,"x_max":950,"o":"m 950 917 l 950 0 l 665 0 l 665 917 l 950 917 m 368 917 l 368 0 l 85 0 l 85 917 l 368 917 m 821 568 l 821 356 l 222 356 l 222 568 l 821 568 m 788 993 l 601 993 l 518 1114 l 435 993 l 249 993 l 383 1224 l 653 1224 l 788 993 z "},"Ḥ":{"ha":1035,"x_min":85,"x_max":950,"o":"m 950 917 l 950 0 l 665 0 l 665 917 l 950 917 m 368 917 l 368 0 l 85 0 l 85 917 l 368 917 m 821 568 l 821 356 l 222 356 l 222 568 l 821 568 m 518 -311 q 412 -281 447 -311 q 376 -189 376 -250 q 412 -99 376 -129 q 518 -68 447 -68 q 627 -99 590 -68 q 664 -189 664 -129 q 627 -281 664 -250 q 518 -311 590 -311 z "},"I":{"ha":453,"x_min":85,"x_max":368,"o":"m 368 917 l 368 0 l 85 0 l 85 917 l 368 917 z "},"Ĳ":{"ha":1338,"x_min":85,"x_max":1272,"o":"m 368 917 l 368 0 l 85 0 l 85 917 l 368 917 m 1271 917 l 1271 365 q 1165 86 1271 186 q 863 -14 1060 -14 q 630 38 718 -14 q 510 179 542 89 q 496 385 478 269 l 775 432 q 784 253 758 304 q 875 203 810 203 q 961 248 935 203 q 988 390 988 293 l 988 917 l 1271 917 z "},"Í":{"ha":453,"x_min":85,"x_max":440,"o":"m 368 917 l 368 0 l 85 0 l 85 917 l 368 917 m 197 1224 l 442 1224 l 315 993 l 115 993 l 197 1224 z "},"Ĭ":{"ha":453,"x_min":-19,"x_max":471,"o":"m 368 917 l 368 0 l 85 0 l 85 917 l 368 917 m 471 1215 q 406 1044 471 1106 q 226 982 340 982 q 48 1044 114 982 q -18 1215 -18 1106 l 156 1215 q 174 1153 156 1176 q 226 1131 192 1131 q 280 1153 263 1131 q 297 1215 297 1176 l 471 1215 z "},"Î":{"ha":453,"x_min":-43,"x_max":494,"o":"m 368 917 l 368 0 l 85 0 l 85 917 l 368 917 m 496 993 l 310 993 l 226 1114 l 143 993 l -43 993 l 92 1224 l 361 1224 l 496 993 z "},"Ȉ":{"ha":453,"x_min":-157,"x_max":503,"o":"m 368 917 l 368 0 l 85 0 l 85 917 l 368 917 m 88 1224 l 169 993 l -31 993 l -156 1224 l 88 1224 m 421 1224 l 504 993 l 303 993 l 178 1224 l 421 1224 z "},"Ï":{"ha":453,"x_min":-50,"x_max":504,"o":"m 75 1217 q 170 1186 136 1217 q 204 1099 204 1156 q 170 1012 204 1043 q 75 981 136 981 q -17 1012 17 981 q -50 1099 -50 1043 q -17 1186 -50 1156 q 75 1217 17 1217 m 374 1217 q 469 1186 435 1217 q 504 1099 504 1156 q 469 1012 504 1043 q 374 981 435 981 q 282 1012 315 981 q 249 1099 249 1043 q 282 1186 249 1156 q 374 1217 315 1217 m 368 917 l 368 0 l 85 0 l 85 917 l 368 917 z "},"Ḯ":{"ha":453,"x_min":-65,"x_max":517,"o":"m 368 917 l 368 0 l 85 0 l 85 917 l 368 917 m 65 1217 q 164 1186 129 1217 q 199 1099 199 1156 q 164 1012 199 1043 q 65 981 129 981 q -30 1012 4 981 q -64 1099 -64 1043 q -30 1186 -64 1156 q 65 1217 4 1217 m 383 1217 q 482 1186 447 1217 q 517 1099 517 1156 q 482 1012 517 1043 q 383 981 447 981 q 288 1012 322 981 q 254 1099 254 1043 q 288 1186 254 1156 q 383 1217 322 1217 m 194 1497 l 439 1497 l 313 1267 l 113 1267 l 194 1497 z "},"İ":{"ha":453,"x_min":83,"x_max":371,"o":"m 368 917 l 368 0 l 85 0 l 85 917 l 368 917 m 226 1228 q 335 1197 299 1228 q 372 1106 372 1167 q 335 1015 372 1046 q 226 985 299 985 q 120 1015 156 985 q 85 1106 85 1046 q 120 1197 85 1167 q 226 1228 156 1228 z "},"Ị":{"ha":453,"x_min":85,"x_max":372,"o":"m 368 917 l 368 0 l 85 0 l 85 917 l 368 917 m 226 -311 q 120 -281 156 -311 q 85 -189 85 -250 q 120 -99 85 -129 q 226 -68 156 -68 q 335 -99 299 -68 q 372 -189 372 -129 q 335 -281 372 -250 q 226 -311 299 -311 z "},"Ì":{"ha":453,"x_min":11,"x_max":368,"o":"m 368 917 l 368 0 l 85 0 l 85 917 l 368 917 m 256 1224 l 338 993 l 138 993 l 11 1224 l 256 1224 z "},"Ỉ":{"ha":453,"x_min":25,"x_max":394,"o":"m 368 917 l 368 0 l 85 0 l 85 917 l 368 917 m 226 965 l 171 1043 q 226 1076 211 1060 q 242 1111 242 1093 q 231 1142 242 1131 q 199 1154 219 1154 q 167 1144 178 1154 q 147 1117 156 1135 l 25 1172 q 92 1264 42 1232 q 215 1296 143 1296 q 302 1279 261 1296 q 369 1229 343 1263 q 394 1146 394 1196 q 367 1055 394 1092 q 301 997 340 1018 q 226 965 263 975 z "},"Ȋ":{"ha":453,"x_min":-19,"x_max":471,"o":"m 368 917 l 368 0 l 85 0 l 85 917 l 368 917 m 471 982 l 297 982 q 280 1044 297 1021 q 226 1067 263 1067 q 174 1044 192 1067 q 156 982 156 1021 l -18 982 q 48 1154 -18 1093 q 226 1215 114 1215 q 406 1154 340 1215 q 471 982 471 1093 z "},"Ī":{"ha":453,"x_min":11,"x_max":439,"o":"m 439 1164 l 439 999 l 11 999 l 11 1164 l 439 1164 m 368 917 l 368 0 l 85 0 l 85 917 l 368 917 z "},"Į":{"ha":453,"x_min":19,"x_max":388,"o":"m 235 -314 q 131 -297 181 -314 q 50 -243 81 -281 q 19 -142 19 -206 q 53 -31 19 -74 q 142 33 86 11 q 265 65 197 56 l 368 0 q 262 -47 299 -24 q 225 -106 225 -69 q 243 -147 225 -132 q 294 -162 261 -162 q 326 -160 310 -162 q 353 -151 342 -157 l 388 -281 q 320 -306 357 -299 q 235 -314 283 -314 m 368 917 l 368 0 l 85 0 l 85 917 l 368 917 z "},"Ĩ":{"ha":453,"x_min":-58,"x_max":510,"o":"m 368 917 l 368 0 l 85 0 l 85 917 l 368 917 m 510 1221 q 483 1090 508 1142 q 419 1012 458 1038 q 333 986 379 986 q 266 998 294 986 q 216 1024 238 1010 q 176 1050 194 1039 q 139 1061 158 1061 q 107 1044 118 1061 q 92 989 96 1026 l -58 989 q -1 1165 -54 1107 q 132 1222 53 1222 q 196 1211 169 1222 q 241 1185 222 1200 q 277 1160 260 1171 q 314 1149 294 1149 q 347 1166 336 1149 q 361 1221 357 1183 l 510 1221 z "},"J":{"ha":885,"x_min":25,"x_max":818,"o":"m 818 917 l 818 365 q 713 86 818 186 q 410 -14 607 -14 q 177 38 265 -14 q 57 179 89 89 q 43 385 25 269 l 322 432 q 331 253 306 304 q 422 203 357 203 q 508 248 482 203 q 535 390 535 293 l 535 917 l 818 917 z "},"Ĵ":{"ha":885,"x_min":25,"x_max":946,"o":"m 818 917 l 818 365 q 713 86 818 186 q 410 -14 607 -14 q 177 38 265 -14 q 57 179 89 89 q 43 385 25 269 l 322 432 q 331 253 306 304 q 422 203 357 203 q 508 248 482 203 q 535 390 535 293 l 535 917 l 818 917 m 947 993 l 761 993 l 678 1114 l 594 993 l 408 993 l 543 1224 l 813 1224 l 947 993 z "},"K":{"ha":981,"x_min":85,"x_max":978,"o":"m 956 917 l 515 365 l 501 419 l 292 149 l 231 358 l 649 917 l 956 917 m 368 917 l 368 0 l 85 0 l 85 917 l 368 917 m 617 626 l 978 0 l 657 0 l 407 469 l 617 626 z "},"Ķ":{"ha":981,"x_min":85,"x_max":978,"o":"m 956 917 l 515 365 l 501 419 l 292 149 l 231 358 l 649 917 l 956 917 m 368 917 l 368 0 l 85 0 l 85 917 l 368 917 m 617 626 l 978 0 l 657 0 l 407 469 l 617 626 m 643 -76 l 542 -336 l 364 -336 l 403 -76 l 643 -76 z "},"L":{"ha":839,"x_min":85,"x_max":804,"o":"m 368 213 l 804 213 l 804 0 l 85 0 l 85 917 l 368 917 l 368 213 z "},"Ǉ":{"ha":1722,"x_min":85,"x_max":1657,"o":"m 368 213 l 804 213 l 804 0 l 85 0 l 85 917 l 368 917 l 368 213 m 1657 917 l 1657 365 q 1551 86 1657 186 q 1249 -14 1446 -14 q 1016 38 1104 -14 q 896 179 928 89 q 882 385 864 269 l 1161 432 q 1170 253 1144 304 q 1261 203 1196 203 q 1347 248 1321 203 q 1374 390 1374 293 l 1374 917 l 1657 917 z "},"Ĺ":{"ha":839,"x_min":85,"x_max":804,"o":"m 368 213 l 804 213 l 804 0 l 85 0 l 85 917 l 368 917 l 368 213 m 194 1224 l 439 1224 l 313 993 l 113 993 l 194 1224 z "},"Ľ":{"ha":839,"x_min":85,"x_max":804,"o":"m 804 917 l 711 564 l 526 564 l 561 917 l 804 917 m 368 213 l 804 213 l 804 0 l 85 0 l 85 917 l 368 917 l 368 213 z "},"Ļ":{"ha":839,"x_min":85,"x_max":804,"o":"m 368 213 l 804 213 l 804 0 l 85 0 l 85 917 l 368 917 l 368 213 m 597 -76 l 496 -336 l 318 -336 l 357 -76 l 597 -76 z "},"Ŀ":{"ha":907,"x_min":85,"x_max":840,"o":"m 368 213 l 804 213 l 804 0 l 85 0 l 85 917 l 368 917 l 368 213 m 685 671 q 800 635 760 671 q 840 533 840 599 q 800 432 840 468 q 685 396 760 396 q 571 432 613 396 q 529 533 529 468 q 571 635 529 599 q 685 671 613 671 z "},"Ḷ":{"ha":839,"x_min":85,"x_max":804,"o":"m 368 213 l 804 213 l 804 0 l 85 0 l 85 917 l 368 917 l 368 213 m 453 -311 q 347 -281 382 -311 q 311 -189 311 -250 q 347 -99 311 -129 q 453 -68 382 -68 q 562 -99 525 -68 q 599 -189 599 -129 q 562 -281 599 -250 q 453 -311 525 -311 z "},"ǈ":{"ha":1256,"x_min":85,"x_max":1204,"o":"m 368 213 l 804 213 l 804 0 l 85 0 l 85 917 l 368 917 l 368 213 m 1047 756 q 927 785 964 756 q 890 879 890 814 q 927 975 890 946 q 1047 1004 964 1004 q 1167 975 1131 1004 q 1204 879 1204 946 q 1167 785 1204 814 q 1047 756 1131 756 m 1188 694 l 1188 -28 q 1156 -183 1188 -124 q 1060 -271 1124 -243 q 899 -299 996 -299 q 789 -287 838 -299 q 701 -256 740 -276 l 738 -85 q 772 -100 751 -94 q 817 -106 792 -106 q 883 -83 858 -106 q 907 -3 907 -60 l 907 694 l 1188 694 z "},"Ḻ":{"ha":839,"x_min":85,"x_max":804,"o":"m 368 213 l 804 213 l 804 0 l 85 0 l 85 917 l 368 917 l 368 213 m 714 -82 l 714 -247 l 192 -247 l 192 -82 l 714 -82 z "},"Ł":{"ha":947,"x_min":38,"x_max":914,"o":"m 711 718 l 711 524 l 38 215 l 38 410 l 711 718 m 478 213 l 914 213 l 914 0 l 194 0 l 194 917 l 478 917 l 478 213 z "},"M":{"ha":1292,"x_min":85,"x_max":1208,"o":"m 1208 917 l 1208 0 l 958 0 l 958 367 l 964 663 l 961 663 l 760 0 l 532 0 l 333 663 l 329 663 l 335 367 l 335 0 l 85 0 l 85 917 l 485 917 l 608 482 l 654 300 l 657 300 l 703 482 l 826 917 l 1208 917 z "},"Ṃ":{"ha":1292,"x_min":85,"x_max":1208,"o":"m 1208 917 l 1208 0 l 958 0 l 958 367 l 964 663 l 961 663 l 760 0 l 532 0 l 333 663 l 329 663 l 335 367 l 335 0 l 85 0 l 85 917 l 485 917 l 608 482 l 654 300 l 657 300 l 703 482 l 826 917 l 1208 917 m 646 -311 q 540 -281 575 -311 q 504 -189 504 -250 q 540 -99 504 -129 q 646 -68 575 -68 q 755 -99 718 -68 q 792 -189 792 -129 q 755 -281 792 -250 q 646 -311 718 -311 z "},"N":{"ha":1033,"x_min":85,"x_max":949,"o":"m 949 917 l 949 0 l 638 0 l 388 454 l 329 578 l 326 578 l 332 397 l 332 0 l 85 0 l 85 917 l 394 917 l 644 463 l 704 339 l 706 339 l 700 519 l 700 917 l 949 917 z "},"Ǌ":{"ha":1918,"x_min":85,"x_max":1851,"o":"m 949 917 l 949 0 l 638 0 l 388 454 l 329 578 l 326 578 l 332 397 l 332 0 l 85 0 l 85 917 l 394 917 l 644 463 l 704 339 l 706 339 l 700 519 l 700 917 l 949 917 m 1851 917 l 1851 365 q 1746 86 1851 186 q 1443 -14 1640 -14 q 1210 38 1299 -14 q 1090 179 1122 89 q 1076 385 1058 269 l 1356 432 q 1365 253 1339 304 q 1456 203 1390 203 q 1542 248 1515 203 q 1568 390 1568 293 l 1568 917 l 1851 917 z "},"Ń":{"ha":1033,"x_min":85,"x_max":949,"o":"m 949 917 l 949 0 l 638 0 l 388 454 l 329 578 l 326 578 l 332 397 l 332 0 l 85 0 l 85 917 l 394 917 l 644 463 l 704 339 l 706 339 l 700 519 l 700 917 l 949 917 m 486 1224 l 731 1224 l 604 993 l 404 993 l 486 1224 z "},"Ň":{"ha":1033,"x_min":85,"x_max":949,"o":"m 949 917 l 949 0 l 638 0 l 388 454 l 329 578 l 326 578 l 332 397 l 332 0 l 85 0 l 85 917 l 394 917 l 644 463 l 704 339 l 706 339 l 700 519 l 700 917 l 949 917 m 788 1224 l 653 993 l 383 993 l 249 1224 l 435 1224 l 518 1103 l 601 1224 l 788 1224 z "},"Ņ":{"ha":1033,"x_min":85,"x_max":949,"o":"m 949 917 l 949 0 l 638 0 l 388 454 l 329 578 l 326 578 l 332 397 l 332 0 l 85 0 l 85 917 l 394 917 l 644 463 l 704 339 l 706 339 l 700 519 l 700 917 l 949 917 m 669 -76 l 568 -336 l 390 -336 l 429 -76 l 669 -76 z "},"Ṅ":{"ha":1033,"x_min":85,"x_max":949,"o":"m 949 917 l 949 0 l 638 0 l 388 454 l 329 578 l 326 578 l 332 397 l 332 0 l 85 0 l 85 917 l 394 917 l 644 463 l 704 339 l 706 339 l 700 519 l 700 917 l 949 917 m 518 1228 q 627 1197 590 1228 q 664 1106 664 1167 q 627 1015 664 1046 q 518 985 590 985 q 412 1015 447 985 q 376 1106 376 1046 q 412 1197 376 1167 q 518 1228 447 1228 z "},"Ṇ":{"ha":1033,"x_min":85,"x_max":949,"o":"m 949 917 l 949 0 l 638 0 l 388 454 l 329 578 l 326 578 l 332 397 l 332 0 l 85 0 l 85 917 l 394 917 l 644 463 l 704 339 l 706 339 l 700 519 l 700 917 l 949 917 m 525 -311 q 419 -281 454 -311 q 383 -189 383 -250 q 419 -99 383 -129 q 525 -68 454 -68 q 634 -99 597 -68 q 671 -189 671 -129 q 634 -281 671 -250 q 525 -311 597 -311 z "},"Ŋ":{"ha":1033,"x_min":85,"x_max":949,"o":"m 686 -299 q 584 -290 628 -299 q 503 -264 540 -282 l 533 -78 q 572 -96 550 -89 q 624 -103 593 -103 q 680 -80 660 -103 q 700 -3 700 -57 l 700 8 l 393 467 l 329 579 l 326 579 l 332 397 l 332 0 l 85 0 l 85 917 l 394 917 l 633 540 l 700 417 l 701 417 l 700 917 l 949 917 l 949 -28 q 918 -183 949 -124 q 829 -271 888 -243 q 686 -299 771 -299 z "},"ǋ":{"ha":1450,"x_min":85,"x_max":1399,"o":"m 949 917 l 949 0 l 638 0 l 388 454 l 329 578 l 326 578 l 332 397 l 332 0 l 85 0 l 85 917 l 394 917 l 644 463 l 704 339 l 706 339 l 700 519 l 700 917 l 949 917 m 1242 756 q 1122 785 1158 756 q 1085 879 1085 814 q 1122 975 1085 946 q 1242 1004 1158 1004 q 1362 975 1325 1004 q 1399 879 1399 946 q 1362 785 1399 814 q 1242 756 1325 756 m 1382 694 l 1382 -28 q 1350 -183 1382 -124 q 1254 -271 1318 -243 q 1093 -299 1190 -299 q 983 -287 1032 -299 q 896 -256 935 -276 l 932 -85 q 966 -100 946 -94 q 1011 -106 986 -106 q 1077 -83 1053 -106 q 1101 -3 1101 -60 l 1101 694 l 1382 694 z "},"Ṉ":{"ha":1033,"x_min":85,"x_max":949,"o":"m 949 917 l 949 0 l 638 0 l 388 454 l 329 578 l 326 578 l 332 397 l 332 0 l 85 0 l 85 917 l 394 917 l 644 463 l 704 339 l 706 339 l 700 519 l 700 917 l 949 917 m 786 -82 l 786 -247 l 264 -247 l 264 -82 l 786 -82 z "},"Ñ":{"ha":1033,"x_min":85,"x_max":949,"o":"m 949 917 l 949 0 l 638 0 l 388 454 l 329 578 l 326 578 l 332 397 l 332 0 l 85 0 l 85 917 l 394 917 l 644 463 l 704 339 l 706 339 l 700 519 l 700 917 l 949 917 m 801 1221 q 775 1090 800 1142 q 710 1012 750 1038 q 625 986 671 986 q 558 998 586 986 q 508 1024 529 1010 q 468 1050 486 1039 q 431 1061 450 1061 q 399 1044 410 1061 q 383 989 388 1026 l 233 989 q 291 1165 238 1107 q 424 1222 344 1222 q 488 1211 461 1222 q 533 1185 514 1200 q 569 1160 551 1171 q 606 1149 586 1149 q 638 1166 628 1149 q 653 1221 649 1183 l 801 1221 z "},"O":{"ha":1018,"x_min":50,"x_max":967,"o":"m 510 931 q 755 874 653 931 q 912 713 857 818 q 967 458 967 607 q 912 204 967 310 q 755 42 857 99 q 510 -14 653 -14 q 265 42 368 -14 q 106 204 161 99 q 50 458 50 310 q 106 713 50 607 q 265 874 161 818 q 510 931 368 931 m 510 714 q 416 685 453 714 q 360 601 379 657 q 342 458 342 546 q 360 316 342 372 q 416 231 379 260 q 510 203 453 203 q 603 231 565 203 q 658 316 640 260 q 676 458 676 372 q 658 601 676 546 q 603 685 640 657 q 510 714 565 714 z "},"Ó":{"ha":1018,"x_min":50,"x_max":967,"o":"m 510 931 q 755 874 653 931 q 912 713 857 818 q 967 458 967 607 q 912 204 967 310 q 755 42 857 99 q 510 -14 653 -14 q 265 42 368 -14 q 106 204 161 99 q 50 458 50 310 q 106 713 50 607 q 265 874 161 818 q 510 931 368 931 m 510 714 q 416 685 453 714 q 360 601 379 657 q 342 458 342 546 q 360 316 342 372 q 416 231 379 260 q 510 203 453 203 q 603 231 565 203 q 658 316 640 260 q 676 458 676 372 q 658 601 676 546 q 603 685 640 657 q 510 714 565 714 m 478 1224 l 722 1224 l 596 993 l 396 993 l 478 1224 z "},"Ŏ":{"ha":1018,"x_min":50,"x_max":967,"o":"m 510 931 q 755 874 653 931 q 912 713 857 818 q 967 458 967 607 q 912 204 967 310 q 755 42 857 99 q 510 -14 653 -14 q 265 42 368 -14 q 106 204 161 99 q 50 458 50 310 q 106 713 50 607 q 265 874 161 818 q 510 931 368 931 m 510 714 q 416 685 453 714 q 360 601 379 657 q 342 458 342 546 q 360 316 342 372 q 416 231 379 260 q 510 203 453 203 q 603 231 565 203 q 658 316 640 260 q 676 458 676 372 q 658 601 676 546 q 603 685 640 657 q 510 714 565 714 m 754 1215 q 689 1044 754 1106 q 510 982 624 982 q 331 1044 397 982 q 265 1215 265 1106 l 439 1215 q 457 1153 439 1176 q 510 1131 475 1131 q 563 1153 546 1131 q 581 1215 581 1176 l 754 1215 z "},"Ô":{"ha":1018,"x_min":50,"x_max":967,"o":"m 510 931 q 755 874 653 931 q 912 713 857 818 q 967 458 967 607 q 912 204 967 310 q 755 42 857 99 q 510 -14 653 -14 q 265 42 368 -14 q 106 204 161 99 q 50 458 50 310 q 106 713 50 607 q 265 874 161 818 q 510 931 368 931 m 510 714 q 416 685 453 714 q 360 601 379 657 q 342 458 342 546 q 360 316 342 372 q 416 231 379 260 q 510 203 453 203 q 603 231 565 203 q 658 316 640 260 q 676 458 676 372 q 658 601 676 546 q 603 685 640 657 q 510 714 565 714 m 779 993 l 593 993 l 510 1114 l 426 993 l 240 993 l 375 1224 l 644 1224 l 779 993 z "},"Ố":{"ha":1018,"x_min":50,"x_max":1021,"o":"m 768 989 l 589 989 l 510 1092 l 429 989 l 251 989 l 389 1214 l 629 1214 l 768 989 m 801 1333 l 1021 1333 l 908 1128 l 728 1128 l 801 1333 m 510 931 q 755 874 653 931 q 912 713 857 818 q 967 458 967 607 q 912 204 967 310 q 755 42 857 99 q 510 -14 653 -14 q 265 42 368 -14 q 106 204 161 99 q 50 458 50 310 q 106 713 50 607 q 265 874 161 818 q 510 931 368 931 m 510 714 q 416 685 453 714 q 360 601 379 657 q 342 458 342 546 q 360 316 342 372 q 416 231 379 260 q 510 203 453 203 q 603 231 565 203 q 658 316 640 260 q 676 458 676 372 q 658 601 676 546 q 603 685 640 657 q 510 714 565 714 z "},"Ộ":{"ha":1018,"x_min":50,"x_max":967,"o":"m 510 931 q 755 874 653 931 q 912 713 857 818 q 967 458 967 607 q 912 204 967 310 q 755 42 857 99 q 510 -14 653 -14 q 265 42 368 -14 q 106 204 161 99 q 50 458 50 310 q 106 713 50 607 q 265 874 161 818 q 510 931 368 931 m 510 714 q 416 685 453 714 q 360 601 379 657 q 342 458 342 546 q 360 316 342 372 q 416 231 379 260 q 510 203 453 203 q 603 231 565 203 q 658 316 640 260 q 676 458 676 372 q 658 601 676 546 q 603 685 640 657 q 510 714 565 714 m 510 -311 q 403 -281 439 -311 q 368 -189 368 -250 q 403 -99 368 -129 q 510 -68 439 -68 q 619 -99 582 -68 q 656 -189 656 -129 q 619 -281 656 -250 q 510 -311 582 -311 m 779 993 l 593 993 l 510 1114 l 426 993 l 240 993 l 375 1224 l 644 1224 l 779 993 z "},"Ồ":{"ha":1018,"x_min":50,"x_max":967,"o":"m 768 989 l 589 989 l 510 1092 l 429 989 l 251 989 l 389 1214 l 629 1214 l 768 989 m 858 1333 l 933 1128 l 751 1128 l 639 1333 l 858 1333 m 510 931 q 755 874 653 931 q 912 713 857 818 q 967 458 967 607 q 912 204 967 310 q 755 42 857 99 q 510 -14 653 -14 q 265 42 368 -14 q 106 204 161 99 q 50 458 50 310 q 106 713 50 607 q 265 874 161 818 q 510 931 368 931 m 510 714 q 416 685 453 714 q 360 601 379 657 q 342 458 342 546 q 360 316 342 372 q 416 231 379 260 q 510 203 453 203 q 603 231 565 203 q 658 316 640 260 q 676 458 676 372 q 658 601 676 546 q 603 685 640 657 q 510 714 565 714 z "},"Ổ":{"ha":1018,"x_min":50,"x_max":967,"o":"m 768 989 l 589 989 l 510 1092 l 429 989 l 251 989 l 389 1214 l 629 1214 l 768 989 m 763 1106 l 707 1185 q 762 1217 746 1200 q 778 1253 778 1235 q 767 1283 778 1271 q 733 1294 756 1294 q 703 1285 714 1294 q 683 1258 692 1275 l 561 1314 q 628 1405 576 1372 q 751 1438 679 1438 q 838 1421 797 1438 q 905 1371 879 1404 q 931 1288 931 1338 q 903 1197 931 1233 q 838 1138 876 1160 q 763 1106 799 1117 m 510 931 q 755 874 653 931 q 912 713 857 818 q 967 458 967 607 q 912 204 967 310 q 755 42 857 99 q 510 -14 653 -14 q 265 42 368 -14 q 106 204 161 99 q 50 458 50 310 q 106 713 50 607 q 265 874 161 818 q 510 931 368 931 m 510 714 q 416 685 453 714 q 360 601 379 657 q 342 458 342 546 q 360 316 342 372 q 416 231 379 260 q 510 203 453 203 q 603 231 565 203 q 658 316 640 260 q 676 458 676 372 q 658 601 676 546 q 603 685 640 657 q 510 714 565 714 z "},"Ỗ":{"ha":1018,"x_min":50,"x_max":967,"o":"m 768 989 l 589 989 l 510 1092 l 429 989 l 251 989 l 389 1214 l 629 1214 l 768 989 m 769 1456 q 718 1297 765 1349 q 607 1246 671 1246 q 547 1256 572 1246 q 501 1278 521 1265 q 465 1302 481 1292 q 431 1313 449 1313 q 401 1297 411 1313 q 388 1249 390 1281 l 251 1249 q 303 1407 254 1356 q 425 1458 353 1458 q 483 1449 458 1458 q 524 1425 507 1439 q 557 1401 542 1411 q 590 1392 572 1392 q 619 1407 608 1392 q 633 1456 629 1422 l 769 1456 m 510 931 q 755 874 653 931 q 912 713 857 818 q 967 458 967 607 q 912 204 967 310 q 755 42 857 99 q 510 -14 653 -14 q 265 42 368 -14 q 106 204 161 99 q 50 458 50 310 q 106 713 50 607 q 265 874 161 818 q 510 931 368 931 m 510 714 q 416 685 453 714 q 360 601 379 657 q 342 458 342 546 q 360 316 342 372 q 416 231 379 260 q 510 203 453 203 q 603 231 565 203 q 658 316 640 260 q 676 458 676 372 q 658 601 676 546 q 603 685 640 657 q 510 714 565 714 z "},"Ȍ":{"ha":1018,"x_min":50,"x_max":967,"o":"m 510 931 q 755 874 653 931 q 912 713 857 818 q 967 458 967 607 q 912 204 967 310 q 755 42 857 99 q 510 -14 653 -14 q 265 42 368 -14 q 106 204 161 99 q 50 458 50 310 q 106 713 50 607 q 265 874 161 818 q 510 931 368 931 m 510 714 q 416 685 453 714 q 360 601 379 657 q 342 458 342 546 q 360 316 342 372 q 416 231 379 260 q 510 203 453 203 q 603 231 565 203 q 658 316 640 260 q 676 458 676 372 q 658 601 676 546 q 603 685 640 657 q 510 714 565 714 m 371 1224 l 453 993 l 253 993 l 128 1224 l 371 1224 m 704 1224 l 788 993 l 586 993 l 461 1224 l 704 1224 z "},"Ö":{"ha":1018,"x_min":50,"x_max":967,"o":"m 510 931 q 755 874 653 931 q 912 713 857 818 q 967 458 967 607 q 912 204 967 310 q 755 42 857 99 q 510 -14 653 -14 q 265 42 368 -14 q 106 204 161 99 q 50 458 50 310 q 106 713 50 607 q 265 874 161 818 q 510 931 368 931 m 510 714 q 416 685 453 714 q 360 601 379 657 q 342 458 342 546 q 360 316 342 372 q 416 231 379 260 q 510 203 453 203 q 603 231 565 203 q 658 316 640 260 q 676 458 676 372 q 658 601 676 546 q 603 685 640 657 q 510 714 565 714 m 349 1217 q 447 1186 413 1217 q 482 1099 482 1156 q 447 1012 482 1043 q 349 981 413 981 q 253 1012 288 981 q 219 1099 219 1043 q 253 1186 219 1156 q 349 1217 288 1217 m 667 1217 q 765 1186 731 1217 q 800 1099 800 1156 q 765 1012 800 1043 q 667 981 731 981 q 572 1012 606 981 q 538 1099 538 1043 q 572 1186 538 1156 q 667 1217 606 1217 z "},"Ȫ":{"ha":1018,"x_min":50,"x_max":967,"o":"m 510 931 q 755 874 653 931 q 912 713 857 818 q 967 458 967 607 q 912 204 967 310 q 755 42 857 99 q 510 -14 653 -14 q 265 42 368 -14 q 106 204 161 99 q 50 458 50 310 q 106 713 50 607 q 265 874 161 818 q 510 931 368 931 m 510 714 q 416 685 453 714 q 360 601 379 657 q 342 458 342 546 q 360 316 342 372 q 416 231 379 260 q 510 203 453 203 q 603 231 565 203 q 658 316 640 260 q 676 458 676 372 q 658 601 676 546 q 603 685 640 657 q 510 714 565 714 m 349 1217 q 447 1186 413 1217 q 482 1099 482 1156 q 447 1012 482 1043 q 349 981 413 981 q 253 1012 288 981 q 219 1099 219 1043 q 253 1186 219 1156 q 349 1217 288 1217 m 667 1217 q 765 1186 731 1217 q 800 1099 800 1156 q 765 1012 800 1043 q 667 981 731 981 q 572 1012 606 981 q 538 1099 538 1043 q 572 1186 538 1156 q 667 1217 606 1217 m 771 1438 l 771 1272 l 249 1272 l 249 1438 l 771 1438 z "},"Ȱ":{"ha":1018,"x_min":50,"x_max":967,"o":"m 510 931 q 755 874 653 931 q 912 713 857 818 q 967 458 967 607 q 912 204 967 310 q 755 42 857 99 q 510 -14 653 -14 q 265 42 368 -14 q 106 204 161 99 q 50 458 50 310 q 106 713 50 607 q 265 874 161 818 q 510 931 368 931 m 510 714 q 416 685 453 714 q 360 601 379 657 q 342 458 342 546 q 360 316 342 372 q 416 231 379 260 q 510 203 453 203 q 603 231 565 203 q 658 316 640 260 q 676 458 676 372 q 658 601 676 546 q 603 685 640 657 q 510 714 565 714 m 510 1228 q 619 1197 582 1228 q 656 1106 656 1167 q 619 1015 656 1046 q 510 985 582 985 q 403 1015 439 985 q 368 1106 368 1046 q 403 1197 368 1167 q 510 1228 439 1228 m 772 1443 l 772 1278 l 250 1278 l 250 1443 l 772 1443 z "},"Ọ":{"ha":1018,"x_min":50,"x_max":967,"o":"m 510 931 q 755 874 653 931 q 912 713 857 818 q 967 458 967 607 q 912 204 967 310 q 755 42 857 99 q 510 -14 653 -14 q 265 42 368 -14 q 106 204 161 99 q 50 458 50 310 q 106 713 50 607 q 265 874 161 818 q 510 931 368 931 m 510 714 q 416 685 453 714 q 360 601 379 657 q 342 458 342 546 q 360 316 342 372 q 416 231 379 260 q 510 203 453 203 q 603 231 565 203 q 658 316 640 260 q 676 458 676 372 q 658 601 676 546 q 603 685 640 657 q 510 714 565 714 m 510 -311 q 403 -281 439 -311 q 368 -189 368 -250 q 403 -99 368 -129 q 510 -68 439 -68 q 619 -99 582 -68 q 656 -189 656 -129 q 619 -281 656 -250 q 510 -311 582 -311 z "},"Ò":{"ha":1018,"x_min":50,"x_max":967,"o":"m 510 931 q 755 874 653 931 q 912 713 857 818 q 967 458 967 607 q 912 204 967 310 q 755 42 857 99 q 510 -14 653 -14 q 265 42 368 -14 q 106 204 161 99 q 50 458 50 310 q 106 713 50 607 q 265 874 161 818 q 510 931 368 931 m 510 714 q 416 685 453 714 q 360 601 379 657 q 342 458 342 546 q 360 316 342 372 q 416 231 379 260 q 510 203 453 203 q 603 231 565 203 q 658 316 640 260 q 676 458 676 372 q 658 601 676 546 q 603 685 640 657 q 510 714 565 714 m 539 1224 l 621 993 l 421 993 l 294 1224 l 539 1224 z "},"Ỏ":{"ha":1018,"x_min":50,"x_max":967,"o":"m 510 931 q 755 874 653 931 q 912 713 857 818 q 967 458 967 607 q 912 204 967 310 q 755 42 857 99 q 510 -14 653 -14 q 265 42 368 -14 q 106 204 161 99 q 50 458 50 310 q 106 713 50 607 q 265 874 161 818 q 510 931 368 931 m 510 714 q 416 685 453 714 q 360 601 379 657 q 342 458 342 546 q 360 316 342 372 q 416 231 379 260 q 510 203 453 203 q 603 231 565 203 q 658 316 640 260 q 676 458 676 372 q 658 601 676 546 q 603 685 640 657 q 510 714 565 714 m 510 965 l 454 1043 q 510 1076 494 1060 q 525 1111 525 1093 q 514 1142 525 1131 q 482 1154 503 1154 q 450 1144 461 1154 q 431 1117 439 1135 l 308 1172 q 376 1264 325 1232 q 499 1296 426 1296 q 585 1279 544 1296 q 652 1229 626 1263 q 678 1146 678 1196 q 651 1055 678 1092 q 585 997 624 1018 q 510 965 546 975 z "},"Ơ":{"ha":1018,"x_min":50,"x_max":967,"o":"m 950 1063 q 872 844 950 921 q 639 767 794 767 l 633 917 q 733 951 703 917 q 764 1063 764 985 l 950 1063 m 510 931 q 755 874 653 931 q 912 713 857 818 q 967 458 967 607 q 912 204 967 310 q 755 42 857 99 q 510 -14 653 -14 q 265 42 368 -14 q 106 204 161 99 q 50 458 50 310 q 106 713 50 607 q 265 874 161 818 q 510 931 368 931 m 510 714 q 416 685 453 714 q 360 601 379 657 q 342 458 342 546 q 360 316 342 372 q 416 231 379 260 q 510 203 453 203 q 603 231 565 203 q 658 316 640 260 q 676 458 676 372 q 658 601 676 546 q 603 685 640 657 q 510 714 565 714 z "},"Ớ":{"ha":1018,"x_min":50,"x_max":967,"o":"m 950 1063 q 872 844 950 921 q 639 767 794 767 l 633 917 q 733 951 703 917 q 764 1063 764 985 l 950 1063 m 510 931 q 755 874 653 931 q 912 713 857 818 q 967 458 967 607 q 912 204 967 310 q 755 42 857 99 q 510 -14 653 -14 q 265 42 368 -14 q 106 204 161 99 q 50 458 50 310 q 106 713 50 607 q 265 874 161 818 q 510 931 368 931 m 510 714 q 416 685 453 714 q 360 601 379 657 q 342 458 342 546 q 360 316 342 372 q 416 231 379 260 q 510 203 453 203 q 603 231 565 203 q 658 316 640 260 q 676 458 676 372 q 658 601 676 546 q 603 685 640 657 q 510 714 565 714 m 478 1224 l 722 1224 l 596 993 l 396 993 l 478 1224 z "},"Ợ":{"ha":1018,"x_min":50,"x_max":967,"o":"m 950 1063 q 872 844 950 921 q 639 767 794 767 l 633 917 q 733 951 703 917 q 764 1063 764 985 l 950 1063 m 510 931 q 755 874 653 931 q 912 713 857 818 q 967 458 967 607 q 912 204 967 310 q 755 42 857 99 q 510 -14 653 -14 q 265 42 368 -14 q 106 204 161 99 q 50 458 50 310 q 106 713 50 607 q 265 874 161 818 q 510 931 368 931 m 510 714 q 416 685 453 714 q 360 601 379 657 q 342 458 342 546 q 360 316 342 372 q 416 231 379 260 q 510 203 453 203 q 603 231 565 203 q 658 316 640 260 q 676 458 676 372 q 658 601 676 546 q 603 685 640 657 q 510 714 565 714 m 510 -311 q 403 -281 439 -311 q 368 -189 368 -250 q 403 -99 368 -129 q 510 -68 439 -68 q 619 -99 582 -68 q 656 -189 656 -129 q 619 -281 656 -250 q 510 -311 582 -311 z "},"Ờ":{"ha":1018,"x_min":50,"x_max":967,"o":"m 950 1063 q 872 844 950 921 q 639 767 794 767 l 633 917 q 733 951 703 917 q 764 1063 764 985 l 950 1063 m 510 931 q 755 874 653 931 q 912 713 857 818 q 967 458 967 607 q 912 204 967 310 q 755 42 857 99 q 510 -14 653 -14 q 265 42 368 -14 q 106 204 161 99 q 50 458 50 310 q 106 713 50 607 q 265 874 161 818 q 510 931 368 931 m 510 714 q 416 685 453 714 q 360 601 379 657 q 342 458 342 546 q 360 316 342 372 q 416 231 379 260 q 510 203 453 203 q 603 231 565 203 q 658 316 640 260 q 676 458 676 372 q 658 601 676 546 q 603 685 640 657 q 510 714 565 714 m 542 1224 l 624 993 l 424 993 l 297 1224 l 542 1224 z "},"Ở":{"ha":1018,"x_min":50,"x_max":967,"o":"m 950 1063 q 872 844 950 921 q 639 767 794 767 l 633 917 q 733 951 703 917 q 764 1063 764 985 l 950 1063 m 510 931 q 755 874 653 931 q 912 713 857 818 q 967 458 967 607 q 912 204 967 310 q 755 42 857 99 q 510 -14 653 -14 q 265 42 368 -14 q 106 204 161 99 q 50 458 50 310 q 106 713 50 607 q 265 874 161 818 q 510 931 368 931 m 510 714 q 416 685 453 714 q 360 601 379 657 q 342 458 342 546 q 360 316 342 372 q 416 231 379 260 q 510 203 453 203 q 603 231 565 203 q 658 316 640 260 q 676 458 676 372 q 658 601 676 546 q 603 685 640 657 q 510 714 565 714 m 510 965 l 454 1043 q 510 1076 494 1060 q 525 1111 525 1093 q 514 1142 525 1131 q 482 1154 503 1154 q 450 1144 461 1154 q 431 1117 439 1135 l 308 1172 q 376 1264 325 1232 q 499 1296 426 1296 q 585 1279 544 1296 q 652 1229 626 1263 q 678 1146 678 1196 q 651 1055 678 1092 q 585 997 624 1018 q 510 965 546 975 z "},"Ỡ":{"ha":1018,"x_min":50,"x_max":967,"o":"m 950 1063 q 872 844 950 921 q 639 767 794 767 l 633 917 q 733 951 703 917 q 764 1063 764 985 l 950 1063 m 510 931 q 755 874 653 931 q 912 713 857 818 q 967 458 967 607 q 912 204 967 310 q 755 42 857 99 q 510 -14 653 -14 q 265 42 368 -14 q 106 204 161 99 q 50 458 50 310 q 106 713 50 607 q 265 874 161 818 q 510 931 368 931 m 510 714 q 416 685 453 714 q 360 601 379 657 q 342 458 342 546 q 360 316 342 372 q 416 231 379 260 q 510 203 453 203 q 603 231 565 203 q 658 316 640 260 q 676 458 676 372 q 658 601 676 546 q 603 685 640 657 q 510 714 565 714 m 746 1221 q 719 1090 744 1142 q 655 1012 694 1038 q 569 986 615 986 q 502 998 531 986 q 452 1024 474 1010 q 413 1050 431 1039 q 375 1061 394 1061 q 343 1044 354 1061 q 328 989 332 1026 l 178 989 q 235 1165 182 1107 q 368 1222 289 1222 q 432 1211 406 1222 q 477 1185 458 1200 q 513 1160 496 1171 q 550 1149 531 1149 q 583 1166 572 1149 q 597 1221 593 1183 l 746 1221 z "},"Ő":{"ha":1018,"x_min":50,"x_max":967,"o":"m 510 931 q 755 874 653 931 q 912 713 857 818 q 967 458 967 607 q 912 204 967 310 q 755 42 857 99 q 510 -14 653 -14 q 265 42 368 -14 q 106 204 161 99 q 50 458 50 310 q 106 713 50 607 q 265 874 161 818 q 510 931 368 931 m 510 714 q 416 685 453 714 q 360 601 379 657 q 342 458 342 546 q 360 316 342 372 q 416 231 379 260 q 510 203 453 203 q 603 231 565 203 q 658 316 640 260 q 676 458 676 372 q 658 601 676 546 q 603 685 640 657 q 510 714 565 714 m 647 1224 l 892 1224 l 765 993 l 565 993 l 647 1224 m 314 1224 l 558 1224 l 432 993 l 232 993 l 314 1224 z "},"Ȏ":{"ha":1018,"x_min":50,"x_max":967,"o":"m 510 931 q 755 874 653 931 q 912 713 857 818 q 967 458 967 607 q 912 204 967 310 q 755 42 857 99 q 510 -14 653 -14 q 265 42 368 -14 q 106 204 161 99 q 50 458 50 310 q 106 713 50 607 q 265 874 161 818 q 510 931 368 931 m 510 714 q 416 685 453 714 q 360 601 379 657 q 342 458 342 546 q 360 316 342 372 q 416 231 379 260 q 510 203 453 203 q 603 231 565 203 q 658 316 640 260 q 676 458 676 372 q 658 601 676 546 q 603 685 640 657 q 510 714 565 714 m 754 982 l 581 982 q 563 1044 581 1021 q 510 1067 546 1067 q 457 1044 475 1067 q 439 982 439 1021 l 265 982 q 331 1154 265 1093 q 510 1215 397 1215 q 689 1154 624 1215 q 754 982 754 1093 z "},"Ō":{"ha":1018,"x_min":50,"x_max":967,"o":"m 510 931 q 755 874 653 931 q 912 713 857 818 q 967 458 967 607 q 912 204 967 310 q 755 42 857 99 q 510 -14 653 -14 q 265 42 368 -14 q 106 204 161 99 q 50 458 50 310 q 106 713 50 607 q 265 874 161 818 q 510 931 368 931 m 510 714 q 416 685 453 714 q 360 601 379 657 q 342 458 342 546 q 360 316 342 372 q 416 231 379 260 q 510 203 453 203 q 603 231 565 203 q 658 316 640 260 q 676 458 676 372 q 658 601 676 546 q 603 685 640 657 q 510 714 565 714 m 771 1164 l 771 999 l 249 999 l 249 1164 l 771 1164 z "},"Ṓ":{"ha":1018,"x_min":50,"x_max":967,"o":"m 510 931 q 755 874 653 931 q 912 713 857 818 q 967 458 967 607 q 912 204 967 310 q 755 42 857 99 q 510 -14 653 -14 q 265 42 368 -14 q 106 204 161 99 q 50 458 50 310 q 106 713 50 607 q 265 874 161 818 q 510 931 368 931 m 510 714 q 416 685 453 714 q 360 601 379 657 q 342 458 342 546 q 360 316 342 372 q 416 231 379 260 q 510 203 453 203 q 603 231 565 203 q 658 316 640 260 q 676 458 676 372 q 658 601 676 546 q 603 685 640 657 q 510 714 565 714 m 771 1164 l 771 999 l 249 999 l 249 1164 l 771 1164 m 478 1468 l 722 1468 l 596 1238 l 396 1238 l 478 1468 z "},"Ṑ":{"ha":1018,"x_min":50,"x_max":967,"o":"m 510 931 q 755 874 653 931 q 912 713 857 818 q 967 458 967 607 q 912 204 967 310 q 755 42 857 99 q 510 -14 653 -14 q 265 42 368 -14 q 106 204 161 99 q 50 458 50 310 q 106 713 50 607 q 265 874 161 818 q 510 931 368 931 m 510 714 q 416 685 453 714 q 360 601 379 657 q 342 458 342 546 q 360 316 342 372 q 416 231 379 260 q 510 203 453 203 q 603 231 565 203 q 658 316 640 260 q 676 458 676 372 q 658 601 676 546 q 603 685 640 657 q 510 714 565 714 m 771 1164 l 771 999 l 249 999 l 249 1164 l 771 1164 m 542 1468 l 624 1238 l 424 1238 l 297 1468 l 542 1468 z "},"Ǫ":{"ha":1018,"x_min":50,"x_max":967,"o":"m 510 931 q 755 874 653 931 q 912 713 857 818 q 967 458 967 607 q 912 204 967 310 q 755 42 857 99 q 510 -14 653 -14 q 265 42 368 -14 q 106 204 161 99 q 50 458 50 310 q 106 713 50 607 q 265 874 161 818 q 510 931 368 931 m 510 714 q 416 685 453 714 q 360 601 379 657 q 342 458 342 546 q 360 316 342 372 q 416 231 379 260 q 510 203 453 203 q 603 231 565 203 q 658 316 640 260 q 676 458 676 372 q 658 601 676 546 q 603 685 640 657 q 510 714 565 714 m 550 -303 q 407 -260 458 -303 q 356 -144 356 -218 q 417 -15 356 -61 q 578 42 478 31 l 682 11 q 599 -19 632 -4 q 549 -51 565 -33 q 533 -94 533 -68 q 552 -136 533 -121 q 604 -151 571 -151 q 637 -148 621 -151 q 664 -139 653 -144 l 690 -274 q 628 -297 661 -290 q 550 -303 596 -303 z "},"Ø":{"ha":1018,"x_min":50,"x_max":967,"o":"m 363 182 l 293 240 l 632 700 l 706 646 l 363 182 m 74 -33 l 260 206 l 336 147 l 188 -33 l 74 -33 m 753 700 l 676 758 l 829 946 l 944 946 l 753 700 m 510 931 q 755 874 653 931 q 912 713 857 818 q 967 458 967 607 q 912 204 967 310 q 755 42 857 99 q 510 -14 653 -14 q 265 42 368 -14 q 106 204 161 99 q 50 458 50 310 q 106 713 50 607 q 265 874 161 818 q 510 931 368 931 m 510 714 q 416 685 453 714 q 360 601 379 657 q 342 458 342 546 q 360 316 342 372 q 416 231 379 260 q 510 203 453 203 q 603 231 565 203 q 658 316 640 260 q 676 458 676 372 q 658 601 676 546 q 603 685 640 657 q 510 714 565 714 z "},"Ǿ":{"ha":1018,"x_min":50,"x_max":967,"o":"m 363 182 l 293 240 l 632 700 l 706 646 l 363 182 m 74 -33 l 260 206 l 336 147 l 188 -33 l 74 -33 m 753 700 l 676 758 l 829 946 l 944 946 l 753 700 m 510 931 q 755 874 653 931 q 912 713 857 818 q 967 458 967 607 q 912 204 967 310 q 755 42 857 99 q 510 -14 653 -14 q 265 42 368 -14 q 106 204 161 99 q 50 458 50 310 q 106 713 50 607 q 265 874 161 818 q 510 931 368 931 m 510 714 q 416 685 453 714 q 360 601 379 657 q 342 458 342 546 q 360 316 342 372 q 416 231 379 260 q 510 203 453 203 q 603 231 565 203 q 658 316 640 260 q 676 458 676 372 q 658 601 676 546 q 603 685 640 657 q 510 714 565 714 m 478 1224 l 722 1224 l 596 993 l 396 993 l 478 1224 z "},"Õ":{"ha":1018,"x_min":50,"x_max":967,"o":"m 510 931 q 755 874 653 931 q 912 713 857 818 q 967 458 967 607 q 912 204 967 310 q 755 42 857 99 q 510 -14 653 -14 q 265 42 368 -14 q 106 204 161 99 q 50 458 50 310 q 106 713 50 607 q 265 874 161 818 q 510 931 368 931 m 510 714 q 416 685 453 714 q 360 601 379 657 q 342 458 342 546 q 360 316 342 372 q 416 231 379 260 q 510 203 453 203 q 603 231 565 203 q 658 316 640 260 q 676 458 676 372 q 658 601 676 546 q 603 685 640 657 q 510 714 565 714 m 793 1221 q 767 1090 792 1142 q 702 1012 742 1038 q 617 986 663 986 q 549 998 578 986 q 499 1024 521 1010 q 460 1050 478 1039 q 422 1061 442 1061 q 390 1044 401 1061 q 375 989 379 1026 l 225 989 q 283 1165 229 1107 q 415 1222 336 1222 q 479 1211 453 1222 q 524 1185 506 1200 q 560 1160 543 1171 q 597 1149 578 1149 q 630 1166 619 1149 q 644 1221 640 1183 l 793 1221 z "},"Ṍ":{"ha":1018,"x_min":50,"x_max":967,"o":"m 510 931 q 755 874 653 931 q 912 713 857 818 q 967 458 967 607 q 912 204 967 310 q 755 42 857 99 q 510 -14 653 -14 q 265 42 368 -14 q 106 204 161 99 q 50 458 50 310 q 106 713 50 607 q 265 874 161 818 q 510 931 368 931 m 510 714 q 416 685 453 714 q 360 601 379 657 q 342 458 342 546 q 360 316 342 372 q 416 231 379 260 q 510 203 453 203 q 603 231 565 203 q 658 316 640 260 q 676 458 676 372 q 658 601 676 546 q 603 685 640 657 q 510 714 565 714 m 793 1221 q 767 1090 792 1142 q 702 1012 742 1038 q 617 986 663 986 q 549 998 578 986 q 499 1024 521 1010 q 460 1050 478 1039 q 422 1061 442 1061 q 390 1044 401 1061 q 375 989 379 1026 l 225 989 q 283 1165 229 1107 q 415 1222 336 1222 q 479 1211 453 1222 q 524 1185 506 1200 q 560 1160 543 1171 q 597 1149 578 1149 q 630 1166 619 1149 q 644 1221 640 1183 l 793 1221 m 476 1514 l 721 1514 l 594 1283 l 394 1283 l 476 1514 z "},"Ṏ":{"ha":1018,"x_min":50,"x_max":967,"o":"m 510 931 q 755 874 653 931 q 912 713 857 818 q 967 458 967 607 q 912 204 967 310 q 755 42 857 99 q 510 -14 653 -14 q 265 42 368 -14 q 106 204 161 99 q 50 458 50 310 q 106 713 50 607 q 265 874 161 818 q 510 931 368 931 m 510 714 q 416 685 453 714 q 360 601 379 657 q 342 458 342 546 q 360 316 342 372 q 416 231 379 260 q 510 203 453 203 q 603 231 565 203 q 658 316 640 260 q 676 458 676 372 q 658 601 676 546 q 603 685 640 657 q 510 714 565 714 m 793 1221 q 767 1090 792 1142 q 702 1012 742 1038 q 617 986 663 986 q 549 998 578 986 q 499 1024 521 1010 q 460 1050 478 1039 q 422 1061 442 1061 q 390 1044 401 1061 q 375 989 379 1026 l 225 989 q 283 1165 229 1107 q 415 1222 336 1222 q 479 1211 453 1222 q 524 1185 506 1200 q 560 1160 543 1171 q 597 1149 578 1149 q 630 1166 619 1149 q 644 1221 640 1183 l 793 1221 m 347 1507 q 446 1476 411 1507 q 481 1389 481 1446 q 446 1302 481 1333 q 347 1271 411 1271 q 252 1302 286 1271 q 218 1389 218 1333 q 252 1476 218 1446 q 347 1507 286 1507 m 665 1507 q 764 1476 729 1507 q 799 1389 799 1446 q 764 1302 799 1333 q 665 1271 729 1271 q 570 1302 604 1271 q 536 1389 536 1333 q 570 1476 536 1446 q 665 1507 604 1507 z "},"Ȭ":{"ha":1018,"x_min":50,"x_max":967,"o":"m 510 931 q 755 874 653 931 q 912 713 857 818 q 967 458 967 607 q 912 204 967 310 q 755 42 857 99 q 510 -14 653 -14 q 265 42 368 -14 q 106 204 161 99 q 50 458 50 310 q 106 713 50 607 q 265 874 161 818 q 510 931 368 931 m 510 714 q 416 685 453 714 q 360 601 379 657 q 342 458 342 546 q 360 316 342 372 q 416 231 379 260 q 510 203 453 203 q 603 231 565 203 q 658 316 640 260 q 676 458 676 372 q 658 601 676 546 q 603 685 640 657 q 510 714 565 714 m 793 1221 q 767 1090 792 1142 q 702 1012 742 1038 q 617 986 663 986 q 549 998 578 986 q 499 1024 521 1010 q 460 1050 478 1039 q 422 1061 442 1061 q 390 1044 401 1061 q 375 989 379 1026 l 225 989 q 283 1165 229 1107 q 415 1222 336 1222 q 479 1211 453 1222 q 524 1185 506 1200 q 560 1160 543 1171 q 597 1149 578 1149 q 630 1166 619 1149 q 644 1221 640 1183 l 793 1221 m 769 1454 l 769 1289 l 247 1289 l 247 1454 l 769 1454 z "},"Œ":{"ha":1440,"x_min":50,"x_max":1408,"o":"m 944 213 l 1408 213 l 1408 0 l 764 0 l 764 100 q 644 17 714 47 q 483 -14 574 -14 q 254 42 351 -14 q 103 204 157 99 q 50 458 50 310 q 103 713 50 607 q 254 874 157 818 q 483 931 351 931 q 644 900 575 931 q 764 817 714 869 l 764 917 l 1392 917 l 1392 704 l 944 704 l 944 556 l 1300 556 l 1300 358 l 944 358 l 944 213 m 499 203 q 590 231 553 203 q 644 316 626 260 q 663 458 663 372 q 644 601 663 546 q 590 685 626 657 q 499 714 553 714 q 408 685 444 714 q 353 601 371 657 q 335 458 335 546 q 353 316 335 372 q 408 231 371 260 q 499 203 444 203 z "},"P":{"ha":956,"x_min":85,"x_max":911,"o":"m 540 917 q 741 880 658 917 q 867 773 824 843 q 911 601 911 703 q 867 430 911 500 q 741 323 824 360 q 540 286 658 286 l 368 286 l 368 0 l 85 0 l 85 917 l 540 917 m 494 492 q 592 519 557 492 q 626 601 626 546 q 592 684 626 657 q 494 711 557 711 l 368 711 l 368 492 l 494 492 z "},"Þ":{"ha":960,"x_min":85,"x_max":914,"o":"m 543 786 q 817 706 719 786 q 914 468 914 625 q 817 231 914 311 q 543 150 719 150 l 226 150 l 226 356 l 503 356 q 628 471 628 356 q 595 553 628 526 q 503 579 563 579 l 226 579 l 226 786 l 543 786 m 368 917 l 368 0 l 85 0 l 85 917 l 368 917 z "},"Q":{"ha":1018,"x_min":50,"x_max":967,"o":"m 744 -286 q 574 -254 646 -286 q 463 -165 501 -222 q 425 -32 425 -108 q 435 38 425 1 q 467 110 446 74 l 621 153 q 592 87 601 117 q 583 33 583 57 q 605 -40 583 -14 q 663 -78 626 -67 q 747 -89 700 -89 q 849 -76 810 -89 q 917 -43 889 -64 l 951 -231 q 858 -272 914 -257 q 744 -286 803 -286 m 510 931 q 755 874 653 931 q 912 713 857 818 q 967 458 967 607 q 912 204 967 310 q 755 42 857 99 q 510 -14 653 -14 q 265 42 368 -14 q 106 204 161 99 q 50 458 50 310 q 106 713 50 607 q 265 874 161 818 q 510 931 368 931 m 510 714 q 416 685 453 714 q 360 601 379 657 q 342 458 342 546 q 360 316 342 372 q 416 231 379 260 q 510 203 453 203 q 603 231 565 203 q 658 316 640 260 q 676 458 676 372 q 658 601 676 546 q 603 685 640 657 q 510 714 565 714 z "},"R":{"ha":969,"x_min":85,"x_max":965,"o":"m 554 917 q 819 838 725 917 q 913 629 913 760 q 821 408 913 483 q 557 333 729 333 l 529 318 l 363 318 l 363 0 l 85 0 l 85 917 l 554 917 m 508 511 q 598 534 568 511 q 628 610 628 557 q 598 686 628 663 q 508 710 568 710 l 363 710 l 363 511 l 508 511 m 676 451 l 965 0 l 656 0 l 432 401 l 676 451 z "},"Ŕ":{"ha":969,"x_min":85,"x_max":965,"o":"m 554 917 q 819 838 725 917 q 913 629 913 760 q 821 408 913 483 q 557 333 729 333 l 529 318 l 363 318 l 363 0 l 85 0 l 85 917 l 554 917 m 508 511 q 598 534 568 511 q 628 610 628 557 q 598 686 628 663 q 508 710 568 710 l 363 710 l 363 511 l 508 511 m 676 451 l 965 0 l 656 0 l 432 401 l 676 451 m 429 1224 l 674 1224 l 547 993 l 347 993 l 429 1224 z "},"Ř":{"ha":969,"x_min":85,"x_max":965,"o":"m 554 917 q 819 838 725 917 q 913 629 913 760 q 821 408 913 483 q 557 333 729 333 l 529 318 l 363 318 l 363 0 l 85 0 l 85 917 l 554 917 m 508 511 q 598 534 568 511 q 628 610 628 557 q 598 686 628 663 q 508 710 568 710 l 363 710 l 363 511 l 508 511 m 676 451 l 965 0 l 656 0 l 432 401 l 676 451 m 731 1224 l 596 993 l 326 993 l 192 1224 l 378 1224 l 461 1103 l 544 1224 l 731 1224 z "},"Ŗ":{"ha":969,"x_min":85,"x_max":965,"o":"m 554 917 q 819 838 725 917 q 913 629 913 760 q 821 408 913 483 q 557 333 729 333 l 529 318 l 363 318 l 363 0 l 85 0 l 85 917 l 554 917 m 508 511 q 598 534 568 511 q 628 610 628 557 q 598 686 628 663 q 508 710 568 710 l 363 710 l 363 511 l 508 511 m 676 451 l 965 0 l 656 0 l 432 401 l 676 451 m 649 -76 l 547 -336 l 369 -336 l 408 -76 l 649 -76 z "},"Ȑ":{"ha":969,"x_min":78,"x_max":965,"o":"m 554 917 q 819 838 725 917 q 913 629 913 760 q 821 408 913 483 q 557 333 729 333 l 529 318 l 363 318 l 363 0 l 85 0 l 85 917 l 554 917 m 508 511 q 598 534 568 511 q 628 610 628 557 q 598 686 628 663 q 508 710 568 710 l 363 710 l 363 511 l 508 511 m 676 451 l 965 0 l 656 0 l 432 401 l 676 451 m 322 1224 l 404 993 l 204 993 l 79 1224 l 322 1224 m 656 1224 l 739 993 l 538 993 l 413 1224 l 656 1224 z "},"Ṛ":{"ha":969,"x_min":85,"x_max":965,"o":"m 554 917 q 819 838 725 917 q 913 629 913 760 q 821 408 913 483 q 557 333 729 333 l 529 318 l 363 318 l 363 0 l 85 0 l 85 917 l 554 917 m 508 511 q 598 534 568 511 q 628 610 628 557 q 598 686 628 663 q 508 710 568 710 l 363 710 l 363 511 l 508 511 m 676 451 l 965 0 l 656 0 l 432 401 l 676 451 m 504 -311 q 398 -281 433 -311 q 363 -189 363 -250 q 398 -99 363 -129 q 504 -68 433 -68 q 613 -99 576 -68 q 650 -189 650 -129 q 613 -281 650 -250 q 504 -311 576 -311 z "},"Ȓ":{"ha":969,"x_min":85,"x_max":965,"o":"m 554 917 q 819 838 725 917 q 913 629 913 760 q 821 408 913 483 q 557 333 729 333 l 529 318 l 363 318 l 363 0 l 85 0 l 85 917 l 554 917 m 508 511 q 598 534 568 511 q 628 610 628 557 q 598 686 628 663 q 508 710 568 710 l 363 710 l 363 511 l 508 511 m 676 451 l 965 0 l 656 0 l 432 401 l 676 451 m 706 982 l 532 982 q 515 1044 532 1021 q 461 1067 497 1067 q 408 1044 426 1067 q 390 982 390 1021 l 217 982 q 283 1154 217 1093 q 461 1215 349 1215 q 640 1154 575 1215 q 706 982 706 1093 z "},"Ṟ":{"ha":969,"x_min":85,"x_max":965,"o":"m 554 917 q 819 838 725 917 q 913 629 913 760 q 821 408 913 483 q 557 333 729 333 l 529 318 l 363 318 l 363 0 l 85 0 l 85 917 l 554 917 m 508 511 q 598 534 568 511 q 628 610 628 557 q 598 686 628 663 q 508 710 568 710 l 363 710 l 363 511 l 508 511 m 676 451 l 965 0 l 656 0 l 432 401 l 676 451 m 765 -82 l 765 -247 l 243 -247 l 243 -82 l 765 -82 z "},"S":{"ha":899,"x_min":8,"x_max":875,"o":"m 465 931 q 697 895 596 931 q 875 788 799 860 l 751 606 q 619 688 689 658 q 464 718 549 718 q 394 710 421 718 q 356 687 368 701 q 344 654 344 672 q 372 618 344 632 q 447 593 399 604 l 586 561 q 793 467 725 529 q 861 299 861 406 q 809 125 861 194 q 667 21 757 56 q 463 -14 576 -14 q 287 4 372 -14 q 131 56 201 22 q 8 138 60 90 l 131 325 q 222 260 168 289 q 338 215 276 232 q 456 199 399 199 q 522 206 496 199 q 558 228 547 214 q 569 261 569 242 q 551 299 569 285 q 483 325 533 314 l 331 360 q 192 406 256 376 q 90 487 128 435 q 51 624 51 539 q 100 783 51 714 q 242 892 149 853 q 465 931 335 931 z "},"Ś":{"ha":899,"x_min":8,"x_max":875,"o":"m 465 931 q 697 895 596 931 q 875 788 799 860 l 751 606 q 619 688 689 658 q 464 718 549 718 q 394 710 421 718 q 356 687 368 701 q 344 654 344 672 q 372 618 344 632 q 447 593 399 604 l 586 561 q 793 467 725 529 q 861 299 861 406 q 809 125 861 194 q 667 21 757 56 q 463 -14 576 -14 q 287 4 372 -14 q 131 56 201 22 q 8 138 60 90 l 131 325 q 222 260 168 289 q 338 215 276 232 q 456 199 399 199 q 522 206 496 199 q 558 228 547 214 q 569 261 569 242 q 551 299 569 285 q 483 325 533 314 l 331 360 q 192 406 256 376 q 90 487 128 435 q 51 624 51 539 q 100 783 51 714 q 242 892 149 853 q 465 931 335 931 m 426 1224 l 671 1224 l 544 993 l 344 993 l 426 1224 z "},"Ṥ":{"ha":899,"x_min":8,"x_max":875,"o":"m 465 931 q 697 895 596 931 q 875 788 799 860 l 751 606 q 619 688 689 658 q 464 718 549 718 q 394 710 421 718 q 356 687 368 701 q 344 654 344 672 q 372 618 344 632 q 447 593 399 604 l 586 561 q 793 467 725 529 q 861 299 861 406 q 809 125 861 194 q 667 21 757 56 q 463 -14 576 -14 q 287 4 372 -14 q 131 56 201 22 q 8 138 60 90 l 131 325 q 222 260 168 289 q 338 215 276 232 q 456 199 399 199 q 522 206 496 199 q 558 228 547 214 q 569 261 569 242 q 551 299 569 285 q 483 325 533 314 l 331 360 q 192 406 256 376 q 90 487 128 435 q 51 624 51 539 q 100 783 51 714 q 242 892 149 853 q 465 931 335 931 m 426 1224 l 671 1224 l 544 993 l 344 993 l 426 1224 m 458 1531 q 567 1500 531 1531 q 604 1408 604 1469 q 567 1318 604 1349 q 458 1288 531 1288 q 352 1318 388 1288 q 317 1408 317 1349 q 352 1500 317 1469 q 458 1531 388 1531 z "},"Š":{"ha":899,"x_min":8,"x_max":875,"o":"m 465 931 q 697 895 596 931 q 875 788 799 860 l 751 606 q 619 688 689 658 q 464 718 549 718 q 394 710 421 718 q 356 687 368 701 q 344 654 344 672 q 372 618 344 632 q 447 593 399 604 l 586 561 q 793 467 725 529 q 861 299 861 406 q 809 125 861 194 q 667 21 757 56 q 463 -14 576 -14 q 287 4 372 -14 q 131 56 201 22 q 8 138 60 90 l 131 325 q 222 260 168 289 q 338 215 276 232 q 456 199 399 199 q 522 206 496 199 q 558 228 547 214 q 569 261 569 242 q 551 299 569 285 q 483 325 533 314 l 331 360 q 192 406 256 376 q 90 487 128 435 q 51 624 51 539 q 100 783 51 714 q 242 892 149 853 q 465 931 335 931 m 728 1224 l 593 993 l 324 993 l 189 1224 l 375 1224 l 458 1103 l 542 1224 l 728 1224 z "},"Ṧ":{"ha":899,"x_min":8,"x_max":875,"o":"m 465 931 q 697 895 596 931 q 875 788 799 860 l 751 606 q 619 688 689 658 q 464 718 549 718 q 394 710 421 718 q 356 687 368 701 q 344 654 344 672 q 372 618 344 632 q 447 593 399 604 l 586 561 q 793 467 725 529 q 861 299 861 406 q 809 125 861 194 q 667 21 757 56 q 463 -14 576 -14 q 287 4 372 -14 q 131 56 201 22 q 8 138 60 90 l 131 325 q 222 260 168 289 q 338 215 276 232 q 456 199 399 199 q 522 206 496 199 q 558 228 547 214 q 569 261 569 242 q 551 299 569 285 q 483 325 533 314 l 331 360 q 192 406 256 376 q 90 487 128 435 q 51 624 51 539 q 100 783 51 714 q 242 892 149 853 q 465 931 335 931 m 728 1224 l 593 993 l 324 993 l 189 1224 l 375 1224 l 458 1103 l 542 1224 l 728 1224 m 458 1517 q 567 1486 531 1517 q 604 1394 604 1456 q 567 1304 604 1335 q 458 1274 531 1274 q 352 1304 388 1274 q 317 1394 317 1335 q 352 1486 317 1456 q 458 1517 388 1517 z "},"Ş":{"ha":899,"x_min":8,"x_max":875,"o":"m 465 931 q 697 895 596 931 q 875 788 799 860 l 751 606 q 619 688 689 658 q 464 718 549 718 q 394 710 421 718 q 356 687 368 701 q 344 654 344 672 q 372 618 344 632 q 447 593 399 604 l 586 561 q 793 467 725 529 q 861 299 861 406 q 809 125 861 194 q 667 21 757 56 q 463 -14 576 -14 q 287 4 372 -14 q 131 56 201 22 q 8 138 60 90 l 131 325 q 222 260 168 289 q 338 215 276 232 q 456 199 399 199 q 522 206 496 199 q 558 228 547 214 q 569 261 569 242 q 551 299 569 285 q 483 325 533 314 l 331 360 q 192 406 256 376 q 90 487 128 435 q 51 624 51 539 q 100 783 51 714 q 242 892 149 853 q 465 931 335 931 m 342 17 l 397 56 q 574 0 517 43 q 632 -121 632 -43 q 578 -251 632 -203 q 426 -299 524 -299 q 338 -286 369 -299 q 281 -258 306 -274 l 322 -133 q 358 -151 339 -144 q 403 -157 376 -157 q 459 -137 438 -157 q 481 -85 481 -118 q 451 -30 481 -54 q 342 17 421 -6 z "},"Ŝ":{"ha":899,"x_min":8,"x_max":875,"o":"m 465 931 q 697 895 596 931 q 875 788 799 860 l 751 606 q 619 688 689 658 q 464 718 549 718 q 394 710 421 718 q 356 687 368 701 q 344 654 344 672 q 372 618 344 632 q 447 593 399 604 l 586 561 q 793 467 725 529 q 861 299 861 406 q 809 125 861 194 q 667 21 757 56 q 463 -14 576 -14 q 287 4 372 -14 q 131 56 201 22 q 8 138 60 90 l 131 325 q 222 260 168 289 q 338 215 276 232 q 456 199 399 199 q 522 206 496 199 q 558 228 547 214 q 569 261 569 242 q 551 299 569 285 q 483 325 533 314 l 331 360 q 192 406 256 376 q 90 487 128 435 q 51 624 51 539 q 100 783 51 714 q 242 892 149 853 q 465 931 335 931 m 728 993 l 542 993 l 458 1114 l 375 993 l 189 993 l 324 1224 l 593 1224 l 728 993 z "},"Ș":{"ha":899,"x_min":8,"x_max":875,"o":"m 465 931 q 697 895 596 931 q 875 788 799 860 l 751 606 q 619 688 689 658 q 464 718 549 718 q 394 710 421 718 q 356 687 368 701 q 344 654 344 672 q 372 618 344 632 q 447 593 399 604 l 586 561 q 793 467 725 529 q 861 299 861 406 q 809 125 861 194 q 667 21 757 56 q 463 -14 576 -14 q 287 4 372 -14 q 131 56 201 22 q 8 138 60 90 l 131 325 q 222 260 168 289 q 338 215 276 232 q 456 199 399 199 q 522 206 496 199 q 558 228 547 214 q 569 261 569 242 q 551 299 569 285 q 483 325 533 314 l 331 360 q 192 406 256 376 q 90 487 128 435 q 51 624 51 539 q 100 783 51 714 q 242 892 149 853 q 465 931 335 931 m 600 -76 l 499 -336 l 321 -336 l 360 -76 l 600 -76 z "},"Ṡ":{"ha":899,"x_min":8,"x_max":875,"o":"m 465 931 q 697 895 596 931 q 875 788 799 860 l 751 606 q 619 688 689 658 q 464 718 549 718 q 394 710 421 718 q 356 687 368 701 q 344 654 344 672 q 372 618 344 632 q 447 593 399 604 l 586 561 q 793 467 725 529 q 861 299 861 406 q 809 125 861 194 q 667 21 757 56 q 463 -14 576 -14 q 287 4 372 -14 q 131 56 201 22 q 8 138 60 90 l 131 325 q 222 260 168 289 q 338 215 276 232 q 456 199 399 199 q 522 206 496 199 q 558 228 547 214 q 569 261 569 242 q 551 299 569 285 q 483 325 533 314 l 331 360 q 192 406 256 376 q 90 487 128 435 q 51 624 51 539 q 100 783 51 714 q 242 892 149 853 q 465 931 335 931 m 458 1228 q 567 1197 531 1228 q 604 1106 604 1167 q 567 1015 604 1046 q 458 985 531 985 q 352 1015 388 985 q 317 1106 317 1046 q 352 1197 317 1167 q 458 1228 388 1228 z "},"Ṣ":{"ha":899,"x_min":8,"x_max":875,"o":"m 465 931 q 697 895 596 931 q 875 788 799 860 l 751 606 q 619 688 689 658 q 464 718 549 718 q 394 710 421 718 q 356 687 368 701 q 344 654 344 672 q 372 618 344 632 q 447 593 399 604 l 586 561 q 793 467 725 529 q 861 299 861 406 q 809 125 861 194 q 667 21 757 56 q 463 -14 576 -14 q 287 4 372 -14 q 131 56 201 22 q 8 138 60 90 l 131 325 q 222 260 168 289 q 338 215 276 232 q 456 199 399 199 q 522 206 496 199 q 558 228 547 214 q 569 261 569 242 q 551 299 569 285 q 483 325 533 314 l 331 360 q 192 406 256 376 q 90 487 128 435 q 51 624 51 539 q 100 783 51 714 q 242 892 149 853 q 465 931 335 931 m 456 -311 q 349 -281 385 -311 q 314 -189 314 -250 q 349 -99 314 -129 q 456 -68 385 -68 q 565 -99 528 -68 q 601 -189 601 -129 q 565 -281 601 -250 q 456 -311 528 -311 z "},"Ṩ":{"ha":899,"x_min":8,"x_max":875,"o":"m 465 931 q 697 895 596 931 q 875 788 799 860 l 751 606 q 619 688 689 658 q 464 718 549 718 q 394 710 421 718 q 356 687 368 701 q 344 654 344 672 q 372 618 344 632 q 447 593 399 604 l 586 561 q 793 467 725 529 q 861 299 861 406 q 809 125 861 194 q 667 21 757 56 q 463 -14 576 -14 q 287 4 372 -14 q 131 56 201 22 q 8 138 60 90 l 131 325 q 222 260 168 289 q 338 215 276 232 q 456 199 399 199 q 522 206 496 199 q 558 228 547 214 q 569 261 569 242 q 551 299 569 285 q 483 325 533 314 l 331 360 q 192 406 256 376 q 90 487 128 435 q 51 624 51 539 q 100 783 51 714 q 242 892 149 853 q 465 931 335 931 m 458 1228 q 567 1197 531 1228 q 604 1106 604 1167 q 567 1015 604 1046 q 458 985 531 985 q 352 1015 388 985 q 317 1106 317 1046 q 352 1197 317 1167 q 458 1228 388 1228 m 456 -311 q 349 -281 385 -311 q 314 -189 314 -250 q 349 -99 314 -129 q 456 -68 385 -68 q 565 -99 528 -68 q 601 -189 601 -129 q 565 -281 601 -250 q 456 -311 528 -311 z "},"ẞ":{"ha":996,"x_min":71,"x_max":975,"o":"m 672 -7 q 510 13 569 -7 q 413 68 450 33 l 482 231 q 538 199 510 208 q 611 189 567 189 q 666 199 643 189 q 701 228 689 210 q 714 274 714 247 q 684 334 714 315 q 607 353 654 353 l 472 353 l 472 499 l 663 710 l 529 710 q 436 688 475 710 q 376 626 397 667 q 356 524 356 585 l 356 0 l 71 0 l 71 569 q 119 756 71 678 q 258 875 167 833 q 474 917 349 917 l 925 917 l 925 714 l 654 413 l 708 497 l 743 497 q 851 474 797 497 q 940 399 904 450 q 975 264 975 347 q 935 113 975 172 q 828 23 896 53 q 672 -7 760 -7 z "},"Ə":{"ha":981,"x_min":43,"x_max":929,"o":"m 471 -14 q 235 42 331 -14 q 92 197 140 99 q 43 418 43 294 q 45 458 43 438 q 49 499 47 478 l 769 499 l 769 349 l 181 349 l 325 436 q 323 412 324 424 q 322 389 322 400 q 342 283 322 324 q 398 222 363 242 q 481 203 433 203 q 574 233 538 203 q 628 323 611 263 q 644 476 644 383 q 625 608 644 556 q 568 688 606 661 q 475 714 531 714 q 366 680 403 714 q 314 583 329 646 l 53 635 q 140 803 79 738 q 288 899 201 868 q 476 931 375 931 q 721 874 619 931 q 876 713 822 818 q 929 458 929 607 q 874 204 929 310 q 717 42 819 99 q 471 -14 614 -14 z "},"T":{"ha":932,"x_min":31,"x_max":900,"o":"m 900 917 l 900 704 l 608 704 l 608 0 l 325 0 l 325 704 l 31 704 l 31 917 l 900 917 z "},"Ŧ":{"ha":932,"x_min":31,"x_max":900,"o":"m 900 917 l 900 704 l 608 704 l 608 0 l 325 0 l 325 704 l 31 704 l 31 917 l 900 917 m 811 515 l 811 303 l 122 303 l 122 515 l 811 515 z "},"Ť":{"ha":932,"x_min":31,"x_max":900,"o":"m 900 917 l 900 704 l 608 704 l 608 0 l 325 0 l 325 704 l 31 704 l 31 917 l 900 917 m 735 1224 l 600 993 l 331 993 l 196 1224 l 382 1224 l 465 1103 l 549 1224 l 735 1224 z "},"Ţ":{"ha":932,"x_min":31,"x_max":900,"o":"m 356 15 l 408 56 q 585 0 528 43 q 642 -121 642 -43 q 588 -251 642 -203 q 436 -299 533 -299 q 348 -286 381 -299 q 292 -258 315 -274 l 333 -133 q 369 -151 350 -144 q 414 -157 388 -157 q 469 -137 449 -157 q 490 -85 490 -118 q 461 -30 490 -54 q 356 15 432 -6 m 900 917 l 900 704 l 608 704 l 608 0 l 325 0 l 325 704 l 31 704 l 31 917 l 900 917 z "},"Ț":{"ha":932,"x_min":31,"x_max":900,"o":"m 900 917 l 900 704 l 608 704 l 608 0 l 325 0 l 325 704 l 31 704 l 31 917 l 900 917 m 596 -76 l 494 -336 l 317 -336 l 356 -76 l 596 -76 z "},"Ṭ":{"ha":932,"x_min":31,"x_max":900,"o":"m 900 917 l 900 704 l 608 704 l 608 0 l 325 0 l 325 704 l 31 704 l 31 917 l 900 917 m 465 -311 q 359 -281 394 -311 q 324 -189 324 -250 q 359 -99 324 -129 q 465 -68 394 -68 q 574 -99 538 -68 q 611 -189 611 -129 q 574 -281 611 -250 q 465 -311 538 -311 z "},"Ṯ":{"ha":932,"x_min":31,"x_max":900,"o":"m 900 917 l 900 704 l 608 704 l 608 0 l 325 0 l 325 704 l 31 704 l 31 917 l 900 917 m 726 -82 l 726 -247 l 204 -247 l 204 -82 l 726 -82 z "},"U":{"ha":988,"x_min":67,"x_max":921,"o":"m 921 917 l 921 385 q 814 85 921 185 q 494 -14 707 -14 q 174 85 281 -14 q 67 385 67 185 l 67 917 l 351 917 l 351 369 q 388 244 351 286 q 494 203 424 203 q 601 244 565 203 q 638 369 638 286 l 638 917 l 921 917 z "},"Ú":{"ha":988,"x_min":67,"x_max":921,"o":"m 921 917 l 921 385 q 814 85 921 185 q 494 -14 707 -14 q 174 85 281 -14 q 67 385 67 185 l 67 917 l 351 917 l 351 369 q 388 244 351 286 q 494 203 424 203 q 601 244 565 203 q 638 369 638 286 l 638 917 l 921 917 m 463 1217 l 707 1217 l 581 986 l 381 986 l 463 1217 z "},"Ŭ":{"ha":988,"x_min":67,"x_max":921,"o":"m 921 917 l 921 385 q 814 85 921 185 q 494 -14 707 -14 q 174 85 281 -14 q 67 385 67 185 l 67 917 l 351 917 l 351 369 q 388 244 351 286 q 494 203 424 203 q 601 244 565 203 q 638 369 638 286 l 638 917 l 921 917 m 739 1208 q 674 1037 739 1099 q 494 975 608 975 q 316 1037 382 975 q 250 1208 250 1099 l 424 1208 q 442 1147 424 1169 q 494 1124 460 1124 q 548 1147 531 1124 q 565 1208 565 1169 l 739 1208 z "},"Û":{"ha":988,"x_min":67,"x_max":921,"o":"m 921 917 l 921 385 q 814 85 921 185 q 494 -14 707 -14 q 174 85 281 -14 q 67 385 67 185 l 67 917 l 351 917 l 351 369 q 388 244 351 286 q 494 203 424 203 q 601 244 565 203 q 638 369 638 286 l 638 917 l 921 917 m 764 986 l 578 986 l 494 1107 l 411 986 l 225 986 l 360 1217 l 629 1217 l 764 986 z "},"Ȕ":{"ha":988,"x_min":67,"x_max":921,"o":"m 921 917 l 921 385 q 814 85 921 185 q 494 -14 707 -14 q 174 85 281 -14 q 67 385 67 185 l 67 917 l 351 917 l 351 369 q 388 244 351 286 q 494 203 424 203 q 601 244 565 203 q 638 369 638 286 l 638 917 l 921 917 m 356 1217 l 438 986 l 238 986 l 113 1217 l 356 1217 m 689 1217 l 772 986 l 571 986 l 446 1217 l 689 1217 z "},"Ü":{"ha":988,"x_min":67,"x_max":921,"o":"m 921 917 l 921 385 q 814 85 921 185 q 494 -14 707 -14 q 174 85 281 -14 q 67 385 67 185 l 67 917 l 351 917 l 351 369 q 388 244 351 286 q 494 203 424 203 q 601 244 565 203 q 638 369 638 286 l 638 917 l 921 917 m 333 1210 q 432 1179 397 1210 q 467 1092 467 1149 q 432 1005 467 1036 q 333 974 397 974 q 238 1005 272 974 q 204 1092 204 1036 q 238 1179 204 1149 q 333 1210 272 1210 m 651 1210 q 750 1179 715 1210 q 785 1092 785 1149 q 750 1005 785 1036 q 651 974 715 974 q 556 1005 590 974 q 522 1092 522 1036 q 556 1179 522 1149 q 651 1210 590 1210 z "},"Ụ":{"ha":988,"x_min":67,"x_max":921,"o":"m 921 917 l 921 385 q 814 85 921 185 q 494 -14 707 -14 q 174 85 281 -14 q 67 385 67 185 l 67 917 l 351 917 l 351 369 q 388 244 351 286 q 494 203 424 203 q 601 244 565 203 q 638 369 638 286 l 638 917 l 921 917 m 494 -311 q 388 -281 424 -311 q 353 -189 353 -250 q 388 -99 353 -129 q 494 -68 424 -68 q 603 -99 567 -68 q 640 -189 640 -129 q 603 -281 640 -250 q 494 -311 567 -311 z "},"Ù":{"ha":988,"x_min":67,"x_max":921,"o":"m 921 917 l 921 385 q 814 85 921 185 q 494 -14 707 -14 q 174 85 281 -14 q 67 385 67 185 l 67 917 l 351 917 l 351 369 q 388 244 351 286 q 494 203 424 203 q 601 244 565 203 q 638 369 638 286 l 638 917 l 921 917 m 526 1217 l 608 986 l 408 986 l 282 1217 l 526 1217 z "},"Ủ":{"ha":988,"x_min":67,"x_max":921,"o":"m 921 917 l 921 385 q 814 85 921 185 q 494 -14 707 -14 q 174 85 281 -14 q 67 385 67 185 l 67 917 l 351 917 l 351 369 q 388 244 351 286 q 494 203 424 203 q 601 244 565 203 q 638 369 638 286 l 638 917 l 921 917 m 494 958 l 439 1036 q 494 1069 479 1053 q 510 1104 510 1086 q 499 1135 510 1124 q 467 1147 488 1147 q 435 1138 446 1147 q 415 1110 424 1128 l 293 1165 q 360 1257 310 1225 q 483 1289 411 1289 q 570 1272 529 1289 q 637 1222 611 1256 q 663 1139 663 1189 q 635 1048 663 1085 q 569 990 608 1011 q 494 958 531 968 z "},"Ư":{"ha":988,"x_min":67,"x_max":1083,"o":"m 921 917 l 921 385 q 814 85 921 185 q 494 -14 707 -14 q 174 85 281 -14 q 67 385 67 185 l 67 917 l 351 917 l 351 369 q 388 244 351 286 q 494 203 424 203 q 601 244 565 203 q 638 369 638 286 l 638 917 l 921 917 m 1083 1063 q 1009 844 1083 921 q 786 767 935 767 l 782 917 q 871 951 843 917 q 899 1063 899 985 l 1083 1063 z "},"Ứ":{"ha":988,"x_min":67,"x_max":1083,"o":"m 921 917 l 921 385 q 814 85 921 185 q 494 -14 707 -14 q 174 85 281 -14 q 67 385 67 185 l 67 917 l 351 917 l 351 369 q 388 244 351 286 q 494 203 424 203 q 601 244 565 203 q 638 369 638 286 l 638 917 l 921 917 m 1083 1063 q 1009 844 1083 921 q 786 767 935 767 l 782 917 q 871 951 843 917 q 899 1063 899 985 l 1083 1063 m 463 1217 l 707 1217 l 581 986 l 381 986 l 463 1217 z "},"Ự":{"ha":988,"x_min":67,"x_max":1083,"o":"m 921 917 l 921 385 q 814 85 921 185 q 494 -14 707 -14 q 174 85 281 -14 q 67 385 67 185 l 67 917 l 351 917 l 351 369 q 388 244 351 286 q 494 203 424 203 q 601 244 565 203 q 638 369 638 286 l 638 917 l 921 917 m 1083 1063 q 1009 844 1083 921 q 786 767 935 767 l 782 917 q 871 951 843 917 q 899 1063 899 985 l 1083 1063 m 494 -311 q 388 -281 424 -311 q 353 -189 353 -250 q 388 -99 353 -129 q 494 -68 424 -68 q 603 -99 567 -68 q 640 -189 640 -129 q 603 -281 640 -250 q 494 -311 567 -311 z "},"Ừ":{"ha":988,"x_min":67,"x_max":1083,"o":"m 921 917 l 921 385 q 814 85 921 185 q 494 -14 707 -14 q 174 85 281 -14 q 67 385 67 185 l 67 917 l 351 917 l 351 369 q 388 244 351 286 q 494 203 424 203 q 601 244 565 203 q 638 369 638 286 l 638 917 l 921 917 m 1083 1063 q 1009 844 1083 921 q 786 767 935 767 l 782 917 q 871 951 843 917 q 899 1063 899 985 l 1083 1063 m 526 1217 l 608 986 l 408 986 l 282 1217 l 526 1217 z "},"Ử":{"ha":988,"x_min":67,"x_max":1083,"o":"m 921 917 l 921 385 q 814 85 921 185 q 494 -14 707 -14 q 174 85 281 -14 q 67 385 67 185 l 67 917 l 351 917 l 351 369 q 388 244 351 286 q 494 203 424 203 q 601 244 565 203 q 638 369 638 286 l 638 917 l 921 917 m 1083 1063 q 1009 844 1083 921 q 786 767 935 767 l 782 917 q 871 951 843 917 q 899 1063 899 985 l 1083 1063 m 494 958 l 439 1036 q 494 1069 479 1053 q 510 1104 510 1086 q 499 1135 510 1124 q 467 1147 488 1147 q 435 1138 446 1147 q 415 1110 424 1128 l 293 1165 q 360 1257 310 1225 q 483 1289 411 1289 q 570 1272 529 1289 q 637 1222 611 1256 q 663 1139 663 1189 q 635 1048 663 1085 q 569 990 608 1011 q 494 958 531 968 z "},"Ữ":{"ha":988,"x_min":67,"x_max":1083,"o":"m 921 917 l 921 385 q 814 85 921 185 q 494 -14 707 -14 q 174 85 281 -14 q 67 385 67 185 l 67 917 l 351 917 l 351 369 q 388 244 351 286 q 494 203 424 203 q 601 244 565 203 q 638 369 638 286 l 638 917 l 921 917 m 1083 1063 q 1009 844 1083 921 q 786 767 935 767 l 782 917 q 871 951 843 917 q 899 1063 899 985 l 1083 1063 m 778 1214 q 751 1083 776 1135 q 687 1005 726 1031 q 601 979 647 979 q 534 991 563 979 q 484 1017 506 1003 q 444 1043 463 1032 q 407 1054 426 1054 q 375 1037 386 1054 q 360 982 364 1019 l 210 982 q 267 1158 214 1100 q 400 1215 321 1215 q 464 1204 438 1215 q 509 1178 490 1193 q 545 1153 528 1164 q 582 1142 563 1142 q 615 1159 604 1142 q 629 1214 625 1176 l 778 1214 z "},"Ű":{"ha":988,"x_min":67,"x_max":921,"o":"m 921 917 l 921 385 q 814 85 921 185 q 494 -14 707 -14 q 174 85 281 -14 q 67 385 67 185 l 67 917 l 351 917 l 351 369 q 388 244 351 286 q 494 203 424 203 q 601 244 565 203 q 638 369 638 286 l 638 917 l 921 917 m 632 1217 l 876 1217 l 750 986 l 550 986 l 632 1217 m 299 1217 l 543 1217 l 417 986 l 217 986 l 299 1217 z "},"Ȗ":{"ha":988,"x_min":67,"x_max":921,"o":"m 921 917 l 921 385 q 814 85 921 185 q 494 -14 707 -14 q 174 85 281 -14 q 67 385 67 185 l 67 917 l 351 917 l 351 369 q 388 244 351 286 q 494 203 424 203 q 601 244 565 203 q 638 369 638 286 l 638 917 l 921 917 m 739 975 l 565 975 q 548 1037 565 1014 q 494 1060 531 1060 q 442 1037 460 1060 q 424 975 424 1014 l 250 975 q 316 1147 250 1086 q 494 1208 382 1208 q 674 1147 608 1208 q 739 975 739 1086 z "},"Ū":{"ha":988,"x_min":67,"x_max":921,"o":"m 921 917 l 921 385 q 814 85 921 185 q 494 -14 707 -14 q 174 85 281 -14 q 67 385 67 185 l 67 917 l 351 917 l 351 369 q 388 244 351 286 q 494 203 424 203 q 601 244 565 203 q 638 369 638 286 l 638 917 l 921 917 m 756 1157 l 756 992 l 233 992 l 233 1157 l 756 1157 z "},"Ṻ":{"ha":988,"x_min":67,"x_max":921,"o":"m 921 917 l 921 385 q 814 85 921 185 q 494 -14 707 -14 q 174 85 281 -14 q 67 385 67 185 l 67 917 l 351 917 l 351 369 q 388 244 351 286 q 494 203 424 203 q 601 244 565 203 q 638 369 638 286 l 638 917 l 921 917 m 756 1157 l 756 992 l 233 992 l 233 1157 l 756 1157 m 333 1454 q 432 1424 397 1454 q 467 1336 467 1393 q 432 1249 467 1281 q 333 1218 397 1218 q 238 1249 272 1218 q 204 1336 204 1281 q 238 1424 204 1393 q 333 1454 272 1454 m 651 1454 q 750 1424 715 1454 q 785 1336 785 1393 q 750 1249 785 1281 q 651 1218 715 1218 q 556 1249 590 1218 q 522 1336 522 1281 q 556 1424 522 1393 q 651 1454 590 1454 z "},"Ų":{"ha":988,"x_min":67,"x_max":921,"o":"m 921 917 l 921 385 q 814 85 921 185 q 494 -14 707 -14 q 174 85 281 -14 q 67 385 67 185 l 67 917 l 351 917 l 351 369 q 388 244 351 286 q 494 203 424 203 q 601 244 565 203 q 638 369 638 286 l 638 917 l 921 917 m 550 -303 q 407 -260 458 -303 q 356 -144 356 -218 q 417 -15 356 -61 q 578 42 478 31 l 682 11 q 599 -19 632 -4 q 549 -51 565 -33 q 533 -94 533 -68 q 552 -136 533 -121 q 604 -151 571 -151 q 637 -148 621 -151 q 664 -139 653 -144 l 690 -274 q 628 -297 661 -290 q 550 -303 596 -303 z "},"Ů":{"ha":988,"x_min":67,"x_max":921,"o":"m 921 917 l 921 385 q 814 85 921 185 q 494 -14 707 -14 q 174 85 281 -14 q 67 385 67 185 l 67 917 l 351 917 l 351 369 q 388 244 351 286 q 494 203 424 203 q 601 244 565 203 q 638 369 638 286 l 638 917 l 921 917 m 493 1311 q 640 1263 585 1311 q 694 1132 694 1214 q 640 1003 694 1051 q 493 954 585 954 q 348 1003 403 954 q 293 1132 293 1051 q 348 1263 293 1214 q 493 1311 403 1311 m 494 1197 q 446 1180 464 1197 q 428 1133 428 1163 q 446 1085 428 1103 q 494 1068 464 1068 q 542 1085 524 1068 q 560 1133 560 1103 q 542 1180 560 1163 q 494 1197 524 1197 z "},"Ũ":{"ha":988,"x_min":67,"x_max":921,"o":"m 921 917 l 921 385 q 814 85 921 185 q 494 -14 707 -14 q 174 85 281 -14 q 67 385 67 185 l 67 917 l 351 917 l 351 369 q 388 244 351 286 q 494 203 424 203 q 601 244 565 203 q 638 369 638 286 l 638 917 l 921 917 m 778 1214 q 751 1083 776 1135 q 687 1005 726 1031 q 601 979 647 979 q 534 991 563 979 q 484 1017 506 1003 q 444 1043 463 1032 q 407 1054 426 1054 q 375 1037 386 1054 q 360 982 364 1019 l 210 982 q 267 1158 214 1100 q 400 1215 321 1215 q 464 1204 438 1215 q 509 1178 490 1193 q 545 1153 528 1164 q 582 1142 563 1142 q 615 1159 604 1142 q 629 1214 625 1176 l 778 1214 z "},"Ṹ":{"ha":988,"x_min":67,"x_max":921,"o":"m 921 917 l 921 385 q 814 85 921 185 q 494 -14 707 -14 q 174 85 281 -14 q 67 385 67 185 l 67 917 l 351 917 l 351 369 q 388 244 351 286 q 494 203 424 203 q 601 244 565 203 q 638 369 638 286 l 638 917 l 921 917 m 778 1214 q 751 1083 776 1135 q 687 1005 726 1031 q 601 979 647 979 q 534 991 563 979 q 484 1017 506 1003 q 444 1043 463 1032 q 407 1054 426 1054 q 375 1037 386 1054 q 360 982 364 1019 l 210 982 q 267 1158 214 1100 q 400 1215 321 1215 q 464 1204 438 1215 q 509 1178 490 1193 q 545 1153 528 1164 q 582 1142 563 1142 q 615 1159 604 1142 q 629 1214 625 1176 l 778 1214 m 461 1507 l 706 1507 l 579 1276 l 379 1276 l 461 1507 z "},"V":{"ha":967,"x_min":-1,"x_max":968,"o":"m 968 917 l 651 0 l 315 0 l -1 917 l 294 917 l 442 390 l 489 211 l 533 388 l 682 917 l 968 917 z "},"W":{"ha":1403,"x_min":0,"x_max":1401,"o":"m 263 0 l 0 917 l 306 917 l 435 225 l 579 917 l 829 917 l 981 229 l 1107 917 l 1401 917 l 1139 0 l 833 0 l 744 392 l 707 621 l 703 621 l 665 392 l 576 0 l 263 0 z "},"Ẃ":{"ha":1403,"x_min":0,"x_max":1401,"o":"m 263 0 l 0 917 l 306 917 l 435 225 l 579 917 l 829 917 l 981 229 l 1107 917 l 1401 917 l 1139 0 l 833 0 l 744 392 l 707 621 l 703 621 l 665 392 l 576 0 l 263 0 m 669 1224 l 914 1224 l 788 993 l 588 993 l 669 1224 z "},"Ŵ":{"ha":1403,"x_min":0,"x_max":1401,"o":"m 263 0 l 0 917 l 306 917 l 435 225 l 579 917 l 829 917 l 981 229 l 1107 917 l 1401 917 l 1139 0 l 833 0 l 744 392 l 707 621 l 703 621 l 665 392 l 576 0 l 263 0 m 971 993 l 785 993 l 701 1114 l 618 993 l 432 993 l 567 1224 l 836 1224 l 971 993 z "},"Ẅ":{"ha":1403,"x_min":0,"x_max":1401,"o":"m 263 0 l 0 917 l 306 917 l 435 225 l 579 917 l 829 917 l 981 229 l 1107 917 l 1401 917 l 1139 0 l 833 0 l 744 392 l 707 621 l 703 621 l 665 392 l 576 0 l 263 0 m 540 1217 q 639 1186 604 1217 q 674 1099 674 1156 q 639 1012 674 1043 q 540 981 604 981 q 445 1012 479 981 q 411 1099 411 1043 q 445 1186 411 1156 q 540 1217 479 1217 m 858 1217 q 957 1186 922 1217 q 992 1099 992 1156 q 957 1012 992 1043 q 858 981 922 981 q 763 1012 797 981 q 729 1099 729 1043 q 763 1186 729 1156 q 858 1217 797 1217 z "},"Ẁ":{"ha":1403,"x_min":0,"x_max":1401,"o":"m 263 0 l 0 917 l 306 917 l 435 225 l 579 917 l 829 917 l 981 229 l 1107 917 l 1401 917 l 1139 0 l 833 0 l 744 392 l 707 621 l 703 621 l 665 392 l 576 0 l 263 0 m 733 1224 l 815 993 l 615 993 l 489 1224 l 733 1224 z "},"X":{"ha":951,"x_min":8,"x_max":953,"o":"m 953 0 l 611 0 l 467 264 l 331 0 l 8 0 l 317 458 l 24 917 l 358 917 l 489 664 l 621 917 l 929 917 l 638 467 l 953 0 z "},"Y":{"ha":954,"x_min":13,"x_max":940,"o":"m 940 917 l 619 325 l 619 0 l 335 0 l 335 325 l 13 917 l 300 917 l 411 688 l 479 528 l 546 688 l 658 917 l 940 917 z "},"Ý":{"ha":954,"x_min":13,"x_max":940,"o":"m 940 917 l 619 325 l 619 0 l 335 0 l 335 325 l 13 917 l 300 917 l 411 688 l 479 528 l 546 688 l 658 917 l 940 917 m 444 1218 l 689 1218 l 563 988 l 363 988 l 444 1218 z "},"Ŷ":{"ha":954,"x_min":13,"x_max":940,"o":"m 940 917 l 619 325 l 619 0 l 335 0 l 335 325 l 13 917 l 300 917 l 411 688 l 479 528 l 546 688 l 658 917 l 940 917 m 746 988 l 560 988 l 476 1108 l 393 988 l 207 988 l 342 1218 l 611 1218 l 746 988 z "},"Ÿ":{"ha":954,"x_min":13,"x_max":940,"o":"m 940 917 l 619 325 l 619 0 l 335 0 l 335 325 l 13 917 l 300 917 l 411 688 l 479 528 l 546 688 l 658 917 l 940 917 m 315 1211 q 414 1181 379 1211 q 449 1093 449 1150 q 414 1006 449 1038 q 315 975 379 975 q 220 1006 254 975 q 186 1093 186 1038 q 220 1181 186 1150 q 315 1211 254 1211 m 633 1211 q 732 1181 697 1211 q 767 1093 767 1150 q 732 1006 767 1038 q 633 975 697 975 q 538 1006 572 975 q 504 1093 504 1038 q 538 1181 504 1150 q 633 1211 572 1211 z "},"Ẏ":{"ha":954,"x_min":13,"x_max":940,"o":"m 940 917 l 619 325 l 619 0 l 335 0 l 335 325 l 13 917 l 300 917 l 411 688 l 479 528 l 546 688 l 658 917 l 940 917 m 476 1222 q 585 1192 549 1222 q 622 1100 622 1161 q 585 1010 622 1040 q 476 979 549 979 q 370 1010 406 979 q 335 1100 335 1040 q 370 1192 335 1161 q 476 1222 406 1222 z "},"Ỵ":{"ha":954,"x_min":13,"x_max":940,"o":"m 940 917 l 619 325 l 619 0 l 335 0 l 335 325 l 13 917 l 300 917 l 411 688 l 479 528 l 546 688 l 658 917 l 940 917 m 476 -311 q 370 -281 406 -311 q 335 -189 335 -250 q 370 -99 335 -129 q 476 -68 406 -68 q 585 -99 549 -68 q 622 -189 622 -129 q 585 -281 622 -250 q 476 -311 549 -311 z "},"Ỳ":{"ha":954,"x_min":13,"x_max":940,"o":"m 940 917 l 619 325 l 619 0 l 335 0 l 335 325 l 13 917 l 300 917 l 411 688 l 479 528 l 546 688 l 658 917 l 940 917 m 508 1218 l 590 988 l 390 988 l 264 1218 l 508 1218 z "},"Ỷ":{"ha":954,"x_min":13,"x_max":940,"o":"m 940 917 l 619 325 l 619 0 l 335 0 l 335 325 l 13 917 l 300 917 l 411 688 l 479 528 l 546 688 l 658 917 l 940 917 m 478 960 l 422 1038 q 478 1071 463 1054 q 493 1106 493 1088 q 482 1137 493 1125 q 450 1149 471 1149 q 418 1139 429 1149 q 399 1111 407 1129 l 276 1167 q 344 1258 293 1226 q 467 1290 394 1290 q 553 1274 513 1290 q 620 1224 594 1257 q 646 1140 646 1190 q 619 1049 646 1086 q 553 991 592 1013 q 478 960 514 969 z "},"Ȳ":{"ha":954,"x_min":13,"x_max":940,"o":"m 940 917 l 619 325 l 619 0 l 335 0 l 335 325 l 13 917 l 300 917 l 411 688 l 479 528 l 546 688 l 658 917 l 940 917 m 738 1158 l 738 993 l 215 993 l 215 1158 l 738 1158 z "},"Ỹ":{"ha":954,"x_min":13,"x_max":940,"o":"m 940 917 l 619 325 l 619 0 l 335 0 l 335 325 l 13 917 l 300 917 l 411 688 l 479 528 l 546 688 l 658 917 l 940 917 m 760 1215 q 733 1084 758 1136 q 669 1006 708 1032 q 583 981 629 981 q 516 992 544 981 q 466 1019 488 1004 q 426 1044 444 1033 q 389 1056 408 1056 q 357 1038 368 1056 q 342 983 346 1021 l 192 983 q 249 1159 196 1101 q 382 1217 303 1217 q 446 1206 419 1217 q 491 1180 472 1194 q 527 1154 510 1165 q 564 1143 544 1143 q 597 1160 586 1143 q 611 1215 607 1178 l 760 1215 z "},"Z":{"ha":883,"x_min":43,"x_max":851,"o":"m 260 113 l 210 207 l 851 207 l 851 0 l 43 0 l 43 199 l 621 804 l 669 710 l 50 710 l 50 917 l 836 917 l 836 718 l 260 113 z "},"Ź":{"ha":883,"x_min":43,"x_max":851,"o":"m 260 113 l 210 207 l 851 207 l 851 0 l 43 0 l 43 199 l 621 804 l 669 710 l 50 710 l 50 917 l 836 917 l 836 718 l 260 113 m 419 1224 l 664 1224 l 538 993 l 338 993 l 419 1224 z "},"Ž":{"ha":883,"x_min":43,"x_max":851,"o":"m 260 113 l 210 207 l 851 207 l 851 0 l 43 0 l 43 199 l 621 804 l 669 710 l 50 710 l 50 917 l 836 917 l 836 718 l 260 113 m 721 1224 l 586 993 l 317 993 l 182 1224 l 368 1224 l 451 1103 l 535 1224 l 721 1224 z "},"Ż":{"ha":883,"x_min":43,"x_max":851,"o":"m 260 113 l 210 207 l 851 207 l 851 0 l 43 0 l 43 199 l 621 804 l 669 710 l 50 710 l 50 917 l 836 917 l 836 718 l 260 113 m 451 1228 q 560 1197 524 1228 q 597 1106 597 1167 q 560 1015 597 1046 q 451 985 524 985 q 345 1015 381 985 q 310 1106 310 1046 q 345 1197 310 1167 q 451 1228 381 1228 z "},"Ẓ":{"ha":883,"x_min":43,"x_max":851,"o":"m 260 113 l 210 207 l 851 207 l 851 0 l 43 0 l 43 199 l 621 804 l 669 710 l 50 710 l 50 917 l 836 917 l 836 718 l 260 113 m 425 -311 q 319 -281 354 -311 q 283 -189 283 -250 q 319 -99 283 -129 q 425 -68 354 -68 q 534 -99 497 -68 q 571 -189 571 -129 q 534 -281 571 -250 q 425 -311 497 -311 z "},"a":{"ha":811,"x_min":33,"x_max":811,"o":"m 450 438 q 430 499 450 476 q 371 522 410 522 q 309 503 335 522 q 276 429 283 483 l 39 472 q 140 644 53 581 q 390 708 228 708 q 577 677 501 708 q 690 586 653 646 q 728 443 728 526 l 728 210 q 779 154 728 154 q 811 160 800 154 l 797 8 q 683 -14 751 -14 q 578 5 624 -14 q 506 60 532 24 q 479 154 479 96 l 479 165 l 507 169 q 473 72 507 114 q 384 8 439 31 q 263 -14 329 -14 q 139 8 190 -14 q 60 72 88 31 q 33 174 33 114 q 80 299 33 250 q 221 365 126 347 l 472 418 l 471 300 l 368 276 q 317 253 333 269 q 301 210 301 238 q 319 169 301 183 q 364 154 338 154 q 397 160 382 154 q 424 176 413 165 q 443 204 436 188 q 450 244 450 221 l 450 438 z "},"á":{"ha":811,"x_min":33,"x_max":811,"o":"m 450 438 q 430 499 450 476 q 371 522 410 522 q 309 503 335 522 q 276 429 283 483 l 39 472 q 140 644 53 581 q 390 708 228 708 q 577 677 501 708 q 690 586 653 646 q 728 443 728 526 l 728 210 q 779 154 728 154 q 811 160 800 154 l 797 8 q 683 -14 751 -14 q 578 5 624 -14 q 506 60 532 24 q 479 154 479 96 l 479 165 l 507 169 q 473 72 507 114 q 384 8 439 31 q 263 -14 329 -14 q 139 8 190 -14 q 60 72 88 31 q 33 174 33 114 q 80 299 33 250 q 221 365 126 347 l 472 418 l 471 300 l 368 276 q 317 253 333 269 q 301 210 301 238 q 319 169 301 183 q 364 154 338 154 q 397 160 382 154 q 424 176 413 165 q 443 204 436 188 q 450 244 450 221 l 450 438 m 353 1019 l 607 1019 l 464 776 l 265 776 l 353 1019 z "},"ă":{"ha":811,"x_min":33,"x_max":811,"o":"m 450 438 q 430 499 450 476 q 371 522 410 522 q 309 503 335 522 q 276 429 283 483 l 39 472 q 140 644 53 581 q 390 708 228 708 q 577 677 501 708 q 690 586 653 646 q 728 443 728 526 l 728 210 q 779 154 728 154 q 811 160 800 154 l 797 8 q 683 -14 751 -14 q 578 5 624 -14 q 506 60 532 24 q 479 154 479 96 l 479 165 l 507 169 q 473 72 507 114 q 384 8 439 31 q 263 -14 329 -14 q 139 8 190 -14 q 60 72 88 31 q 33 174 33 114 q 80 299 33 250 q 221 365 126 347 l 472 418 l 471 300 l 368 276 q 317 253 333 269 q 301 210 301 238 q 319 169 301 183 q 364 154 338 154 q 397 160 382 154 q 424 176 413 165 q 443 204 436 188 q 450 244 450 221 l 450 438 m 629 993 q 564 822 629 883 q 385 760 499 760 q 206 822 272 760 q 140 993 140 883 l 314 993 q 332 931 314 954 q 385 908 350 908 q 438 931 421 908 q 456 993 456 954 l 629 993 z "},"ắ":{"ha":811,"x_min":33,"x_max":811,"o":"m 610 974 q 549 816 610 872 q 385 760 489 760 q 220 816 281 760 q 160 974 160 872 l 318 974 q 335 916 318 938 q 385 894 351 894 q 435 916 418 894 q 451 974 451 938 l 610 974 m 276 1006 l 349 1210 l 568 1210 l 457 1006 l 276 1006 m 450 436 q 431 499 450 476 q 372 522 411 522 q 310 503 335 522 q 278 429 285 483 l 42 471 q 142 644 54 579 q 390 708 229 708 q 578 676 503 708 q 690 586 653 644 q 728 449 728 528 l 728 210 q 782 154 728 154 q 811 160 800 154 l 799 10 q 685 -12 751 -12 q 576 6 624 -12 q 503 60 529 24 q 476 154 476 97 l 476 168 l 507 168 q 469 74 503 114 q 381 10 435 33 q 263 -14 328 -14 q 140 8 190 -14 q 61 72 89 31 q 33 172 33 114 q 83 297 33 249 q 225 363 132 344 l 472 414 l 471 306 l 368 282 q 315 256 332 274 q 299 211 299 239 q 317 169 299 185 q 367 153 335 153 q 399 158 383 153 q 426 174 414 163 q 444 200 438 185 q 450 236 450 215 l 450 436 z "},"ặ":{"ha":811,"x_min":33,"x_max":811,"o":"m 450 438 q 430 499 450 476 q 371 522 410 522 q 309 503 335 522 q 276 429 283 483 l 39 472 q 140 644 53 581 q 390 708 228 708 q 577 677 501 708 q 690 586 653 646 q 728 443 728 526 l 728 210 q 779 154 728 154 q 811 160 800 154 l 797 8 q 683 -14 751 -14 q 578 5 624 -14 q 506 60 532 24 q 479 154 479 96 l 479 165 l 507 169 q 473 72 507 114 q 384 8 439 31 q 263 -14 329 -14 q 139 8 190 -14 q 60 72 88 31 q 33 174 33 114 q 80 299 33 250 q 221 365 126 347 l 472 418 l 471 300 l 368 276 q 317 253 333 269 q 301 210 301 238 q 319 169 301 183 q 364 154 338 154 q 397 160 382 154 q 424 176 413 165 q 443 204 436 188 q 450 244 450 221 l 450 438 m 393 -311 q 287 -281 322 -311 q 251 -189 251 -250 q 287 -99 251 -129 q 393 -68 322 -68 q 502 -99 465 -68 q 539 -189 539 -129 q 502 -281 539 -250 q 393 -311 465 -311 m 629 993 q 564 822 629 883 q 385 760 499 760 q 206 822 272 760 q 140 993 140 883 l 314 993 q 332 931 314 954 q 385 908 350 908 q 438 931 421 908 q 456 993 456 954 l 629 993 z "},"ằ":{"ha":811,"x_min":33,"x_max":811,"o":"m 610 974 q 549 816 610 872 q 385 760 489 760 q 220 816 281 760 q 160 974 160 872 l 318 974 q 335 916 318 938 q 385 894 351 894 q 435 916 418 894 q 451 974 451 938 l 610 974 m 494 1006 l 313 1006 l 200 1210 l 421 1210 l 494 1006 m 450 436 q 431 499 450 476 q 372 522 411 522 q 310 503 335 522 q 278 429 285 483 l 42 471 q 142 644 54 579 q 390 708 229 708 q 578 676 503 708 q 690 586 653 644 q 728 449 728 528 l 728 210 q 782 154 728 154 q 811 160 800 154 l 799 10 q 685 -12 751 -12 q 576 6 624 -12 q 503 60 529 24 q 476 154 476 97 l 476 168 l 507 168 q 469 74 503 114 q 381 10 435 33 q 263 -14 328 -14 q 140 8 190 -14 q 61 72 89 31 q 33 172 33 114 q 83 297 33 249 q 225 363 132 344 l 472 414 l 471 306 l 368 282 q 315 256 332 274 q 299 211 299 239 q 317 169 299 185 q 367 153 335 153 q 399 158 383 153 q 426 174 414 163 q 444 200 438 185 q 450 236 450 215 l 450 436 z "},"ẳ":{"ha":811,"x_min":33,"x_max":811,"o":"m 610 974 q 549 816 610 872 q 385 760 489 760 q 220 816 281 760 q 160 974 160 872 l 318 974 q 335 916 318 938 q 385 894 351 894 q 435 916 418 894 q 451 974 451 938 l 610 974 m 386 983 l 335 1056 q 385 1085 371 1069 q 400 1118 400 1101 q 390 1147 400 1136 q 360 1158 381 1158 q 330 1149 340 1158 q 313 1124 319 1140 l 200 1175 q 262 1259 215 1229 q 376 1289 308 1289 q 456 1273 418 1289 q 517 1226 493 1257 q 540 1150 540 1196 q 515 1065 540 1099 q 455 1013 490 1032 q 386 983 419 993 m 450 436 q 431 499 450 476 q 372 522 411 522 q 310 503 335 522 q 278 429 285 483 l 42 471 q 142 644 54 579 q 390 708 229 708 q 578 676 503 708 q 690 586 653 644 q 728 449 728 528 l 728 210 q 782 154 728 154 q 811 160 800 154 l 799 10 q 685 -12 751 -12 q 576 6 624 -12 q 503 60 529 24 q 476 154 476 97 l 476 168 l 507 168 q 469 74 503 114 q 381 10 435 33 q 263 -14 328 -14 q 140 8 190 -14 q 61 72 89 31 q 33 172 33 114 q 83 297 33 249 q 225 363 132 344 l 472 414 l 471 306 l 368 282 q 315 256 332 274 q 299 211 299 239 q 317 169 299 185 q 367 153 335 153 q 399 158 383 153 q 426 174 414 163 q 444 200 438 185 q 450 236 450 215 l 450 436 z "},"ẵ":{"ha":811,"x_min":33,"x_max":811,"o":"m 608 974 q 548 816 608 872 q 383 760 488 760 q 219 816 279 760 q 158 974 158 872 l 317 974 q 333 916 317 938 q 383 894 350 894 q 433 916 417 894 q 450 974 450 938 l 608 974 m 643 1218 q 592 1058 640 1110 q 482 1007 544 1007 q 420 1017 446 1007 q 375 1040 394 1026 q 340 1063 356 1053 q 306 1074 324 1074 q 275 1058 285 1074 q 261 1010 265 1043 l 125 1010 q 178 1169 129 1118 q 299 1221 228 1221 q 357 1210 333 1221 q 399 1187 381 1200 q 431 1164 417 1174 q 464 1154 446 1154 q 494 1169 483 1154 q 507 1218 504 1185 l 643 1218 m 450 436 q 431 499 450 476 q 372 522 411 522 q 310 503 335 522 q 278 429 285 483 l 42 471 q 142 644 54 579 q 390 708 229 708 q 578 676 503 708 q 690 586 653 644 q 728 449 728 528 l 728 210 q 782 154 728 154 q 811 160 800 154 l 799 10 q 685 -12 751 -12 q 576 6 624 -12 q 503 60 529 24 q 476 154 476 97 l 476 168 l 507 168 q 469 74 503 114 q 381 10 435 33 q 263 -14 328 -14 q 140 8 190 -14 q 61 72 89 31 q 33 172 33 114 q 83 297 33 249 q 225 363 132 344 l 472 414 l 471 306 l 368 282 q 315 256 332 274 q 299 211 299 239 q 317 169 299 185 q 367 153 335 153 q 399 158 383 153 q 426 174 414 163 q 444 200 438 185 q 450 236 450 215 l 450 436 z "},"â":{"ha":811,"x_min":33,"x_max":811,"o":"m 450 438 q 430 499 450 476 q 371 522 410 522 q 309 503 335 522 q 276 429 283 483 l 39 472 q 140 644 53 581 q 390 708 228 708 q 577 677 501 708 q 690 586 653 646 q 728 443 728 526 l 728 210 q 779 154 728 154 q 811 160 800 154 l 797 8 q 683 -14 751 -14 q 578 5 624 -14 q 506 60 532 24 q 479 154 479 96 l 479 165 l 507 169 q 473 72 507 114 q 384 8 439 31 q 263 -14 329 -14 q 139 8 190 -14 q 60 72 88 31 q 33 174 33 114 q 80 299 33 250 q 221 365 126 347 l 472 418 l 471 300 l 368 276 q 317 253 333 269 q 301 210 301 238 q 319 169 301 183 q 364 154 338 154 q 397 160 382 154 q 424 176 413 165 q 443 204 436 188 q 450 244 450 221 l 450 438 m 667 767 l 471 767 l 385 878 l 299 767 l 103 767 l 253 1011 l 517 1011 l 667 767 z "},"ấ":{"ha":811,"x_min":33,"x_max":896,"o":"m 643 767 l 464 767 l 385 869 l 304 767 l 126 767 l 264 992 l 504 992 l 643 767 m 676 1111 l 896 1111 l 783 906 l 603 906 l 676 1111 m 450 436 q 431 499 450 476 q 372 522 411 522 q 310 503 335 522 q 278 429 285 483 l 42 471 q 142 644 54 579 q 390 708 229 708 q 578 676 503 708 q 690 586 653 644 q 728 449 728 528 l 728 210 q 782 154 728 154 q 811 160 800 154 l 799 10 q 685 -12 751 -12 q 576 6 624 -12 q 503 60 529 24 q 476 154 476 97 l 476 168 l 507 168 q 469 74 503 114 q 381 10 435 33 q 263 -14 328 -14 q 140 8 190 -14 q 61 72 89 31 q 33 172 33 114 q 83 297 33 249 q 225 363 132 344 l 472 414 l 471 306 l 368 282 q 315 256 332 274 q 299 211 299 239 q 317 169 299 185 q 367 153 335 153 q 399 158 383 153 q 426 174 414 163 q 444 200 438 185 q 450 236 450 215 l 450 436 z "},"ậ":{"ha":811,"x_min":33,"x_max":811,"o":"m 450 438 q 430 499 450 476 q 371 522 410 522 q 309 503 335 522 q 276 429 283 483 l 39 472 q 140 644 53 581 q 390 708 228 708 q 577 677 501 708 q 690 586 653 646 q 728 443 728 526 l 728 210 q 779 154 728 154 q 811 160 800 154 l 797 8 q 683 -14 751 -14 q 578 5 624 -14 q 506 60 532 24 q 479 154 479 96 l 479 165 l 507 169 q 473 72 507 114 q 384 8 439 31 q 263 -14 329 -14 q 139 8 190 -14 q 60 72 88 31 q 33 174 33 114 q 80 299 33 250 q 221 365 126 347 l 472 418 l 471 300 l 368 276 q 317 253 333 269 q 301 210 301 238 q 319 169 301 183 q 364 154 338 154 q 397 160 382 154 q 424 176 413 165 q 443 204 436 188 q 450 244 450 221 l 450 438 m 393 -311 q 287 -281 322 -311 q 251 -189 251 -250 q 287 -99 251 -129 q 393 -68 322 -68 q 502 -99 465 -68 q 539 -189 539 -129 q 502 -281 539 -250 q 393 -311 465 -311 m 667 767 l 471 767 l 385 878 l 299 767 l 103 767 l 253 1011 l 517 1011 l 667 767 z "},"ầ":{"ha":811,"x_min":33,"x_max":811,"o":"m 643 767 l 464 767 l 385 869 l 304 767 l 126 767 l 264 992 l 504 992 l 643 767 m 733 1111 l 808 906 l 626 906 l 514 1111 l 733 1111 m 450 436 q 431 499 450 476 q 372 522 411 522 q 310 503 335 522 q 278 429 285 483 l 42 471 q 142 644 54 579 q 390 708 229 708 q 578 676 503 708 q 690 586 653 644 q 728 449 728 528 l 728 210 q 782 154 728 154 q 811 160 800 154 l 799 10 q 685 -12 751 -12 q 576 6 624 -12 q 503 60 529 24 q 476 154 476 97 l 476 168 l 507 168 q 469 74 503 114 q 381 10 435 33 q 263 -14 328 -14 q 140 8 190 -14 q 61 72 89 31 q 33 172 33 114 q 83 297 33 249 q 225 363 132 344 l 472 414 l 471 306 l 368 282 q 315 256 332 274 q 299 211 299 239 q 317 169 299 185 q 367 153 335 153 q 399 158 383 153 q 426 174 414 163 q 444 200 438 185 q 450 236 450 215 l 450 436 z "},"ẩ":{"ha":811,"x_min":33,"x_max":811,"o":"m 643 767 l 464 767 l 385 869 l 304 767 l 126 767 l 264 992 l 504 992 l 643 767 m 638 883 l 582 963 q 637 995 621 978 q 653 1031 653 1013 q 642 1060 653 1049 q 608 1072 631 1072 q 578 1063 589 1072 q 558 1036 567 1053 l 436 1092 q 503 1183 451 1150 q 626 1215 554 1215 q 713 1199 672 1215 q 780 1149 754 1182 q 806 1065 806 1115 q 778 974 806 1011 q 713 916 751 938 q 638 883 674 894 m 450 436 q 431 499 450 476 q 372 522 411 522 q 310 503 335 522 q 278 429 285 483 l 42 471 q 142 644 54 579 q 390 708 229 708 q 578 676 503 708 q 690 586 653 644 q 728 449 728 528 l 728 210 q 782 154 728 154 q 811 160 800 154 l 799 10 q 685 -12 751 -12 q 576 6 624 -12 q 503 60 529 24 q 476 154 476 97 l 476 168 l 507 168 q 469 74 503 114 q 381 10 435 33 q 263 -14 328 -14 q 140 8 190 -14 q 61 72 89 31 q 33 172 33 114 q 83 297 33 249 q 225 363 132 344 l 472 414 l 471 306 l 368 282 q 315 256 332 274 q 299 211 299 239 q 317 169 299 185 q 367 153 335 153 q 399 158 383 153 q 426 174 414 163 q 444 200 438 185 q 450 236 450 215 l 450 436 z "},"ẫ":{"ha":811,"x_min":33,"x_max":811,"o":"m 643 767 l 464 767 l 385 869 l 304 767 l 126 767 l 264 992 l 504 992 l 643 767 m 644 1233 q 593 1075 640 1126 q 483 1024 546 1024 q 422 1033 447 1024 q 376 1056 396 1043 q 340 1080 357 1069 q 306 1090 324 1090 q 276 1074 286 1090 q 263 1026 267 1058 l 126 1026 q 179 1185 131 1133 q 300 1236 228 1236 q 358 1226 333 1236 q 399 1203 382 1217 q 432 1179 417 1189 q 465 1169 447 1169 q 494 1185 485 1169 q 508 1233 504 1200 l 644 1233 m 450 436 q 431 499 450 476 q 372 522 411 522 q 310 503 335 522 q 278 429 285 483 l 42 471 q 142 644 54 579 q 390 708 229 708 q 578 676 503 708 q 690 586 653 644 q 728 449 728 528 l 728 210 q 782 154 728 154 q 811 160 800 154 l 799 10 q 685 -12 751 -12 q 576 6 624 -12 q 503 60 529 24 q 476 154 476 97 l 476 168 l 507 168 q 469 74 503 114 q 381 10 435 33 q 263 -14 328 -14 q 140 8 190 -14 q 61 72 89 31 q 33 172 33 114 q 83 297 33 249 q 225 363 132 344 l 472 414 l 471 306 l 368 282 q 315 256 332 274 q 299 211 299 239 q 317 169 299 185 q 367 153 335 153 q 399 158 383 153 q 426 174 414 163 q 444 200 438 185 q 450 236 450 215 l 450 436 z "},"ȁ":{"ha":811,"x_min":15,"x_max":811,"o":"m 450 438 q 430 499 450 476 q 371 522 410 522 q 309 503 335 522 q 276 429 283 483 l 39 472 q 140 644 53 581 q 390 708 228 708 q 577 677 501 708 q 690 586 653 646 q 728 443 728 526 l 728 210 q 779 154 728 154 q 811 160 800 154 l 797 8 q 683 -14 751 -14 q 578 5 624 -14 q 506 60 532 24 q 479 154 479 96 l 479 165 l 507 169 q 473 72 507 114 q 384 8 439 31 q 263 -14 329 -14 q 139 8 190 -14 q 60 72 88 31 q 33 174 33 114 q 80 299 33 250 q 221 365 126 347 l 472 418 l 471 300 l 368 276 q 317 253 333 269 q 301 210 301 238 q 319 169 301 183 q 364 154 338 154 q 397 160 382 154 q 424 176 413 165 q 443 204 436 188 q 450 244 450 221 l 450 438 m 336 776 l 146 776 l 15 1019 l 243 1019 l 336 776 m 649 776 l 458 776 l 328 1019 l 556 1019 l 649 776 z "},"ä":{"ha":811,"x_min":33,"x_max":811,"o":"m 450 438 q 430 499 450 476 q 371 522 410 522 q 309 503 335 522 q 276 429 283 483 l 39 472 q 140 644 53 581 q 390 708 228 708 q 577 677 501 708 q 690 586 653 646 q 728 443 728 526 l 728 210 q 779 154 728 154 q 811 160 800 154 l 797 8 q 683 -14 751 -14 q 578 5 624 -14 q 506 60 532 24 q 479 154 479 96 l 479 165 l 507 169 q 473 72 507 114 q 384 8 439 31 q 263 -14 329 -14 q 139 8 190 -14 q 60 72 88 31 q 33 174 33 114 q 80 299 33 250 q 221 365 126 347 l 472 418 l 471 300 l 368 276 q 317 253 333 269 q 301 210 301 238 q 319 169 301 183 q 364 154 338 154 q 397 160 382 154 q 424 176 413 165 q 443 204 436 188 q 450 244 450 221 l 450 438 m 224 994 q 322 964 288 994 q 357 876 357 933 q 322 790 357 821 q 224 758 288 758 q 128 790 163 758 q 94 876 94 821 q 128 964 94 933 q 224 994 163 994 m 542 994 q 640 964 606 994 q 675 876 675 933 q 640 790 675 821 q 542 758 606 758 q 447 790 481 758 q 413 876 413 821 q 447 964 413 933 q 542 994 481 994 z "},"ạ":{"ha":811,"x_min":33,"x_max":811,"o":"m 450 438 q 430 499 450 476 q 371 522 410 522 q 309 503 335 522 q 276 429 283 483 l 39 472 q 140 644 53 581 q 390 708 228 708 q 577 677 501 708 q 690 586 653 646 q 728 443 728 526 l 728 210 q 779 154 728 154 q 811 160 800 154 l 797 8 q 683 -14 751 -14 q 578 5 624 -14 q 506 60 532 24 q 479 154 479 96 l 479 165 l 507 169 q 473 72 507 114 q 384 8 439 31 q 263 -14 329 -14 q 139 8 190 -14 q 60 72 88 31 q 33 174 33 114 q 80 299 33 250 q 221 365 126 347 l 472 418 l 471 300 l 368 276 q 317 253 333 269 q 301 210 301 238 q 319 169 301 183 q 364 154 338 154 q 397 160 382 154 q 424 176 413 165 q 443 204 436 188 q 450 244 450 221 l 450 438 m 393 -311 q 287 -281 322 -311 q 251 -189 251 -250 q 287 -99 251 -129 q 393 -68 322 -68 q 502 -99 465 -68 q 539 -189 539 -129 q 502 -281 539 -250 q 393 -311 465 -311 z "},"à":{"ha":811,"x_min":33,"x_max":811,"o":"m 450 438 q 430 499 450 476 q 371 522 410 522 q 309 503 335 522 q 276 429 283 483 l 39 472 q 140 644 53 581 q 390 708 228 708 q 577 677 501 708 q 690 586 653 646 q 728 443 728 526 l 728 210 q 779 154 728 154 q 811 160 800 154 l 797 8 q 683 -14 751 -14 q 578 5 624 -14 q 506 60 532 24 q 479 154 479 96 l 479 165 l 507 169 q 473 72 507 114 q 384 8 439 31 q 263 -14 329 -14 q 139 8 190 -14 q 60 72 88 31 q 33 174 33 114 q 80 299 33 250 q 221 365 126 347 l 472 418 l 471 300 l 368 276 q 317 253 333 269 q 301 210 301 238 q 319 169 301 183 q 364 154 338 154 q 397 160 382 154 q 424 176 413 165 q 443 204 436 188 q 450 244 450 221 l 450 438 m 401 1019 l 489 776 l 289 776 l 147 1019 l 401 1019 z "},"ả":{"ha":811,"x_min":33,"x_max":811,"o":"m 450 438 q 430 499 450 476 q 371 522 410 522 q 309 503 335 522 q 276 429 283 483 l 39 472 q 140 644 53 581 q 390 708 228 708 q 577 677 501 708 q 690 586 653 646 q 728 443 728 526 l 728 210 q 779 154 728 154 q 811 160 800 154 l 797 8 q 683 -14 751 -14 q 578 5 624 -14 q 506 60 532 24 q 479 154 479 96 l 479 165 l 507 169 q 473 72 507 114 q 384 8 439 31 q 263 -14 329 -14 q 139 8 190 -14 q 60 72 88 31 q 33 174 33 114 q 80 299 33 250 q 221 365 126 347 l 472 418 l 471 300 l 368 276 q 317 253 333 269 q 301 210 301 238 q 319 169 301 183 q 364 154 338 154 q 397 160 382 154 q 424 176 413 165 q 443 204 436 188 q 450 244 450 221 l 450 438 m 382 753 l 326 832 q 383 866 367 849 q 399 901 399 883 q 388 932 399 919 q 354 944 376 944 q 324 934 335 944 q 304 906 313 924 l 181 961 q 249 1054 197 1022 q 372 1086 300 1086 q 459 1069 418 1086 q 526 1019 500 1053 q 551 936 551 986 q 524 844 551 881 q 458 785 497 807 q 382 753 418 764 z "},"ȃ":{"ha":811,"x_min":33,"x_max":811,"o":"m 450 438 q 430 499 450 476 q 371 522 410 522 q 309 503 335 522 q 276 429 283 483 l 39 472 q 140 644 53 581 q 390 708 228 708 q 577 677 501 708 q 690 586 653 646 q 728 443 728 526 l 728 210 q 779 154 728 154 q 811 160 800 154 l 797 8 q 683 -14 751 -14 q 578 5 624 -14 q 506 60 532 24 q 479 154 479 96 l 479 165 l 507 169 q 473 72 507 114 q 384 8 439 31 q 263 -14 329 -14 q 139 8 190 -14 q 60 72 88 31 q 33 174 33 114 q 80 299 33 250 q 221 365 126 347 l 472 418 l 471 300 l 368 276 q 317 253 333 269 q 301 210 301 238 q 319 169 301 183 q 364 154 338 154 q 397 160 382 154 q 424 176 413 165 q 443 204 436 188 q 450 244 450 221 l 450 438 m 629 760 l 456 760 q 438 822 456 799 q 385 844 421 844 q 332 822 350 844 q 314 760 314 799 l 140 760 q 206 932 140 871 q 385 993 272 993 q 564 932 499 993 q 629 760 629 871 z "},"ā":{"ha":811,"x_min":33,"x_max":811,"o":"m 450 438 q 430 499 450 476 q 371 522 410 522 q 309 503 335 522 q 276 429 283 483 l 39 472 q 140 644 53 581 q 390 708 228 708 q 577 677 501 708 q 690 586 653 646 q 728 443 728 526 l 728 210 q 779 154 728 154 q 811 160 800 154 l 797 8 q 683 -14 751 -14 q 578 5 624 -14 q 506 60 532 24 q 479 154 479 96 l 479 165 l 507 169 q 473 72 507 114 q 384 8 439 31 q 263 -14 329 -14 q 139 8 190 -14 q 60 72 88 31 q 33 174 33 114 q 80 299 33 250 q 221 365 126 347 l 472 418 l 471 300 l 368 276 q 317 253 333 269 q 301 210 301 238 q 319 169 301 183 q 364 154 338 154 q 397 160 382 154 q 424 176 413 165 q 443 204 436 188 q 450 244 450 221 l 450 438 m 646 942 l 646 776 l 124 776 l 124 942 l 646 942 z "},"ą":{"ha":811,"x_min":33,"x_max":811,"o":"m 667 -304 q 575 -287 619 -304 q 503 -234 531 -269 q 476 -143 476 -199 q 540 -17 476 -62 q 708 42 603 29 l 799 10 q 709 -30 739 -11 q 669 -65 679 -49 q 658 -100 658 -82 q 674 -138 658 -124 q 719 -153 690 -153 q 750 -150 733 -153 q 776 -140 767 -147 l 801 -276 q 743 -297 776 -290 q 667 -304 710 -304 m 450 436 q 431 499 450 476 q 372 522 411 522 q 310 503 335 522 q 278 429 285 483 l 42 471 q 142 644 54 579 q 390 708 229 708 q 578 676 503 708 q 690 586 653 644 q 728 449 728 528 l 728 210 q 782 154 728 154 q 811 160 800 154 l 799 10 q 685 -12 751 -12 q 576 6 624 -12 q 503 60 529 24 q 476 154 476 97 l 476 168 l 507 168 q 469 74 503 114 q 381 10 435 33 q 263 -14 328 -14 q 140 8 190 -14 q 61 72 89 31 q 33 172 33 114 q 83 297 33 249 q 225 363 132 344 l 472 414 l 471 306 l 368 282 q 315 256 332 274 q 299 211 299 239 q 317 169 299 185 q 367 153 335 153 q 399 158 383 153 q 426 174 414 163 q 444 200 438 185 q 450 236 450 215 l 450 436 z "},"å":{"ha":811,"x_min":33,"x_max":811,"o":"m 450 438 q 430 499 450 476 q 371 522 410 522 q 309 503 335 522 q 276 429 283 483 l 39 472 q 140 644 53 581 q 390 708 228 708 q 577 677 501 708 q 690 586 653 646 q 728 443 728 526 l 728 210 q 779 154 728 154 q 811 160 800 154 l 797 8 q 683 -14 751 -14 q 578 5 624 -14 q 506 60 532 24 q 479 154 479 96 l 479 165 l 507 169 q 473 72 507 114 q 384 8 439 31 q 263 -14 329 -14 q 139 8 190 -14 q 60 72 88 31 q 33 174 33 114 q 80 299 33 250 q 221 365 126 347 l 472 418 l 471 300 l 368 276 q 317 253 333 269 q 301 210 301 238 q 319 169 301 183 q 364 154 338 154 q 397 160 382 154 q 424 176 413 165 q 443 204 436 188 q 450 244 450 221 l 450 438 m 383 1110 q 530 1061 475 1110 q 585 931 585 1013 q 530 801 585 850 q 383 753 475 753 q 238 801 293 753 q 183 931 183 850 q 238 1061 183 1013 q 383 1110 293 1110 m 385 996 q 336 978 354 996 q 318 932 318 961 q 336 884 318 901 q 385 867 354 867 q 432 884 414 867 q 450 932 450 901 q 432 978 450 961 q 385 996 414 996 z "},"ǻ":{"ha":811,"x_min":33,"x_max":811,"o":"m 450 438 q 430 499 450 476 q 371 522 410 522 q 309 503 335 522 q 276 429 283 483 l 39 472 q 140 644 53 581 q 390 708 228 708 q 577 677 501 708 q 690 586 653 646 q 728 443 728 526 l 728 210 q 779 154 728 154 q 811 160 800 154 l 797 8 q 683 -14 751 -14 q 578 5 624 -14 q 506 60 532 24 q 479 154 479 96 l 479 165 l 507 169 q 473 72 507 114 q 384 8 439 31 q 263 -14 329 -14 q 139 8 190 -14 q 60 72 88 31 q 33 174 33 114 q 80 299 33 250 q 221 365 126 347 l 472 418 l 471 300 l 368 276 q 317 253 333 269 q 301 210 301 238 q 319 169 301 183 q 364 154 338 154 q 397 160 382 154 q 424 176 413 165 q 443 204 436 188 q 450 244 450 221 l 450 438 m 383 1110 q 530 1061 475 1110 q 585 931 585 1013 q 530 801 585 850 q 383 753 475 753 q 238 801 293 753 q 183 931 183 850 q 238 1061 183 1013 q 383 1110 293 1110 m 385 996 q 336 978 354 996 q 318 932 318 961 q 336 884 318 901 q 385 867 354 867 q 432 884 414 867 q 450 932 450 901 q 432 978 450 961 q 385 996 414 996 m 289 1156 l 367 1378 l 610 1378 l 489 1156 l 289 1156 z "},"ã":{"ha":811,"x_min":33,"x_max":811,"o":"m 450 438 q 430 499 450 476 q 371 522 410 522 q 309 503 335 522 q 276 429 283 483 l 39 472 q 140 644 53 581 q 390 708 228 708 q 577 677 501 708 q 690 586 653 646 q 728 443 728 526 l 728 210 q 779 154 728 154 q 811 160 800 154 l 797 8 q 683 -14 751 -14 q 578 5 624 -14 q 506 60 532 24 q 479 154 479 96 l 479 165 l 507 169 q 473 72 507 114 q 384 8 439 31 q 263 -14 329 -14 q 139 8 190 -14 q 60 72 88 31 q 33 174 33 114 q 80 299 33 250 q 221 365 126 347 l 472 418 l 471 300 l 368 276 q 317 253 333 269 q 301 210 301 238 q 319 169 301 183 q 364 154 338 154 q 397 160 382 154 q 424 176 413 165 q 443 204 436 188 q 450 244 450 221 l 450 438 m 668 999 q 642 867 667 919 q 577 790 617 815 q 492 764 538 764 q 424 776 453 764 q 374 802 396 788 q 335 828 353 817 q 297 839 317 839 q 265 822 276 839 q 250 767 254 804 l 100 767 q 158 942 104 885 q 290 1000 211 1000 q 354 989 328 1000 q 399 963 381 978 q 435 938 418 949 q 472 926 453 926 q 505 944 494 926 q 519 999 515 961 l 668 999 z "},"æ":{"ha":1214,"x_min":32,"x_max":1179,"o":"m 281 -14 q 144 8 200 -14 q 60 74 89 31 q 32 178 32 117 q 83 301 32 253 q 222 367 133 349 l 450 413 l 450 433 q 429 499 450 476 q 368 522 408 522 q 310 503 335 522 q 276 429 285 483 l 39 472 q 89 592 47 539 q 202 676 131 644 q 369 708 274 708 q 556 670 482 708 q 656 557 629 632 l 565 550 q 635 636 593 601 q 729 690 676 671 q 844 708 782 708 q 1028 666 954 708 q 1141 548 1103 624 q 1179 374 1179 472 q 1177 328 1179 351 q 1172 288 1175 304 l 719 288 l 719 288 q 761 202 724 228 q 849 176 799 176 q 910 195 890 176 q 940 246 929 214 l 1167 181 q 1102 72 1149 115 q 991 8 1056 29 q 851 -14 926 -14 q 644 44 725 -14 q 538 214 564 103 l 593 200 q 560 117 583 156 q 500 49 538 79 q 408 3 463 19 q 281 -14 354 -14 m 364 154 q 396 159 381 154 q 424 176 411 164 q 443 206 436 189 q 450 247 450 224 l 450 297 l 368 278 q 317 255 333 269 q 301 208 301 240 q 318 169 301 185 q 364 154 335 154 m 719 408 l 915 408 q 902 469 913 444 q 872 506 892 493 q 824 518 853 518 q 753 492 779 518 q 719 408 728 467 z "},"ǽ":{"ha":1215,"x_min":32,"x_max":1179,"o":"m 281 -14 q 144 8 200 -14 q 60 74 89 31 q 32 178 32 117 q 83 301 32 253 q 222 367 133 349 l 450 413 l 450 433 q 429 499 450 476 q 368 522 408 522 q 310 503 335 522 q 276 429 285 483 l 39 472 q 89 592 47 539 q 202 676 131 644 q 369 708 274 708 q 556 670 482 708 q 656 557 629 632 l 565 550 q 635 636 593 601 q 729 690 676 671 q 844 708 782 708 q 1028 666 954 708 q 1141 548 1103 624 q 1179 374 1179 472 q 1177 328 1179 351 q 1172 288 1175 304 l 719 288 l 719 288 q 761 202 724 228 q 849 176 799 176 q 910 195 890 176 q 940 246 929 214 l 1167 181 q 1102 72 1149 115 q 991 8 1056 29 q 851 -14 926 -14 q 644 44 725 -14 q 538 214 564 103 l 593 200 q 560 117 583 156 q 500 49 538 79 q 408 3 463 19 q 281 -14 354 -14 m 364 154 q 396 159 381 154 q 424 176 411 164 q 443 206 436 189 q 450 247 450 224 l 450 297 l 368 278 q 317 255 333 269 q 301 208 301 240 q 318 169 301 185 q 364 154 335 154 m 719 408 l 915 408 q 902 469 913 444 q 872 506 892 493 q 824 518 853 518 q 753 492 779 518 q 719 408 728 467 m 558 1019 l 813 1019 l 669 776 l 471 776 l 558 1019 z "},"b":{"ha":871,"x_min":68,"x_max":826,"o":"m 551 -14 q 428 20 481 -14 q 343 113 375 54 q 304 247 311 172 l 329 281 l 314 0 l 68 0 l 68 981 l 349 981 l 349 454 l 324 492 q 398 647 340 585 q 563 708 456 708 q 701 665 642 708 q 794 541 761 622 q 826 344 826 460 q 794 151 826 232 q 699 28 761 71 q 551 -14 638 -14 m 444 186 q 518 222 492 186 q 544 347 544 258 q 518 472 544 436 q 444 507 492 507 q 392 488 414 507 q 360 433 371 469 q 349 347 349 397 q 360 258 349 293 q 394 204 372 222 q 444 186 415 186 z "},"c":{"ha":790,"x_min":38,"x_max":765,"o":"m 414 708 q 606 676 531 708 q 721 591 682 643 q 765 482 760 539 l 506 403 q 483 488 501 460 q 424 515 464 515 q 365 499 389 515 q 331 444 342 482 q 319 344 319 407 q 333 244 319 281 q 370 194 346 208 q 425 179 394 179 q 470 191 453 179 q 499 226 488 203 q 513 281 510 249 l 764 201 q 716 93 758 142 q 600 15 674 44 q 426 -14 526 -14 q 219 28 307 -14 q 85 151 132 71 q 38 347 38 232 q 85 543 38 463 q 217 666 132 624 q 414 708 301 708 z "},"ć":{"ha":790,"x_min":38,"x_max":765,"o":"m 414 708 q 606 676 531 708 q 721 591 682 643 q 765 482 760 539 l 506 403 q 483 488 501 460 q 424 515 464 515 q 365 499 389 515 q 331 444 342 482 q 319 344 319 407 q 333 244 319 281 q 370 194 346 208 q 425 179 394 179 q 470 191 453 179 q 499 226 488 203 q 513 281 510 249 l 764 201 q 716 93 758 142 q 600 15 674 44 q 426 -14 526 -14 q 219 28 307 -14 q 85 151 132 71 q 38 347 38 232 q 85 543 38 463 q 217 666 132 624 q 414 708 301 708 m 379 1019 l 633 1019 l 490 776 l 292 776 l 379 1019 z "},"č":{"ha":790,"x_min":38,"x_max":765,"o":"m 414 708 q 606 676 531 708 q 721 591 682 643 q 765 482 760 539 l 506 403 q 483 488 501 460 q 424 515 464 515 q 365 499 389 515 q 331 444 342 482 q 319 344 319 407 q 333 244 319 281 q 370 194 346 208 q 425 179 394 179 q 470 191 453 179 q 499 226 488 203 q 513 281 510 249 l 764 201 q 716 93 758 142 q 600 15 674 44 q 426 -14 526 -14 q 219 28 307 -14 q 85 151 132 71 q 38 347 38 232 q 85 543 38 463 q 217 666 132 624 q 414 708 301 708 m 686 1019 l 538 776 l 272 776 l 122 1019 l 318 1019 l 404 910 l 492 1019 l 686 1019 z "},"ç":{"ha":790,"x_min":38,"x_max":765,"o":"m 414 708 q 606 676 531 708 q 721 591 682 643 q 765 482 760 539 l 506 403 q 483 488 501 460 q 424 515 464 515 q 365 499 389 515 q 331 444 342 482 q 319 344 319 407 q 333 244 319 281 q 370 194 346 208 q 425 179 394 179 q 470 191 453 179 q 499 226 488 203 q 513 281 510 249 l 764 201 q 716 93 758 142 q 600 15 674 44 q 426 -14 526 -14 q 219 28 307 -14 q 85 151 132 71 q 38 347 38 232 q 85 543 38 463 q 217 666 132 624 q 414 708 301 708 m 297 17 l 353 56 q 530 0 472 43 q 588 -121 588 -43 q 533 -251 588 -203 q 382 -299 479 -299 q 293 -286 325 -299 q 236 -258 261 -274 l 278 -133 q 313 -151 294 -144 q 358 -157 332 -157 q 415 -137 393 -157 q 436 -85 436 -118 q 406 -30 436 -54 q 297 17 376 -6 z "},"ḉ":{"ha":790,"x_min":38,"x_max":765,"o":"m 414 708 q 606 676 531 708 q 721 591 682 643 q 765 482 760 539 l 506 403 q 483 488 501 460 q 424 515 464 515 q 365 499 389 515 q 331 444 342 482 q 319 344 319 407 q 333 244 319 281 q 370 194 346 208 q 425 179 394 179 q 470 191 453 179 q 499 226 488 203 q 513 281 510 249 l 764 201 q 716 93 758 142 q 600 15 674 44 q 426 -14 526 -14 q 219 28 307 -14 q 85 151 132 71 q 38 347 38 232 q 85 543 38 463 q 217 666 132 624 q 414 708 301 708 m 297 17 l 353 56 q 530 0 472 43 q 588 -121 588 -43 q 533 -251 588 -203 q 382 -299 479 -299 q 293 -286 325 -299 q 236 -258 261 -274 l 278 -133 q 313 -151 294 -144 q 358 -157 332 -157 q 415 -137 393 -157 q 436 -85 436 -118 q 406 -30 436 -54 q 297 17 376 -6 m 379 1019 l 633 1019 l 490 776 l 292 776 l 379 1019 z "},"ĉ":{"ha":790,"x_min":38,"x_max":765,"o":"m 414 708 q 606 676 531 708 q 721 591 682 643 q 765 482 760 539 l 506 403 q 483 488 501 460 q 424 515 464 515 q 365 499 389 515 q 331 444 342 482 q 319 344 319 407 q 333 244 319 281 q 370 194 346 208 q 425 179 394 179 q 470 191 453 179 q 499 226 488 203 q 513 281 510 249 l 764 201 q 716 93 758 142 q 600 15 674 44 q 426 -14 526 -14 q 219 28 307 -14 q 85 151 132 71 q 38 347 38 232 q 85 543 38 463 q 217 666 132 624 q 414 708 301 708 m 693 767 l 497 767 l 411 878 l 325 767 l 129 767 l 279 1011 l 543 1011 l 693 767 z "},"ċ":{"ha":790,"x_min":38,"x_max":765,"o":"m 414 708 q 606 676 531 708 q 721 591 682 643 q 765 482 760 539 l 506 403 q 483 488 501 460 q 424 515 464 515 q 365 499 389 515 q 331 444 342 482 q 319 344 319 407 q 333 244 319 281 q 370 194 346 208 q 425 179 394 179 q 470 191 453 179 q 499 226 488 203 q 513 281 510 249 l 764 201 q 716 93 758 142 q 600 15 674 44 q 426 -14 526 -14 q 219 28 307 -14 q 85 151 132 71 q 38 347 38 232 q 85 543 38 463 q 217 666 132 624 q 414 708 301 708 m 411 1006 q 520 975 483 1006 q 557 883 557 944 q 520 793 557 824 q 411 763 483 763 q 305 793 340 763 q 269 883 269 824 q 305 975 269 944 q 411 1006 340 1006 z "},"d":{"ha":871,"x_min":44,"x_max":803,"o":"m 318 -14 q 172 28 233 -14 q 77 151 110 71 q 44 344 44 232 q 78 541 44 460 q 174 665 111 622 q 322 708 238 708 q 476 647 421 708 q 547 489 532 585 l 522 454 l 522 981 l 803 981 l 803 0 l 550 0 l 533 260 l 565 228 q 524 102 557 157 q 440 17 492 47 q 318 -14 388 -14 m 426 186 q 478 204 457 186 q 510 258 499 222 q 522 349 522 294 q 512 435 522 400 q 480 489 501 471 q 426 507 458 507 q 353 472 381 507 q 326 347 326 436 q 353 222 326 258 q 426 186 379 186 z "},"ð":{"ha":831,"x_min":47,"x_max":797,"o":"m 414 -14 q 216 28 299 -14 q 90 149 133 69 q 47 340 47 228 q 90 531 47 453 q 207 651 132 610 q 379 693 282 693 q 531 645 479 693 q 597 519 582 597 l 586 514 q 551 665 578 600 q 481 785 525 731 q 374 891 438 839 q 229 999 311 943 l 467 999 q 578 922 522 971 q 682 803 635 874 q 758 638 729 732 q 788 428 788 544 q 739 184 788 282 q 606 36 690 86 q 414 -14 522 -14 m 424 179 q 482 196 460 179 q 515 249 504 213 q 525 340 525 285 q 515 443 525 404 q 483 499 504 482 q 425 517 461 517 q 371 499 392 517 q 340 443 350 482 q 329 340 329 404 q 351 217 329 254 q 424 179 374 179 m 260 751 l 244 836 l 478 878 l 511 800 l 260 751 m 578 813 l 551 889 l 779 932 l 797 851 l 578 813 z "},"ď":{"ha":1001,"x_min":44,"x_max":1090,"o":"m 1090 981 l 1011 628 l 854 628 l 885 981 l 1090 981 m 318 -14 q 172 28 233 -14 q 77 151 110 71 q 44 344 44 232 q 78 541 44 460 q 174 665 111 622 q 322 708 238 708 q 476 647 421 708 q 547 489 532 585 l 522 454 l 522 981 l 803 981 l 803 0 l 550 0 l 533 260 l 565 228 q 524 102 557 157 q 440 17 492 47 q 318 -14 388 -14 m 426 186 q 478 204 457 186 q 510 258 499 222 q 522 349 522 294 q 512 435 522 400 q 480 489 501 471 q 426 507 458 507 q 353 472 381 507 q 326 347 326 436 q 353 222 326 258 q 426 186 379 186 z "},"đ":{"ha":871,"x_min":44,"x_max":910,"o":"m 356 733 l 356 886 l 910 886 l 910 733 l 356 733 m 318 -14 q 172 28 233 -14 q 77 151 110 71 q 44 344 44 232 q 78 541 44 460 q 174 665 111 622 q 322 708 238 708 q 476 647 421 708 q 547 489 532 585 l 522 454 l 522 981 l 803 981 l 803 0 l 550 0 l 533 260 l 565 228 q 524 102 557 157 q 440 17 492 47 q 318 -14 388 -14 m 426 186 q 478 204 457 186 q 510 258 499 222 q 522 349 522 294 q 512 435 522 400 q 480 489 501 471 q 426 507 458 507 q 353 472 381 507 q 326 347 326 436 q 353 222 326 258 q 426 186 379 186 z "},"ḍ":{"ha":871,"x_min":44,"x_max":803,"o":"m 318 -14 q 172 28 233 -14 q 77 151 110 71 q 44 344 44 232 q 78 541 44 460 q 174 665 111 622 q 322 708 238 708 q 476 647 421 708 q 547 489 532 585 l 522 454 l 522 981 l 803 981 l 803 0 l 550 0 l 533 260 l 565 228 q 524 102 557 157 q 440 17 492 47 q 318 -14 388 -14 m 426 186 q 478 204 457 186 q 510 258 499 222 q 522 349 522 294 q 512 435 522 400 q 480 489 501 471 q 426 507 458 507 q 353 472 381 507 q 326 347 326 436 q 353 222 326 258 q 426 186 379 186 m 429 -311 q 323 -281 358 -311 q 288 -189 288 -250 q 323 -99 288 -129 q 429 -68 358 -68 q 538 -99 501 -68 q 575 -189 575 -129 q 538 -281 575 -250 q 429 -311 501 -311 z "},"ḏ":{"ha":871,"x_min":44,"x_max":803,"o":"m 318 -14 q 172 28 233 -14 q 77 151 110 71 q 44 344 44 232 q 78 541 44 460 q 174 665 111 622 q 322 708 238 708 q 476 647 421 708 q 547 489 532 585 l 522 454 l 522 981 l 803 981 l 803 0 l 550 0 l 533 260 l 565 228 q 524 102 557 157 q 440 17 492 47 q 318 -14 388 -14 m 426 186 q 478 204 457 186 q 510 258 499 222 q 522 349 522 294 q 512 435 522 400 q 480 489 501 471 q 426 507 458 507 q 353 472 381 507 q 326 347 326 436 q 353 222 326 258 q 426 186 379 186 m 690 -82 l 690 -247 l 168 -247 l 168 -82 l 690 -82 z "},"ǳ":{"ha":1579,"x_min":44,"x_max":1546,"o":"m 318 -14 q 172 28 233 -14 q 77 151 110 71 q 44 344 44 232 q 78 541 44 460 q 174 665 111 622 q 322 708 238 708 q 476 647 421 708 q 547 489 532 585 l 522 454 l 522 981 l 803 981 l 803 0 l 550 0 l 533 260 l 565 228 q 524 102 557 157 q 440 17 492 47 q 318 -14 388 -14 m 426 186 q 478 204 457 186 q 510 258 499 222 q 522 349 522 294 q 512 435 522 400 q 480 489 501 471 q 426 507 458 507 q 353 472 381 507 q 326 347 326 436 q 353 222 326 258 q 426 186 379 186 m 910 0 l 910 165 l 1154 439 l 1222 507 l 1118 504 l 910 504 l 910 694 l 1533 694 l 1533 529 l 1292 258 l 1221 188 l 1339 190 l 1546 190 l 1546 0 l 910 0 z "},"ǆ":{"ha":1579,"x_min":44,"x_max":1546,"o":"m 318 -14 q 172 28 233 -14 q 77 151 110 71 q 44 344 44 232 q 78 541 44 460 q 174 665 111 622 q 322 708 238 708 q 476 647 421 708 q 547 489 532 585 l 522 454 l 522 981 l 803 981 l 803 0 l 550 0 l 533 260 l 565 228 q 524 102 557 157 q 440 17 492 47 q 318 -14 388 -14 m 426 186 q 478 204 457 186 q 510 258 499 222 q 522 349 522 294 q 512 435 522 400 q 480 489 501 471 q 426 507 458 507 q 353 472 381 507 q 326 347 326 436 q 353 222 326 258 q 426 186 379 186 m 910 0 l 910 165 l 1154 439 l 1222 507 l 1118 504 l 910 504 l 910 694 l 1533 694 l 1533 529 l 1292 258 l 1221 188 l 1339 190 l 1546 190 l 1546 0 l 910 0 m 1494 1019 l 1346 776 l 1081 776 l 931 1019 l 1126 1019 l 1213 910 l 1300 1019 l 1494 1019 z "},"e":{"ha":806,"x_min":38,"x_max":771,"o":"m 424 -14 q 217 28 304 -14 q 84 151 131 71 q 38 347 38 232 q 85 543 38 463 q 217 666 132 624 q 413 708 301 708 q 606 666 526 708 q 728 549 686 624 q 771 374 771 474 q 769 326 771 350 q 764 286 767 303 l 218 286 l 218 408 l 642 408 l 508 357 q 487 477 508 436 q 413 518 465 518 q 352 501 376 518 q 316 446 328 485 q 304 343 304 407 q 319 242 304 279 q 360 192 333 206 q 426 178 386 178 q 496 196 471 178 q 532 246 521 214 l 757 179 q 690 72 740 115 q 569 8 639 29 q 424 -14 500 -14 z "},"é":{"ha":804,"x_min":38,"x_max":771,"o":"m 424 -14 q 217 28 304 -14 q 84 151 131 71 q 38 347 38 232 q 85 543 38 463 q 217 666 132 624 q 413 708 301 708 q 606 666 526 708 q 728 549 686 624 q 771 374 771 474 q 769 326 771 350 q 764 286 767 303 l 218 286 l 218 408 l 642 408 l 508 357 q 487 477 508 436 q 413 518 465 518 q 352 501 376 518 q 316 446 328 485 q 304 343 304 407 q 319 242 304 279 q 360 192 333 206 q 426 178 386 178 q 496 196 471 178 q 532 246 521 214 l 757 179 q 690 72 740 115 q 569 8 639 29 q 424 -14 500 -14 m 378 1019 l 632 1019 l 489 776 l 290 776 l 378 1019 z "},"ĕ":{"ha":804,"x_min":38,"x_max":771,"o":"m 424 -14 q 217 28 304 -14 q 84 151 131 71 q 38 347 38 232 q 85 543 38 463 q 217 666 132 624 q 413 708 301 708 q 606 666 526 708 q 728 549 686 624 q 771 374 771 474 q 769 326 771 350 q 764 286 767 303 l 218 286 l 218 408 l 642 408 l 508 357 q 487 477 508 436 q 413 518 465 518 q 352 501 376 518 q 316 446 328 485 q 304 343 304 407 q 319 242 304 279 q 360 192 333 206 q 426 178 386 178 q 496 196 471 178 q 532 246 521 214 l 757 179 q 690 72 740 115 q 569 8 639 29 q 424 -14 500 -14 m 654 993 q 589 822 654 883 q 410 760 524 760 q 231 822 297 760 q 165 993 165 883 l 339 993 q 357 931 339 954 q 410 908 375 908 q 463 931 446 908 q 481 993 481 954 l 654 993 z "},"ě":{"ha":804,"x_min":38,"x_max":771,"o":"m 424 -14 q 217 28 304 -14 q 84 151 131 71 q 38 347 38 232 q 85 543 38 463 q 217 666 132 624 q 413 708 301 708 q 606 666 526 708 q 728 549 686 624 q 771 374 771 474 q 769 326 771 350 q 764 286 767 303 l 218 286 l 218 408 l 642 408 l 508 357 q 487 477 508 436 q 413 518 465 518 q 352 501 376 518 q 316 446 328 485 q 304 343 304 407 q 319 242 304 279 q 360 192 333 206 q 426 178 386 178 q 496 196 471 178 q 532 246 521 214 l 757 179 q 690 72 740 115 q 569 8 639 29 q 424 -14 500 -14 m 685 1019 l 536 776 l 271 776 l 121 1019 l 317 1019 l 403 910 l 490 1019 l 685 1019 z "},"ḝ":{"ha":804,"x_min":38,"x_max":771,"o":"m 424 -14 q 217 28 304 -14 q 84 151 131 71 q 38 347 38 232 q 85 543 38 463 q 217 666 132 624 q 413 708 301 708 q 606 666 526 708 q 728 549 686 624 q 771 374 771 474 q 769 326 771 350 q 764 286 767 303 l 218 286 l 218 408 l 642 408 l 508 357 q 487 477 508 436 q 413 518 465 518 q 352 501 376 518 q 316 446 328 485 q 304 343 304 407 q 319 242 304 279 q 360 192 333 206 q 426 178 386 178 q 496 196 471 178 q 532 246 521 214 l 757 179 q 690 72 740 115 q 569 8 639 29 q 424 -14 500 -14 m 299 17 l 354 56 q 531 0 474 43 q 589 -121 589 -43 q 535 -251 589 -203 q 383 -299 481 -299 q 294 -286 326 -299 q 238 -258 263 -274 l 279 -133 q 315 -151 296 -144 q 360 -157 333 -157 q 416 -137 394 -157 q 438 -85 438 -118 q 408 -30 438 -54 q 299 17 378 -6 m 654 993 q 589 822 654 883 q 410 760 524 760 q 231 822 297 760 q 165 993 165 883 l 339 993 q 357 931 339 954 q 410 908 375 908 q 463 931 446 908 q 481 993 481 954 l 654 993 z "},"ê":{"ha":804,"x_min":38,"x_max":771,"o":"m 424 -14 q 217 28 304 -14 q 84 151 131 71 q 38 347 38 232 q 85 543 38 463 q 217 666 132 624 q 413 708 301 708 q 606 666 526 708 q 728 549 686 624 q 771 374 771 474 q 769 326 771 350 q 764 286 767 303 l 218 286 l 218 408 l 642 408 l 508 357 q 487 477 508 436 q 413 518 465 518 q 352 501 376 518 q 316 446 328 485 q 304 343 304 407 q 319 242 304 279 q 360 192 333 206 q 426 178 386 178 q 496 196 471 178 q 532 246 521 214 l 757 179 q 690 72 740 115 q 569 8 639 29 q 424 -14 500 -14 m 692 767 l 496 767 l 410 878 l 324 767 l 128 767 l 278 1011 l 542 1011 l 692 767 z "},"ế":{"ha":804,"x_min":38,"x_max":921,"o":"m 703 1111 l 921 1111 l 808 906 l 628 906 l 703 1111 m 668 767 l 490 767 l 410 869 l 331 767 l 151 767 l 290 992 l 531 992 l 668 767 m 424 -14 q 217 28 304 -14 q 84 151 131 71 q 38 347 38 232 q 85 543 38 463 q 217 666 132 624 q 413 708 301 708 q 606 666 526 708 q 728 548 686 624 q 771 374 771 472 q 769 328 771 351 q 764 292 767 306 l 218 292 l 218 406 l 642 406 l 508 356 q 487 476 508 435 q 413 518 465 518 q 352 501 376 518 q 316 446 328 485 q 304 343 304 407 q 318 242 304 279 q 359 192 332 206 q 426 178 386 178 q 496 196 471 178 q 532 246 521 214 l 757 179 q 690 72 740 115 q 569 8 639 29 q 424 -14 500 -14 z "},"ệ":{"ha":804,"x_min":38,"x_max":771,"o":"m 424 -14 q 217 28 304 -14 q 84 151 131 71 q 38 347 38 232 q 85 543 38 463 q 217 666 132 624 q 413 708 301 708 q 606 666 526 708 q 728 549 686 624 q 771 374 771 474 q 769 326 771 350 q 764 286 767 303 l 218 286 l 218 408 l 642 408 l 508 357 q 487 477 508 436 q 413 518 465 518 q 352 501 376 518 q 316 446 328 485 q 304 343 304 407 q 319 242 304 279 q 360 192 333 206 q 426 178 386 178 q 496 196 471 178 q 532 246 521 214 l 757 179 q 690 72 740 115 q 569 8 639 29 q 424 -14 500 -14 m 413 -311 q 306 -281 342 -311 q 271 -189 271 -250 q 306 -99 271 -129 q 413 -68 342 -68 q 522 -99 485 -68 q 558 -189 558 -129 q 522 -281 558 -250 q 413 -311 485 -311 m 692 767 l 496 767 l 410 878 l 324 767 l 128 767 l 278 1011 l 542 1011 l 692 767 z "},"ề":{"ha":804,"x_min":38,"x_max":833,"o":"m 758 1111 l 833 906 l 653 906 l 540 1111 l 758 1111 m 668 767 l 490 767 l 410 869 l 331 767 l 151 767 l 290 992 l 531 992 l 668 767 m 424 -14 q 217 28 304 -14 q 84 151 131 71 q 38 347 38 232 q 85 543 38 463 q 217 666 132 624 q 413 708 301 708 q 606 666 526 708 q 728 548 686 624 q 771 374 771 472 q 769 328 771 351 q 764 292 767 306 l 218 292 l 218 406 l 642 406 l 508 356 q 487 476 508 435 q 413 518 465 518 q 352 501 376 518 q 316 446 328 485 q 304 343 304 407 q 318 242 304 279 q 359 192 332 206 q 426 178 386 178 q 496 196 471 178 q 532 246 521 214 l 757 179 q 690 72 740 115 q 569 8 639 29 q 424 -14 500 -14 z "},"ể":{"ha":804,"x_min":38,"x_max":831,"o":"m 663 883 l 607 963 q 663 995 647 978 q 678 1031 678 1013 q 667 1060 678 1049 q 635 1072 656 1072 q 603 1063 615 1072 q 583 1036 592 1053 l 461 1092 q 528 1183 478 1150 q 653 1215 579 1215 q 738 1199 697 1215 q 805 1149 779 1182 q 831 1065 831 1115 q 803 974 831 1011 q 738 916 776 938 q 663 883 699 894 m 668 767 l 490 767 l 410 869 l 331 767 l 151 767 l 290 992 l 531 992 l 668 767 m 424 -14 q 217 28 304 -14 q 84 151 131 71 q 38 347 38 232 q 85 543 38 463 q 217 666 132 624 q 413 708 301 708 q 606 666 526 708 q 728 548 686 624 q 771 374 771 472 q 769 328 771 351 q 764 292 767 306 l 218 292 l 218 406 l 642 406 l 508 356 q 487 476 508 435 q 413 518 465 518 q 352 501 376 518 q 316 446 328 485 q 304 343 304 407 q 318 242 304 279 q 359 192 332 206 q 426 178 386 178 q 496 196 471 178 q 532 246 521 214 l 757 179 q 690 72 740 115 q 569 8 639 29 q 424 -14 500 -14 z "},"ễ":{"ha":804,"x_min":38,"x_max":771,"o":"m 668 767 l 490 767 l 410 869 l 331 767 l 151 767 l 290 992 l 531 992 l 668 767 m 669 1233 q 619 1075 667 1126 q 508 1024 571 1024 q 447 1033 472 1024 q 401 1056 421 1043 q 365 1080 382 1069 q 332 1090 349 1090 q 301 1074 311 1090 q 288 1026 292 1058 l 151 1026 q 205 1185 156 1133 q 325 1236 254 1236 q 383 1226 360 1236 q 424 1203 407 1217 q 457 1179 442 1189 q 490 1169 472 1169 q 520 1185 510 1169 q 533 1233 531 1200 l 669 1233 m 424 -14 q 217 28 304 -14 q 84 151 131 71 q 38 347 38 232 q 85 543 38 463 q 217 666 132 624 q 413 708 301 708 q 606 666 526 708 q 728 548 686 624 q 771 374 771 472 q 769 328 771 351 q 764 292 767 306 l 218 292 l 218 406 l 642 406 l 508 356 q 487 476 508 435 q 413 518 465 518 q 352 501 376 518 q 316 446 328 485 q 304 343 304 407 q 318 242 304 279 q 359 192 332 206 q 426 178 386 178 q 496 196 471 178 q 532 246 521 214 l 757 179 q 690 72 740 115 q 569 8 639 29 q 424 -14 500 -14 z "},"ȅ":{"ha":804,"x_min":38,"x_max":771,"o":"m 424 -14 q 217 28 304 -14 q 84 151 131 71 q 38 347 38 232 q 85 543 38 463 q 217 666 132 624 q 413 708 301 708 q 606 666 526 708 q 728 549 686 624 q 771 374 771 474 q 769 326 771 350 q 764 286 767 303 l 218 286 l 218 408 l 642 408 l 508 357 q 487 477 508 436 q 413 518 465 518 q 352 501 376 518 q 316 446 328 485 q 304 343 304 407 q 319 242 304 279 q 360 192 333 206 q 426 178 386 178 q 496 196 471 178 q 532 246 521 214 l 757 179 q 690 72 740 115 q 569 8 639 29 q 424 -14 500 -14 m 361 776 l 171 776 l 40 1019 l 268 1019 l 361 776 m 674 776 l 483 776 l 353 1019 l 581 1019 l 674 776 z "},"ë":{"ha":804,"x_min":38,"x_max":771,"o":"m 424 -14 q 217 28 304 -14 q 84 151 131 71 q 38 347 38 232 q 85 543 38 463 q 217 666 132 624 q 413 708 301 708 q 606 666 526 708 q 728 549 686 624 q 771 374 771 474 q 769 326 771 350 q 764 286 767 303 l 218 286 l 218 408 l 642 408 l 508 357 q 487 477 508 436 q 413 518 465 518 q 352 501 376 518 q 316 446 328 485 q 304 343 304 407 q 319 242 304 279 q 360 192 333 206 q 426 178 386 178 q 496 196 471 178 q 532 246 521 214 l 757 179 q 690 72 740 115 q 569 8 639 29 q 424 -14 500 -14 m 249 994 q 347 964 313 994 q 382 876 382 933 q 347 790 382 821 q 249 758 313 758 q 153 790 188 758 q 119 876 119 821 q 153 964 119 933 q 249 994 188 994 m 567 994 q 665 964 631 994 q 700 876 700 933 q 665 790 700 821 q 567 758 631 758 q 472 790 506 758 q 438 876 438 821 q 472 964 438 933 q 567 994 506 994 z "},"ė":{"ha":804,"x_min":38,"x_max":771,"o":"m 424 -14 q 217 28 304 -14 q 84 151 131 71 q 38 347 38 232 q 85 543 38 463 q 217 666 132 624 q 413 708 301 708 q 606 666 526 708 q 728 549 686 624 q 771 374 771 474 q 769 326 771 350 q 764 286 767 303 l 218 286 l 218 408 l 642 408 l 508 357 q 487 477 508 436 q 413 518 465 518 q 352 501 376 518 q 316 446 328 485 q 304 343 304 407 q 319 242 304 279 q 360 192 333 206 q 426 178 386 178 q 496 196 471 178 q 532 246 521 214 l 757 179 q 690 72 740 115 q 569 8 639 29 q 424 -14 500 -14 m 410 1006 q 519 975 482 1006 q 556 883 556 944 q 519 793 556 824 q 410 763 482 763 q 303 793 339 763 q 268 883 268 824 q 303 975 268 944 q 410 1006 339 1006 z "},"ẹ":{"ha":804,"x_min":38,"x_max":771,"o":"m 424 -14 q 217 28 304 -14 q 84 151 131 71 q 38 347 38 232 q 85 543 38 463 q 217 666 132 624 q 413 708 301 708 q 606 666 526 708 q 728 549 686 624 q 771 374 771 474 q 769 326 771 350 q 764 286 767 303 l 218 286 l 218 408 l 642 408 l 508 357 q 487 477 508 436 q 413 518 465 518 q 352 501 376 518 q 316 446 328 485 q 304 343 304 407 q 319 242 304 279 q 360 192 333 206 q 426 178 386 178 q 496 196 471 178 q 532 246 521 214 l 757 179 q 690 72 740 115 q 569 8 639 29 q 424 -14 500 -14 m 413 -311 q 306 -281 342 -311 q 271 -189 271 -250 q 306 -99 271 -129 q 413 -68 342 -68 q 522 -99 485 -68 q 558 -189 558 -129 q 522 -281 558 -250 q 413 -311 485 -311 z "},"è":{"ha":804,"x_min":38,"x_max":771,"o":"m 424 -14 q 217 28 304 -14 q 84 151 131 71 q 38 347 38 232 q 85 543 38 463 q 217 666 132 624 q 413 708 301 708 q 606 666 526 708 q 728 549 686 624 q 771 374 771 474 q 769 326 771 350 q 764 286 767 303 l 218 286 l 218 408 l 642 408 l 508 357 q 487 477 508 436 q 413 518 465 518 q 352 501 376 518 q 316 446 328 485 q 304 343 304 407 q 319 242 304 279 q 360 192 333 206 q 426 178 386 178 q 496 196 471 178 q 532 246 521 214 l 757 179 q 690 72 740 115 q 569 8 639 29 q 424 -14 500 -14 m 426 1019 l 514 776 l 314 776 l 172 1019 l 426 1019 z "},"ẻ":{"ha":804,"x_min":38,"x_max":771,"o":"m 424 -14 q 217 28 304 -14 q 84 151 131 71 q 38 347 38 232 q 85 543 38 463 q 217 666 132 624 q 413 708 301 708 q 606 666 526 708 q 728 549 686 624 q 771 374 771 474 q 769 326 771 350 q 764 286 767 303 l 218 286 l 218 408 l 642 408 l 508 357 q 487 477 508 436 q 413 518 465 518 q 352 501 376 518 q 316 446 328 485 q 304 343 304 407 q 319 242 304 279 q 360 192 333 206 q 426 178 386 178 q 496 196 471 178 q 532 246 521 214 l 757 179 q 690 72 740 115 q 569 8 639 29 q 424 -14 500 -14 m 408 753 l 353 832 q 409 866 393 849 q 425 901 425 883 q 414 932 425 919 q 381 944 403 944 q 350 934 361 944 q 331 906 339 924 l 207 961 q 275 1054 224 1022 q 399 1086 326 1086 q 485 1069 444 1086 q 552 1019 526 1053 q 578 936 578 986 q 551 844 578 881 q 484 785 524 807 q 408 753 444 764 z "},"ȇ":{"ha":804,"x_min":38,"x_max":771,"o":"m 424 -14 q 217 28 304 -14 q 84 151 131 71 q 38 347 38 232 q 85 543 38 463 q 217 666 132 624 q 413 708 301 708 q 606 666 526 708 q 728 549 686 624 q 771 374 771 474 q 769 326 771 350 q 764 286 767 303 l 218 286 l 218 408 l 642 408 l 508 357 q 487 477 508 436 q 413 518 465 518 q 352 501 376 518 q 316 446 328 485 q 304 343 304 407 q 319 242 304 279 q 360 192 333 206 q 426 178 386 178 q 496 196 471 178 q 532 246 521 214 l 757 179 q 690 72 740 115 q 569 8 639 29 q 424 -14 500 -14 m 654 760 l 481 760 q 463 822 481 799 q 410 844 446 844 q 357 822 375 844 q 339 760 339 799 l 165 760 q 231 932 165 871 q 410 993 297 993 q 589 932 524 993 q 654 760 654 871 z "},"ē":{"ha":804,"x_min":38,"x_max":771,"o":"m 424 -14 q 217 28 304 -14 q 84 151 131 71 q 38 347 38 232 q 85 543 38 463 q 217 666 132 624 q 413 708 301 708 q 606 666 526 708 q 728 549 686 624 q 771 374 771 474 q 769 326 771 350 q 764 286 767 303 l 218 286 l 218 408 l 642 408 l 508 357 q 487 477 508 436 q 413 518 465 518 q 352 501 376 518 q 316 446 328 485 q 304 343 304 407 q 319 242 304 279 q 360 192 333 206 q 426 178 386 178 q 496 196 471 178 q 532 246 521 214 l 757 179 q 690 72 740 115 q 569 8 639 29 q 424 -14 500 -14 m 671 942 l 671 776 l 149 776 l 149 942 l 671 942 z "},"ḗ":{"ha":804,"x_min":38,"x_max":771,"o":"m 424 -14 q 217 28 304 -14 q 84 151 131 71 q 38 347 38 232 q 85 543 38 463 q 217 666 132 624 q 413 708 301 708 q 606 666 526 708 q 728 549 686 624 q 771 374 771 474 q 769 326 771 350 q 764 286 767 303 l 218 286 l 218 408 l 642 408 l 508 357 q 487 477 508 436 q 413 518 465 518 q 352 501 376 518 q 316 446 328 485 q 304 343 304 407 q 319 242 304 279 q 360 192 333 206 q 426 178 386 178 q 496 196 471 178 q 532 246 521 214 l 757 179 q 690 72 740 115 q 569 8 639 29 q 424 -14 500 -14 m 671 942 l 671 776 l 149 776 l 149 942 l 671 942 m 378 1246 l 622 1246 l 496 1015 l 296 1015 l 378 1246 z "},"ḕ":{"ha":804,"x_min":38,"x_max":771,"o":"m 424 -14 q 217 28 304 -14 q 84 151 131 71 q 38 347 38 232 q 85 543 38 463 q 217 666 132 624 q 413 708 301 708 q 606 666 526 708 q 728 549 686 624 q 771 374 771 474 q 769 326 771 350 q 764 286 767 303 l 218 286 l 218 408 l 642 408 l 508 357 q 487 477 508 436 q 413 518 465 518 q 352 501 376 518 q 316 446 328 485 q 304 343 304 407 q 319 242 304 279 q 360 192 333 206 q 426 178 386 178 q 496 196 471 178 q 532 246 521 214 l 757 179 q 690 72 740 115 q 569 8 639 29 q 424 -14 500 -14 m 671 942 l 671 776 l 149 776 l 149 942 l 671 942 m 442 1246 l 524 1015 l 324 1015 l 197 1246 l 442 1246 z "},"ę":{"ha":804,"x_min":38,"x_max":771,"o":"m 424 -14 q 217 28 304 -14 q 84 151 131 71 q 38 347 38 232 q 85 543 38 463 q 217 666 132 624 q 413 708 301 708 q 606 666 526 708 q 728 549 686 624 q 771 374 771 474 q 769 326 771 350 q 764 286 767 303 l 218 286 l 218 408 l 642 408 l 508 357 q 487 477 508 436 q 413 518 465 518 q 352 501 376 518 q 316 446 328 485 q 304 343 304 407 q 319 242 304 279 q 360 192 333 206 q 426 178 386 178 q 496 196 471 178 q 532 246 521 214 l 757 179 q 690 72 740 115 q 569 8 639 29 q 424 -14 500 -14 m 443 -304 q 300 -262 351 -304 q 249 -146 249 -219 q 310 -17 249 -62 q 471 40 371 29 l 575 10 q 492 -20 525 -6 q 442 -52 458 -35 q 426 -96 426 -69 q 445 -137 426 -122 q 497 -153 464 -153 q 530 -149 514 -153 q 557 -140 546 -146 l 583 -275 q 522 -298 554 -292 q 443 -304 489 -304 z "},"ẽ":{"ha":804,"x_min":38,"x_max":771,"o":"m 424 -14 q 217 28 304 -14 q 84 151 131 71 q 38 347 38 232 q 85 543 38 463 q 217 666 132 624 q 413 708 301 708 q 606 666 526 708 q 728 549 686 624 q 771 374 771 474 q 769 326 771 350 q 764 286 767 303 l 218 286 l 218 408 l 642 408 l 508 357 q 487 477 508 436 q 413 518 465 518 q 352 501 376 518 q 316 446 328 485 q 304 343 304 407 q 319 242 304 279 q 360 192 333 206 q 426 178 386 178 q 496 196 471 178 q 532 246 521 214 l 757 179 q 690 72 740 115 q 569 8 639 29 q 424 -14 500 -14 m 693 999 q 667 867 692 919 q 602 790 642 815 q 517 764 563 764 q 449 776 478 764 q 399 802 421 788 q 360 828 378 817 q 322 839 342 839 q 290 822 301 839 q 275 767 279 804 l 125 767 q 183 942 129 885 q 315 1000 236 1000 q 379 989 353 1000 q 424 963 406 978 q 460 938 443 949 q 497 926 478 926 q 530 944 519 926 q 544 999 540 961 l 693 999 z "},"ǝ":{"ha":804,"x_min":35,"x_max":767,"o":"m 382 708 q 590 666 504 708 q 721 543 675 624 q 767 347 767 463 q 720 151 767 232 q 590 28 674 71 q 394 -14 506 -14 q 200 31 281 -14 q 77 152 119 76 q 35 321 35 228 q 37 367 35 344 q 42 403 39 389 l 586 403 l 586 289 l 164 289 l 297 339 q 306 251 297 288 q 337 195 315 214 q 393 176 358 176 q 454 193 431 176 q 489 249 478 210 q 500 351 500 288 q 488 453 500 417 q 447 503 475 489 q 379 517 419 517 q 310 498 336 517 q 272 447 283 479 l 47 513 q 120 615 69 571 q 238 683 171 658 q 382 708 306 708 z "},"ə":{"ha":807,"x_min":39,"x_max":769,"o":"m 396 -14 q 201 28 281 -14 q 81 147 122 71 q 39 321 39 222 q 40 354 39 338 q 44 388 42 371 l 589 388 l 589 274 l 167 274 l 300 347 q 299 327 299 336 q 299 310 299 318 q 324 210 299 244 q 400 176 349 176 q 478 215 453 176 q 503 350 503 254 q 490 452 503 415 q 451 503 476 489 q 388 517 426 517 q 319 493 343 517 q 285 436 296 469 l 51 499 q 124 612 75 565 q 243 683 174 658 q 396 708 313 708 q 600 666 517 708 q 726 543 683 624 q 769 347 769 463 q 672 81 769 176 q 396 -14 575 -14 z "},"f":{"ha":588,"x_min":11,"x_max":588,"o":"m 408 1004 q 519 991 471 1004 q 588 963 567 978 l 565 796 q 532 810 551 804 q 482 815 513 815 q 406 796 436 815 q 376 724 376 776 l 376 638 l 394 599 l 394 0 l 114 0 l 114 739 q 138 863 114 813 q 205 945 163 914 q 300 990 247 976 q 408 1004 353 1004 m 579 694 l 579 501 l 11 501 l 11 694 l 579 694 z "},"g":{"ha":790,"x_min":24,"x_max":790,"o":"m 771 901 l 790 722 q 768 726 778 725 q 749 726 758 726 q 661 697 689 726 q 633 626 633 667 l 546 656 q 565 771 546 714 q 628 865 585 828 q 744 903 672 903 q 757 903 750 903 q 771 901 764 903 m 524 176 q 720 124 653 176 q 788 -31 788 72 q 740 -182 788 -122 q 603 -270 692 -242 q 389 -299 514 -299 q 108 -254 192 -299 q 24 -128 24 -210 q 75 -35 24 -69 q 243 0 126 -1 l 239 -24 q 95 30 140 -12 q 50 142 50 72 q 107 254 50 213 q 253 299 164 296 l 344 257 l 319 257 q 250 244 269 256 q 231 215 231 233 q 247 186 231 196 q 297 176 263 176 l 524 176 m 392 -124 q 495 -117 454 -124 q 556 -99 536 -111 q 576 -69 576 -86 q 567 -48 576 -56 q 529 -40 557 -40 l 269 -40 q 239 -50 250 -40 q 228 -75 228 -60 q 272 -111 228 -99 q 392 -124 315 -124 m 406 708 q 599 681 521 708 q 719 602 678 654 q 760 471 760 550 q 719 342 760 394 q 599 263 678 289 q 406 236 521 236 q 142 296 232 236 q 53 471 53 356 q 93 602 53 550 q 213 681 133 654 q 406 708 292 708 m 406 557 q 348 536 369 557 q 326 472 326 515 q 348 409 326 431 q 406 388 369 388 q 463 409 442 388 q 485 472 485 431 q 463 536 485 515 q 406 557 442 557 z "},"ğ":{"ha":790,"x_min":24,"x_max":813,"o":"m 786 901 l 813 722 q 803 724 807 724 q 792 724 799 724 q 703 694 739 724 q 668 604 668 665 l 583 658 q 611 782 585 728 q 682 869 638 836 q 783 901 726 901 q 785 901 785 901 q 786 901 785 901 m 524 176 q 720 124 653 176 q 788 -31 788 72 q 740 -182 788 -122 q 603 -270 692 -242 q 389 -299 514 -299 q 108 -254 192 -299 q 24 -128 24 -210 q 75 -35 24 -69 q 243 0 126 -1 l 239 -24 q 95 30 140 -12 q 50 142 50 72 q 107 254 50 213 q 253 299 164 296 l 344 257 l 319 257 q 250 244 269 256 q 231 215 231 233 q 247 186 231 196 q 297 176 263 176 l 524 176 m 392 -124 q 495 -117 454 -124 q 556 -99 536 -111 q 576 -69 576 -86 q 567 -48 576 -56 q 529 -40 557 -40 l 269 -40 q 239 -50 250 -40 q 228 -75 228 -60 q 272 -111 228 -99 q 392 -124 315 -124 m 406 708 q 599 681 521 708 q 719 602 678 654 q 760 471 760 550 q 719 342 760 394 q 599 263 678 289 q 406 236 521 236 q 142 296 232 236 q 53 471 53 356 q 93 602 53 550 q 213 681 133 654 q 406 708 292 708 m 406 557 q 348 536 369 557 q 326 472 326 515 q 348 409 326 431 q 406 388 369 388 q 463 409 442 388 q 485 472 485 431 q 463 536 485 515 q 406 557 442 557 m 643 993 q 578 822 643 883 q 399 760 513 760 q 219 822 285 760 q 153 993 153 883 l 326 993 q 345 931 328 954 q 399 908 363 908 q 452 931 435 908 q 469 993 469 954 l 643 993 z "},"ǧ":{"ha":790,"x_min":24,"x_max":790,"o":"m 771 901 l 790 722 q 768 726 778 725 q 749 726 758 726 q 661 697 689 726 q 633 626 633 667 l 546 656 q 565 771 546 714 q 628 865 585 828 q 744 903 672 903 q 757 903 750 903 q 771 901 764 903 m 524 176 q 720 124 653 176 q 788 -31 788 72 q 740 -182 788 -122 q 603 -270 692 -242 q 389 -299 514 -299 q 108 -254 192 -299 q 24 -128 24 -210 q 75 -35 24 -69 q 243 0 126 -1 l 239 -24 q 95 30 140 -12 q 50 142 50 72 q 107 254 50 213 q 253 299 164 296 l 344 257 l 319 257 q 250 244 269 256 q 231 215 231 233 q 247 186 231 196 q 297 176 263 176 l 524 176 m 392 -124 q 495 -117 454 -124 q 556 -99 536 -111 q 576 -69 576 -86 q 567 -48 576 -56 q 529 -40 557 -40 l 269 -40 q 239 -50 250 -40 q 228 -75 228 -60 q 272 -111 228 -99 q 392 -124 315 -124 m 406 708 q 599 681 521 708 q 719 602 678 654 q 760 471 760 550 q 719 342 760 394 q 599 263 678 289 q 406 236 521 236 q 142 296 232 236 q 53 471 53 356 q 93 602 53 550 q 213 681 133 654 q 406 708 292 708 m 406 557 q 348 536 369 557 q 326 472 326 515 q 348 409 326 431 q 406 388 369 388 q 463 409 442 388 q 485 472 485 431 q 463 536 485 515 q 406 557 442 557 m 632 1019 l 483 776 l 218 776 l 68 1019 l 264 1019 l 350 910 l 438 1019 l 632 1019 z "},"ĝ":{"ha":790,"x_min":24,"x_max":813,"o":"m 132 767 l 231 1011 l 461 1011 l 560 767 l 410 767 l 346 892 l 282 767 l 132 767 m 786 901 l 813 722 q 803 724 807 724 q 792 724 799 724 q 703 694 739 724 q 668 604 668 665 l 583 658 q 611 782 585 728 q 682 869 638 836 q 783 901 726 901 q 785 901 785 901 q 786 901 785 901 m 524 176 q 720 124 653 176 q 788 -31 788 72 q 740 -182 788 -122 q 603 -270 692 -242 q 389 -299 514 -299 q 108 -254 192 -299 q 24 -128 24 -210 q 75 -35 24 -69 q 243 0 126 -1 l 239 -24 q 95 30 140 -12 q 50 142 50 72 q 107 254 50 213 q 253 299 164 296 l 344 257 l 319 257 q 250 244 269 256 q 231 215 231 233 q 247 186 231 196 q 297 176 263 176 l 524 176 m 392 -124 q 495 -117 454 -124 q 556 -99 536 -111 q 576 -69 576 -86 q 567 -48 576 -56 q 529 -40 557 -40 l 269 -40 q 239 -50 250 -40 q 228 -75 228 -60 q 272 -111 228 -99 q 392 -124 315 -124 m 406 708 q 599 681 521 708 q 719 602 678 654 q 760 471 760 550 q 719 342 760 394 q 599 263 678 289 q 406 236 521 236 q 142 296 232 236 q 53 471 53 356 q 93 602 53 550 q 213 681 133 654 q 406 708 292 708 m 406 557 q 348 536 369 557 q 326 472 326 515 q 348 409 326 431 q 406 388 369 388 q 463 409 442 388 q 485 472 485 431 q 463 536 485 515 q 406 557 442 557 z "},"ģ":{"ha":790,"x_min":24,"x_max":790,"o":"m 771 901 l 790 722 q 768 726 778 725 q 749 726 758 726 q 661 697 689 726 q 633 626 633 667 l 546 656 q 565 771 546 714 q 628 865 585 828 q 744 903 672 903 q 757 903 750 903 q 771 901 764 903 m 524 176 q 720 124 653 176 q 788 -31 788 72 q 740 -182 788 -122 q 603 -270 692 -242 q 389 -299 514 -299 q 108 -254 192 -299 q 24 -128 24 -210 q 75 -35 24 -69 q 243 0 126 -1 l 239 -24 q 95 30 140 -12 q 50 142 50 72 q 107 254 50 213 q 253 299 164 296 l 344 257 l 319 257 q 250 244 269 256 q 231 215 231 233 q 247 186 231 196 q 297 176 263 176 l 524 176 m 392 -124 q 495 -117 454 -124 q 556 -99 536 -111 q 576 -69 576 -86 q 567 -48 576 -56 q 529 -40 557 -40 l 269 -40 q 239 -50 250 -40 q 228 -75 228 -60 q 272 -111 228 -99 q 392 -124 315 -124 m 406 708 q 599 681 521 708 q 719 602 678 654 q 760 471 760 550 q 719 342 760 394 q 599 263 678 289 q 406 236 521 236 q 142 296 232 236 q 53 471 53 356 q 93 602 53 550 q 213 681 133 654 q 406 708 292 708 m 406 557 q 348 536 369 557 q 326 472 326 515 q 348 409 326 431 q 406 388 369 388 q 463 409 442 388 q 485 472 485 431 q 463 536 485 515 q 406 557 442 557 m 546 1069 l 499 769 l 275 769 l 374 1069 l 546 1069 z "},"ġ":{"ha":790,"x_min":24,"x_max":790,"o":"m 771 901 l 790 722 q 768 726 778 725 q 749 726 758 726 q 661 697 689 726 q 633 626 633 667 l 546 656 q 565 771 546 714 q 628 865 585 828 q 744 903 672 903 q 757 903 750 903 q 771 901 764 903 m 524 176 q 720 124 653 176 q 788 -31 788 72 q 740 -182 788 -122 q 603 -270 692 -242 q 389 -299 514 -299 q 108 -254 192 -299 q 24 -128 24 -210 q 75 -35 24 -69 q 243 0 126 -1 l 239 -24 q 95 30 140 -12 q 50 142 50 72 q 107 254 50 213 q 253 299 164 296 l 344 257 l 319 257 q 250 244 269 256 q 231 215 231 233 q 247 186 231 196 q 297 176 263 176 l 524 176 m 392 -124 q 495 -117 454 -124 q 556 -99 536 -111 q 576 -69 576 -86 q 567 -48 576 -56 q 529 -40 557 -40 l 269 -40 q 239 -50 250 -40 q 228 -75 228 -60 q 272 -111 228 -99 q 392 -124 315 -124 m 406 708 q 599 681 521 708 q 719 602 678 654 q 760 471 760 550 q 719 342 760 394 q 599 263 678 289 q 406 236 521 236 q 142 296 232 236 q 53 471 53 356 q 93 602 53 550 q 213 681 133 654 q 406 708 292 708 m 406 557 q 348 536 369 557 q 326 472 326 515 q 348 409 326 431 q 406 388 369 388 q 463 409 442 388 q 485 472 485 431 q 463 536 485 515 q 406 557 442 557 m 357 1006 q 466 975 429 1006 q 503 883 503 944 q 466 793 503 824 q 357 763 429 763 q 251 793 286 763 q 215 883 215 824 q 251 975 215 944 q 357 1006 286 1006 z "},"ɂ":{"ha":801,"x_min":3,"x_max":783,"o":"m 407 710 q 599 681 514 710 q 733 594 683 653 q 783 446 783 535 q 747 298 783 354 q 652 211 711 242 q 522 167 593 181 l 522 0 l 242 0 l 242 281 q 385 307 335 290 q 458 349 436 324 q 479 407 479 375 q 457 467 479 447 q 388 488 435 488 q 313 457 339 488 q 278 367 288 426 l 3 451 q 67 582 21 524 q 196 675 113 640 q 407 710 279 710 z "},"ḡ":{"ha":790,"x_min":24,"x_max":790,"o":"m 532 942 l 532 776 l 182 776 l 182 942 l 532 942 m 771 901 l 790 722 q 768 726 778 725 q 749 726 758 726 q 661 697 689 726 q 633 626 633 667 l 546 656 q 565 771 546 714 q 628 865 585 828 q 744 903 672 903 q 757 903 750 903 q 771 901 764 903 m 524 176 q 720 124 653 176 q 788 -31 788 72 q 740 -182 788 -122 q 603 -270 692 -242 q 389 -299 514 -299 q 108 -254 192 -299 q 24 -128 24 -210 q 75 -35 24 -69 q 243 0 126 -1 l 239 -24 q 95 30 140 -12 q 50 142 50 72 q 107 254 50 213 q 253 299 164 296 l 344 257 l 319 257 q 250 244 269 256 q 231 215 231 233 q 247 186 231 196 q 297 176 263 176 l 524 176 m 392 -124 q 495 -117 454 -124 q 556 -99 536 -111 q 576 -69 576 -86 q 567 -48 576 -56 q 529 -40 557 -40 l 269 -40 q 239 -50 250 -40 q 228 -75 228 -60 q 272 -111 228 -99 q 392 -124 315 -124 m 406 708 q 599 681 521 708 q 719 602 678 654 q 760 471 760 550 q 719 342 760 394 q 599 263 678 289 q 406 236 521 236 q 142 296 232 236 q 53 471 53 356 q 93 602 53 550 q 213 681 133 654 q 406 708 292 708 m 406 557 q 348 536 369 557 q 326 472 326 515 q 348 409 326 431 q 406 388 369 388 q 463 409 442 388 q 485 472 485 431 q 463 536 485 515 q 406 557 442 557 z "},"h":{"ha":861,"x_min":68,"x_max":794,"o":"m 68 0 l 68 981 l 349 981 l 349 560 q 434 670 378 632 q 567 708 490 708 q 688 681 638 708 q 767 601 739 654 q 794 469 794 547 l 794 0 l 514 0 l 514 394 q 495 476 514 454 q 443 499 476 499 q 394 485 415 499 q 360 441 372 471 q 349 365 349 411 l 349 0 l 68 0 z "},"ħ":{"ha":861,"x_min":-37,"x_max":794,"o":"m -37 886 l 515 886 l 515 733 l -37 733 l -37 886 m 68 0 l 68 981 l 349 981 l 349 560 q 434 670 378 632 q 567 708 490 708 q 688 681 638 708 q 767 601 739 654 q 794 469 794 547 l 794 0 l 514 0 l 514 394 q 495 476 514 454 q 443 499 476 499 q 394 485 415 499 q 360 441 372 471 q 349 365 349 411 l 349 0 l 68 0 z "},"ḫ":{"ha":861,"x_min":68,"x_max":794,"o":"m 68 0 l 68 981 l 349 981 l 349 560 q 434 670 378 632 q 567 708 490 708 q 688 681 638 708 q 767 601 739 654 q 794 469 794 547 l 794 0 l 514 0 l 514 394 q 495 476 514 454 q 443 499 476 499 q 394 485 415 499 q 360 441 372 471 q 349 365 349 411 l 349 0 l 68 0 m 675 -65 q 610 -237 675 -175 q 431 -299 544 -299 q 252 -237 318 -299 q 186 -65 186 -175 l 360 -65 q 378 -127 360 -104 q 431 -150 396 -150 q 484 -127 467 -150 q 501 -65 501 -104 l 675 -65 z "},"ĥ":{"ha":861,"x_min":-61,"x_max":794,"o":"m 68 0 l 68 981 l 349 981 l 349 560 q 434 670 378 632 q 567 708 490 708 q 688 681 638 708 q 767 601 739 654 q 794 469 794 547 l 794 0 l 514 0 l 514 394 q 495 476 514 454 q 443 499 476 499 q 394 485 415 499 q 360 441 372 471 q 349 365 349 411 l 349 0 l 68 0 m 478 1051 l 292 1051 l 208 1172 l 125 1051 l -61 1051 l 74 1282 l 343 1282 l 478 1051 z "},"ḥ":{"ha":861,"x_min":68,"x_max":794,"o":"m 68 0 l 68 981 l 349 981 l 349 560 q 434 670 378 632 q 567 708 490 708 q 688 681 638 708 q 767 601 739 654 q 794 469 794 547 l 794 0 l 514 0 l 514 394 q 495 476 514 454 q 443 499 476 499 q 394 485 415 499 q 360 441 372 471 q 349 365 349 411 l 349 0 l 68 0 m 431 -311 q 324 -281 360 -311 q 289 -189 289 -250 q 324 -99 289 -129 q 431 -68 360 -68 q 540 -99 503 -68 q 576 -189 576 -129 q 540 -281 576 -250 q 431 -311 503 -311 z "},"i":{"ha":417,"x_min":51,"x_max":365,"o":"m 208 756 q 88 785 125 756 q 51 879 51 814 q 88 975 51 946 q 208 1004 125 1004 q 328 975 292 1004 q 365 879 365 946 q 328 785 365 814 q 208 756 292 756 m 349 694 l 349 0 l 68 0 l 68 694 l 349 694 z "},"ı":{"ha":417,"x_min":68,"x_max":349,"o":"m 349 694 l 349 0 l 68 0 l 68 694 l 349 694 z "},"í":{"ha":417,"x_min":68,"x_max":431,"o":"m 349 694 l 349 0 l 68 0 l 68 694 l 349 694 m 176 1019 l 431 1019 l 288 776 l 89 776 l 176 1019 z "},"ĭ":{"ha":417,"x_min":-36,"x_max":454,"o":"m 349 694 l 349 0 l 68 0 l 68 694 l 349 694 m 453 993 q 388 822 453 883 q 208 760 322 760 q 30 822 96 760 q -36 993 -36 883 l 138 993 q 156 931 138 954 q 208 908 174 908 q 262 931 244 908 q 279 993 279 954 l 453 993 z "},"î":{"ha":417,"x_min":-74,"x_max":490,"o":"m 349 694 l 349 0 l 68 0 l 68 694 l 349 694 m 490 767 l 294 767 l 208 878 l 122 767 l -74 767 l 76 1011 l 340 1011 l 490 767 z "},"ȉ":{"ha":417,"x_min":-161,"x_max":472,"o":"m 349 694 l 349 0 l 68 0 l 68 694 l 349 694 m 160 776 l -31 776 l -161 1019 l 67 1019 l 160 776 m 472 776 l 282 776 l 151 1019 l 379 1019 l 472 776 z "},"ï":{"ha":417,"x_min":-57,"x_max":474,"o":"m 350 756 q 258 786 289 756 q 226 876 226 817 q 258 967 226 936 q 350 997 289 997 q 442 967 411 997 q 474 876 474 936 q 442 786 474 817 q 350 756 411 756 m 67 756 q -26 786 6 756 q -57 876 -57 817 q -26 967 -57 936 q 67 997 6 997 q 159 967 128 997 q 190 876 190 936 q 159 786 190 817 q 67 756 128 756 m 349 694 l 349 0 l 68 0 l 68 694 l 349 694 z "},"ḯ":{"ha":417,"x_min":-82,"x_max":499,"o":"m 349 694 l 349 0 l 68 0 l 68 694 l 349 694 m 47 994 q 146 964 111 994 q 181 876 181 933 q 146 790 181 821 q 47 758 111 758 q -48 790 -14 758 q -82 876 -82 821 q -48 964 -82 933 q 47 994 -14 994 m 365 994 q 464 964 429 994 q 499 876 499 933 q 464 790 499 821 q 365 758 429 758 q 270 790 304 758 q 236 876 236 821 q 270 964 236 933 q 365 994 304 994 m 176 1275 l 421 1275 l 294 1044 l 94 1044 l 176 1275 z "},"ị":{"ha":417,"x_min":51,"x_max":365,"o":"m 208 756 q 88 785 125 756 q 51 879 51 814 q 88 975 51 946 q 208 1004 125 1004 q 328 975 292 1004 q 365 879 365 946 q 328 785 365 814 q 208 756 292 756 m 349 694 l 349 0 l 68 0 l 68 694 l 349 694 m 208 -311 q 102 -281 138 -311 q 67 -189 67 -250 q 102 -99 67 -129 q 208 -68 138 -68 q 317 -99 281 -68 q 354 -189 354 -129 q 317 -281 354 -250 q 208 -311 281 -311 z "},"ì":{"ha":417,"x_min":-29,"x_max":349,"o":"m 349 694 l 349 0 l 68 0 l 68 694 l 349 694 m 225 1019 l 313 776 l 113 776 l -29 1019 l 225 1019 z "},"ỉ":{"ha":417,"x_min":6,"x_max":376,"o":"m 349 694 l 349 0 l 68 0 l 68 694 l 349 694 m 207 753 l 151 832 q 208 866 192 849 q 224 901 224 883 q 213 932 224 919 q 179 944 201 944 q 149 934 160 944 q 129 906 138 924 l 6 961 q 74 1054 22 1022 q 197 1086 125 1086 q 284 1069 243 1086 q 351 1019 325 1053 q 376 936 376 986 q 349 844 376 881 q 283 785 322 807 q 207 753 243 764 z "},"ȋ":{"ha":417,"x_min":-36,"x_max":454,"o":"m 349 694 l 349 0 l 68 0 l 68 694 l 349 694 m 453 760 l 279 760 q 262 822 279 799 q 208 844 244 844 q 156 822 174 844 q 138 760 138 799 l -36 760 q 30 932 -36 871 q 208 993 96 993 q 388 932 322 993 q 453 760 453 871 z "},"ĳ":{"ha":833,"x_min":51,"x_max":782,"o":"m 208 756 q 88 785 125 756 q 51 879 51 814 q 88 975 51 946 q 208 1004 125 1004 q 328 975 292 1004 q 365 879 365 946 q 328 785 365 814 q 208 756 292 756 m 349 694 l 349 0 l 68 0 l 68 694 l 349 694 m 625 756 q 505 785 542 756 q 468 879 468 814 q 505 975 468 946 q 625 1004 542 1004 q 745 975 708 1004 q 782 879 782 946 q 745 785 782 814 q 625 756 708 756 m 765 694 l 765 -28 q 733 -183 765 -124 q 638 -271 701 -243 q 476 -299 574 -299 q 367 -287 415 -299 q 279 -256 318 -276 l 315 -85 q 349 -100 329 -94 q 394 -106 369 -106 q 460 -83 436 -106 q 485 -3 485 -60 l 485 694 l 765 694 z "},"ī":{"ha":417,"x_min":6,"x_max":411,"o":"m 411 942 l 411 776 l 6 776 l 6 942 l 411 942 m 349 694 l 349 0 l 68 0 l 68 694 l 349 694 z "},"į":{"ha":417,"x_min":0,"x_max":367,"o":"m 214 -314 q 110 -297 160 -314 q 31 -243 61 -281 q 0 -142 0 -206 q 33 -31 0 -74 q 122 33 67 11 q 244 65 178 56 l 349 0 q 242 -47 279 -24 q 204 -106 204 -69 q 223 -147 204 -132 q 275 -162 242 -162 q 306 -160 290 -162 q 333 -151 322 -157 l 367 -281 q 301 -306 338 -299 q 214 -314 264 -314 m 208 756 q 88 785 125 756 q 51 879 51 814 q 88 975 51 946 q 208 1004 125 1004 q 328 975 292 1004 q 365 879 365 946 q 328 785 365 814 q 208 756 292 756 m 349 694 l 349 0 l 68 0 l 68 694 l 349 694 z "},"ĩ":{"ha":417,"x_min":-76,"x_max":492,"o":"m 349 694 l 349 0 l 68 0 l 68 694 l 349 694 m 492 999 q 465 867 490 919 q 401 790 440 815 q 315 764 361 764 q 248 776 276 764 q 198 802 219 788 q 158 828 176 817 q 121 839 140 839 q 89 822 100 839 q 74 767 78 804 l -76 767 q -19 942 -72 885 q 114 1000 35 1000 q 178 989 151 1000 q 223 963 204 978 q 259 938 242 949 q 296 926 276 926 q 328 944 318 926 q 343 999 339 961 l 492 999 z "},"j":{"ha":417,"x_min":-137,"x_max":365,"o":"m 208 756 q 88 785 125 756 q 51 879 51 814 q 88 975 51 946 q 208 1004 125 1004 q 328 975 292 1004 q 365 879 365 946 q 328 785 365 814 q 208 756 292 756 m 349 694 l 349 -28 q 317 -183 349 -124 q 221 -271 285 -243 q 60 -299 157 -299 q -50 -287 -1 -299 q -137 -256 -99 -276 l -101 -85 q -67 -100 -87 -94 q -22 -106 -47 -106 q 44 -83 19 -106 q 68 -3 68 -60 l 68 694 l 349 694 z "},"ȷ":{"ha":417,"x_min":-137,"x_max":349,"o":"m 349 694 l 349 -28 q 317 -183 349 -124 q 221 -271 285 -243 q 60 -299 157 -299 q -50 -287 -1 -299 q -137 -256 -99 -276 l -101 -85 q -67 -100 -87 -94 q -22 -106 -47 -106 q 44 -83 19 -106 q 68 -3 68 -60 l 68 694 l 349 694 z "},"ĵ":{"ha":417,"x_min":-137,"x_max":490,"o":"m 349 694 l 349 -28 q 317 -183 349 -124 q 221 -271 285 -243 q 60 -299 157 -299 q -50 -287 -1 -299 q -137 -256 -99 -276 l -101 -85 q -67 -100 -87 -94 q -22 -106 -47 -106 q 44 -83 19 -106 q 68 -3 68 -60 l 68 694 l 349 694 m 490 767 l 294 767 l 208 878 l 122 767 l -74 767 l 76 1011 l 340 1011 l 490 767 z "},"k":{"ha":890,"x_min":68,"x_max":901,"o":"m 886 694 l 540 319 l 490 311 l 303 92 l 299 369 l 581 694 l 886 694 m 349 981 l 349 0 l 68 0 l 68 981 l 349 981 m 586 497 l 901 0 l 593 0 l 411 332 l 586 497 z "},"ķ":{"ha":890,"x_min":68,"x_max":901,"o":"m 886 694 l 540 319 l 490 311 l 303 92 l 299 369 l 581 694 l 886 694 m 349 981 l 349 0 l 68 0 l 68 981 l 349 981 m 586 497 l 901 0 l 593 0 l 411 332 l 586 497 m 607 -76 l 506 -336 l 328 -336 l 367 -76 l 607 -76 z "},"ĸ":{"ha":890,"x_min":68,"x_max":901,"o":"m 886 694 l 540 319 l 490 311 l 303 92 l 299 369 l 581 694 l 886 694 m 349 694 l 349 0 l 68 0 l 68 694 l 349 694 m 586 497 l 901 0 l 593 0 l 411 332 l 586 497 z "},"l":{"ha":464,"x_min":67,"x_max":468,"o":"m 347 981 l 347 258 q 361 194 347 214 q 410 175 375 175 q 440 177 426 175 q 468 185 453 179 l 453 26 q 383 -3 428 8 q 293 -14 338 -14 q 119 40 172 -14 q 67 218 67 93 l 67 981 l 347 981 z "},"ĺ":{"ha":464,"x_min":67,"x_max":468,"o":"m 347 981 l 347 258 q 361 194 347 214 q 410 175 375 175 q 440 177 426 175 q 468 185 453 179 l 453 26 q 383 -3 428 8 q 293 -14 338 -14 q 119 40 172 -14 q 67 218 67 93 l 67 981 l 347 981 m 76 1050 l 154 1272 l 397 1272 l 276 1050 l 76 1050 z "},"ľ":{"ha":579,"x_min":67,"x_max":628,"o":"m 628 981 l 549 628 l 392 628 l 422 981 l 628 981 m 347 981 l 347 258 q 361 194 347 214 q 410 175 375 175 q 440 177 426 175 q 468 185 453 179 l 453 26 q 383 -3 428 8 q 293 -14 338 -14 q 119 40 172 -14 q 67 218 67 93 l 67 981 l 347 981 z "},"ļ":{"ha":464,"x_min":67,"x_max":468,"o":"m 347 981 l 347 258 q 361 194 347 214 q 410 175 375 175 q 440 177 426 175 q 468 185 453 179 l 453 26 q 383 -3 428 8 q 293 -14 338 -14 q 119 40 172 -14 q 67 218 67 93 l 67 981 l 347 981 m 413 -76 l 311 -336 l 133 -336 l 172 -76 l 413 -76 z "},"ŀ":{"ha":735,"x_min":67,"x_max":733,"o":"m 347 981 l 347 258 q 361 194 347 214 q 410 175 375 175 q 440 177 426 175 q 468 185 453 179 l 453 26 q 383 -3 428 8 q 293 -14 338 -14 q 119 40 172 -14 q 67 218 67 93 l 67 981 l 347 981 m 576 631 q 692 594 651 631 q 732 493 732 558 q 692 392 732 428 q 576 356 651 356 q 463 392 504 356 q 421 493 421 428 q 463 594 421 558 q 576 631 504 631 z "},"ḷ":{"ha":464,"x_min":67,"x_max":468,"o":"m 347 981 l 347 258 q 361 194 347 214 q 410 175 375 175 q 440 177 426 175 q 468 185 453 179 l 453 26 q 383 -3 428 8 q 293 -14 338 -14 q 119 40 172 -14 q 67 218 67 93 l 67 981 l 347 981 m 268 -311 q 162 -281 197 -311 q 126 -189 126 -250 q 162 -99 126 -129 q 268 -68 197 -68 q 377 -99 340 -68 q 414 -189 414 -129 q 377 -281 414 -250 q 268 -311 340 -311 z "},"ǉ":{"ha":882,"x_min":67,"x_max":829,"o":"m 347 981 l 347 258 q 361 194 347 214 q 410 175 375 175 q 440 177 426 175 q 468 185 453 179 l 453 26 q 383 -3 428 8 q 293 -14 338 -14 q 119 40 172 -14 q 67 218 67 93 l 67 981 l 347 981 m 672 756 q 552 785 589 756 q 515 879 515 814 q 552 975 515 946 q 672 1004 589 1004 q 792 975 756 1004 q 829 879 829 946 q 792 785 829 814 q 672 756 756 756 m 813 694 l 813 -28 q 781 -183 813 -124 q 685 -271 749 -243 q 524 -299 621 -299 q 414 -287 463 -299 q 326 -256 365 -276 l 363 -85 q 397 -100 376 -94 q 442 -106 417 -106 q 508 -83 483 -106 q 532 -3 532 -60 l 532 694 l 813 694 z "},"ḻ":{"ha":464,"x_min":65,"x_max":471,"o":"m 471 -82 l 471 -247 l 65 -247 l 65 -82 l 471 -82 m 347 981 l 347 258 q 361 194 347 214 q 410 175 375 175 q 440 177 426 175 q 468 185 453 179 l 453 26 q 383 -3 428 8 q 293 -14 338 -14 q 119 40 172 -14 q 67 218 67 93 l 67 981 l 347 981 z "},"ł":{"ha":583,"x_min":21,"x_max":554,"o":"m 554 711 l 554 528 l 372 418 l 264 374 l 21 233 l 21 417 l 221 529 l 326 565 l 554 711 m 417 981 l 417 258 q 431 194 417 214 q 479 175 444 175 q 509 177 496 175 q 538 185 522 179 l 522 26 q 452 -3 497 8 q 364 -14 407 -14 q 189 40 242 -14 q 136 218 136 93 l 136 981 l 417 981 z "},"m":{"ha":1301,"x_min":68,"x_max":1235,"o":"m 68 0 l 68 694 l 321 694 l 328 551 q 419 668 358 628 q 565 708 481 708 q 698 673 643 708 q 776 569 753 638 q 833 646 799 615 q 912 692 867 676 q 1008 708 957 708 q 1128 681 1078 708 q 1207 601 1179 654 q 1235 469 1235 547 l 1235 0 l 954 0 l 954 400 q 936 477 954 456 q 885 499 918 499 q 835 485 857 499 q 803 441 814 471 q 792 367 792 411 l 792 0 l 511 0 l 511 400 q 493 477 511 456 q 442 499 475 499 q 394 485 415 499 q 360 441 372 471 q 349 365 349 411 l 349 0 l 68 0 z "},"ṃ":{"ha":1301,"x_min":68,"x_max":1235,"o":"m 68 0 l 68 694 l 321 694 l 328 551 q 419 668 358 628 q 565 708 481 708 q 698 673 643 708 q 776 569 753 638 q 833 646 799 615 q 912 692 867 676 q 1008 708 957 708 q 1128 681 1078 708 q 1207 601 1179 654 q 1235 469 1235 547 l 1235 0 l 954 0 l 954 400 q 936 477 954 456 q 885 499 918 499 q 835 485 857 499 q 803 441 814 471 q 792 367 792 411 l 792 0 l 511 0 l 511 400 q 493 477 511 456 q 442 499 475 499 q 394 485 415 499 q 360 441 372 471 q 349 365 349 411 l 349 0 l 68 0 m 651 -311 q 545 -281 581 -311 q 510 -189 510 -250 q 545 -99 510 -129 q 651 -68 581 -68 q 760 -99 724 -68 q 797 -189 797 -129 q 760 -281 797 -250 q 651 -311 724 -311 z "},"n":{"ha":861,"x_min":68,"x_max":794,"o":"m 68 0 l 68 694 l 321 694 l 333 426 l 304 457 q 350 594 315 538 q 440 679 385 650 q 567 708 494 708 q 688 681 638 708 q 767 601 739 654 q 794 469 794 547 l 794 0 l 514 0 l 514 397 q 495 477 514 456 q 442 499 476 499 q 394 485 415 499 q 360 443 372 472 q 349 367 349 414 l 349 0 l 68 0 z "},"ń":{"ha":861,"x_min":68,"x_max":794,"o":"m 68 0 l 68 694 l 321 694 l 333 426 l 304 457 q 350 594 315 538 q 440 679 385 650 q 567 708 494 708 q 688 681 638 708 q 767 601 739 654 q 794 469 794 547 l 794 0 l 514 0 l 514 397 q 495 477 514 456 q 442 499 476 499 q 394 485 415 499 q 360 443 372 472 q 349 367 349 414 l 349 0 l 68 0 m 400 1019 l 654 1019 l 511 776 l 313 776 l 400 1019 z "},"ň":{"ha":861,"x_min":68,"x_max":794,"o":"m 68 0 l 68 694 l 321 694 l 333 426 l 304 457 q 350 594 315 538 q 440 679 385 650 q 567 708 494 708 q 688 681 638 708 q 767 601 739 654 q 794 469 794 547 l 794 0 l 514 0 l 514 397 q 495 477 514 456 q 442 499 476 499 q 394 485 415 499 q 360 443 372 472 q 349 367 349 414 l 349 0 l 68 0 m 707 1019 l 558 776 l 293 776 l 143 1019 l 339 1019 l 425 910 l 513 1019 l 707 1019 z "},"ņ":{"ha":861,"x_min":68,"x_max":794,"o":"m 68 0 l 68 694 l 321 694 l 333 426 l 304 457 q 350 594 315 538 q 440 679 385 650 q 567 708 494 708 q 688 681 638 708 q 767 601 739 654 q 794 469 794 547 l 794 0 l 514 0 l 514 397 q 495 477 514 456 q 442 499 476 499 q 394 485 415 499 q 360 443 372 472 q 349 367 349 414 l 349 0 l 68 0 m 575 -76 l 474 -336 l 296 -336 l 335 -76 l 575 -76 z "},"ṅ":{"ha":861,"x_min":68,"x_max":794,"o":"m 68 0 l 68 694 l 321 694 l 333 426 l 304 457 q 350 594 315 538 q 440 679 385 650 q 567 708 494 708 q 688 681 638 708 q 767 601 739 654 q 794 469 794 547 l 794 0 l 514 0 l 514 397 q 495 477 514 456 q 442 499 476 499 q 394 485 415 499 q 360 443 372 472 q 349 367 349 414 l 349 0 l 68 0 m 432 1006 q 541 975 504 1006 q 578 883 578 944 q 541 793 578 824 q 432 763 504 763 q 326 793 361 763 q 290 883 290 824 q 326 975 290 944 q 432 1006 361 1006 z "},"ṇ":{"ha":861,"x_min":68,"x_max":794,"o":"m 68 0 l 68 694 l 321 694 l 333 426 l 304 457 q 350 594 315 538 q 440 679 385 650 q 567 708 494 708 q 688 681 638 708 q 767 601 739 654 q 794 469 794 547 l 794 0 l 514 0 l 514 397 q 495 477 514 456 q 442 499 476 499 q 394 485 415 499 q 360 443 372 472 q 349 367 349 414 l 349 0 l 68 0 m 431 -311 q 324 -281 360 -311 q 289 -189 289 -250 q 324 -99 289 -129 q 431 -68 360 -68 q 540 -99 503 -68 q 576 -189 576 -129 q 540 -281 576 -250 q 431 -311 503 -311 z "},"ŋ":{"ha":861,"x_min":68,"x_max":794,"o":"m 794 253 l 794 -6 q 763 -177 794 -112 q 669 -270 731 -242 q 515 -299 607 -299 q 396 -287 444 -299 q 308 -256 347 -276 l 344 -85 q 379 -100 360 -94 q 425 -106 399 -106 q 490 -83 465 -106 q 514 -3 514 -60 l 514 253 l 794 253 m 68 0 l 68 694 l 321 694 l 333 426 l 304 457 q 350 594 315 538 q 440 679 385 650 q 567 708 494 708 q 688 681 638 708 q 767 601 739 654 q 794 469 794 547 l 794 0 l 514 0 l 514 397 q 495 477 514 456 q 442 499 476 499 q 394 485 415 499 q 360 443 372 472 q 349 367 349 414 l 349 0 l 68 0 z "},"ǌ":{"ha":1278,"x_min":68,"x_max":1226,"o":"m 68 0 l 68 694 l 321 694 l 333 426 l 304 457 q 350 594 315 538 q 440 679 385 650 q 567 708 494 708 q 688 681 638 708 q 767 601 739 654 q 794 469 794 547 l 794 0 l 514 0 l 514 397 q 495 477 514 456 q 442 499 476 499 q 394 485 415 499 q 360 443 372 472 q 349 367 349 414 l 349 0 l 68 0 m 1069 756 q 949 785 986 756 q 913 879 913 814 q 949 975 913 946 q 1069 1004 986 1004 q 1190 975 1153 1004 q 1226 879 1226 946 q 1190 785 1226 814 q 1069 756 1153 756 m 1210 694 l 1210 -28 q 1178 -183 1210 -124 q 1082 -271 1146 -243 q 921 -299 1018 -299 q 811 -287 860 -299 q 724 -256 763 -276 l 760 -85 q 794 -100 774 -94 q 839 -106 814 -106 q 905 -83 881 -106 q 929 -3 929 -60 l 929 694 l 1210 694 z "},"ṉ":{"ha":861,"x_min":68,"x_max":794,"o":"m 68 0 l 68 694 l 321 694 l 333 426 l 304 457 q 350 594 315 538 q 440 679 385 650 q 567 708 494 708 q 688 681 638 708 q 767 601 739 654 q 794 469 794 547 l 794 0 l 514 0 l 514 397 q 495 477 514 456 q 442 499 476 499 q 394 485 415 499 q 360 443 372 472 q 349 367 349 414 l 349 0 l 68 0 m 692 -82 l 692 -247 l 169 -247 l 169 -82 l 692 -82 z "},"ñ":{"ha":861,"x_min":68,"x_max":794,"o":"m 68 0 l 68 694 l 321 694 l 333 426 l 304 457 q 350 594 315 538 q 440 679 385 650 q 567 708 494 708 q 688 681 638 708 q 767 601 739 654 q 794 469 794 547 l 794 0 l 514 0 l 514 397 q 495 477 514 456 q 442 499 476 499 q 394 485 415 499 q 360 443 372 472 q 349 367 349 414 l 349 0 l 68 0 m 715 999 q 689 867 714 919 q 624 790 664 815 q 539 764 585 764 q 472 776 500 764 q 422 802 443 788 q 382 828 400 817 q 344 839 364 839 q 313 822 324 839 q 297 767 301 804 l 147 767 q 205 942 151 885 q 338 1000 258 1000 q 401 989 375 1000 q 447 963 428 978 q 483 938 465 949 q 519 926 500 926 q 552 944 542 926 q 567 999 563 961 l 715 999 z "},"o":{"ha":831,"x_min":38,"x_max":793,"o":"m 415 708 q 614 666 529 708 q 746 543 699 624 q 793 347 793 463 q 746 152 793 233 q 614 28 699 71 q 415 -14 529 -14 q 219 28 304 -14 q 85 152 133 71 q 38 347 38 233 q 85 543 38 463 q 219 666 133 624 q 415 708 304 708 m 415 515 q 363 500 385 515 q 331 447 342 485 q 319 347 319 410 q 331 248 319 285 q 363 195 342 211 q 415 179 385 179 q 468 195 447 179 q 500 248 489 211 q 511 347 511 285 q 500 447 511 410 q 468 500 489 485 q 415 515 447 515 z "},"ó":{"ha":831,"x_min":38,"x_max":793,"o":"m 415 708 q 614 666 529 708 q 746 543 699 624 q 793 347 793 463 q 746 152 793 233 q 614 28 699 71 q 415 -14 529 -14 q 219 28 304 -14 q 85 152 133 71 q 38 347 38 233 q 85 543 38 463 q 219 666 133 624 q 415 708 304 708 m 415 515 q 363 500 385 515 q 331 447 342 485 q 319 347 319 410 q 331 248 319 285 q 363 195 342 211 q 415 179 385 179 q 468 195 447 179 q 500 248 489 211 q 511 347 511 285 q 500 447 511 410 q 468 500 489 485 q 415 515 447 515 m 383 1019 l 638 1019 l 494 776 l 296 776 l 383 1019 z "},"ŏ":{"ha":831,"x_min":38,"x_max":793,"o":"m 415 708 q 614 666 529 708 q 746 543 699 624 q 793 347 793 463 q 746 152 793 233 q 614 28 699 71 q 415 -14 529 -14 q 219 28 304 -14 q 85 152 133 71 q 38 347 38 233 q 85 543 38 463 q 219 666 133 624 q 415 708 304 708 m 415 515 q 363 500 385 515 q 331 447 342 485 q 319 347 319 410 q 331 248 319 285 q 363 195 342 211 q 415 179 385 179 q 468 195 447 179 q 500 248 489 211 q 511 347 511 285 q 500 447 511 410 q 468 500 489 485 q 415 515 447 515 m 660 993 q 594 822 660 883 q 415 760 529 760 q 237 822 303 760 q 171 993 171 883 l 344 993 q 363 931 344 954 q 415 908 381 908 q 469 931 451 908 q 486 993 486 954 l 660 993 z "},"ô":{"ha":831,"x_min":38,"x_max":793,"o":"m 415 708 q 614 666 529 708 q 746 543 699 624 q 793 347 793 463 q 746 152 793 233 q 614 28 699 71 q 415 -14 529 -14 q 219 28 304 -14 q 85 152 133 71 q 38 347 38 233 q 85 543 38 463 q 219 666 133 624 q 415 708 304 708 m 415 515 q 363 500 385 515 q 331 447 342 485 q 319 347 319 410 q 331 248 319 285 q 363 195 342 211 q 415 179 385 179 q 468 195 447 179 q 500 248 489 211 q 511 347 511 285 q 500 447 511 410 q 468 500 489 485 q 415 515 447 515 m 697 767 l 501 767 l 415 878 l 329 767 l 133 767 l 283 1011 l 547 1011 l 697 767 z "},"ố":{"ha":831,"x_min":38,"x_max":928,"o":"m 708 1111 l 928 1111 l 815 906 l 633 906 l 708 1111 m 674 767 l 496 767 l 415 869 l 336 767 l 157 767 l 296 992 l 536 992 l 674 767 m 415 708 q 614 666 529 708 q 746 543 699 624 q 793 347 793 463 q 746 152 793 233 q 614 28 699 71 q 415 -14 529 -14 q 219 28 304 -14 q 85 152 133 71 q 38 347 38 233 q 85 543 38 463 q 219 666 133 624 q 415 708 304 708 m 415 515 q 363 500 385 515 q 331 447 342 485 q 319 347 319 410 q 331 248 319 285 q 363 195 342 211 q 415 179 385 179 q 468 195 447 179 q 500 248 489 211 q 511 347 511 285 q 500 447 511 410 q 468 500 489 485 q 415 515 447 515 z "},"ộ":{"ha":831,"x_min":38,"x_max":793,"o":"m 415 708 q 614 666 529 708 q 746 543 699 624 q 793 347 793 463 q 746 152 793 233 q 614 28 699 71 q 415 -14 529 -14 q 219 28 304 -14 q 85 152 133 71 q 38 347 38 233 q 85 543 38 463 q 219 666 133 624 q 415 708 304 708 m 415 515 q 363 500 385 515 q 331 447 342 485 q 319 347 319 410 q 331 248 319 285 q 363 195 342 211 q 415 179 385 179 q 468 195 447 179 q 500 248 489 211 q 511 347 511 285 q 500 447 511 410 q 468 500 489 485 q 415 515 447 515 m 415 -311 q 309 -281 344 -311 q 274 -189 274 -250 q 309 -99 274 -129 q 415 -68 344 -68 q 524 -99 488 -68 q 561 -189 561 -129 q 524 -281 561 -250 q 415 -311 488 -311 m 697 767 l 501 767 l 415 878 l 329 767 l 133 767 l 283 1011 l 547 1011 l 697 767 z "},"ồ":{"ha":831,"x_min":38,"x_max":839,"o":"m 765 1111 l 839 906 l 658 906 l 546 1111 l 765 1111 m 674 767 l 496 767 l 415 869 l 336 767 l 157 767 l 296 992 l 536 992 l 674 767 m 415 708 q 614 666 529 708 q 746 543 699 624 q 793 347 793 463 q 746 152 793 233 q 614 28 699 71 q 415 -14 529 -14 q 219 28 304 -14 q 85 152 133 71 q 38 347 38 233 q 85 543 38 463 q 219 666 133 624 q 415 708 304 708 m 415 515 q 363 500 385 515 q 331 447 342 485 q 319 347 319 410 q 331 248 319 285 q 363 195 342 211 q 415 179 385 179 q 468 195 447 179 q 500 248 489 211 q 511 347 511 285 q 500 447 511 410 q 468 500 489 485 q 415 515 447 515 z "},"ổ":{"ha":831,"x_min":38,"x_max":836,"o":"m 669 883 l 613 963 q 669 995 653 978 q 685 1031 685 1013 q 674 1060 685 1049 q 640 1072 663 1072 q 609 1063 621 1072 q 590 1036 597 1053 l 467 1092 q 534 1183 483 1150 q 658 1215 585 1215 q 744 1199 704 1215 q 810 1149 785 1182 q 836 1065 836 1115 q 810 974 836 1011 q 744 916 783 938 q 669 883 704 894 m 674 767 l 496 767 l 415 869 l 336 767 l 157 767 l 296 992 l 536 992 l 674 767 m 415 708 q 614 666 529 708 q 746 543 699 624 q 793 347 793 463 q 746 152 793 233 q 614 28 699 71 q 415 -14 529 -14 q 219 28 304 -14 q 85 152 133 71 q 38 347 38 233 q 85 543 38 463 q 219 666 133 624 q 415 708 304 708 m 415 515 q 363 500 385 515 q 331 447 342 485 q 319 347 319 410 q 331 248 319 285 q 363 195 342 211 q 415 179 385 179 q 468 195 447 179 q 500 248 489 211 q 511 347 511 285 q 500 447 511 410 q 468 500 489 485 q 415 515 447 515 z "},"ỗ":{"ha":831,"x_min":38,"x_max":793,"o":"m 674 767 l 496 767 l 415 869 l 336 767 l 157 767 l 296 992 l 536 992 l 674 767 m 675 1233 q 624 1075 672 1126 q 514 1024 576 1024 q 452 1033 478 1024 q 407 1056 426 1043 q 372 1080 388 1069 q 338 1090 356 1090 q 307 1074 317 1090 q 293 1026 297 1058 l 157 1026 q 210 1185 161 1133 q 331 1236 260 1236 q 389 1226 365 1236 q 431 1203 413 1217 q 463 1179 449 1189 q 496 1169 478 1169 q 526 1185 515 1169 q 539 1233 536 1200 l 675 1233 m 415 708 q 614 666 529 708 q 746 543 699 624 q 793 347 793 463 q 746 152 793 233 q 614 28 699 71 q 415 -14 529 -14 q 219 28 304 -14 q 85 152 133 71 q 38 347 38 233 q 85 543 38 463 q 219 666 133 624 q 415 708 304 708 m 415 515 q 363 500 385 515 q 331 447 342 485 q 319 347 319 410 q 331 248 319 285 q 363 195 342 211 q 415 179 385 179 q 468 195 447 179 q 500 248 489 211 q 511 347 511 285 q 500 447 511 410 q 468 500 489 485 q 415 515 447 515 z "},"ȍ":{"ha":831,"x_min":38,"x_max":793,"o":"m 415 708 q 614 666 529 708 q 746 543 699 624 q 793 347 793 463 q 746 152 793 233 q 614 28 699 71 q 415 -14 529 -14 q 219 28 304 -14 q 85 152 133 71 q 38 347 38 233 q 85 543 38 463 q 219 666 133 624 q 415 708 304 708 m 415 515 q 363 500 385 515 q 331 447 342 485 q 319 347 319 410 q 331 248 319 285 q 363 195 342 211 q 415 179 385 179 q 468 195 447 179 q 500 248 489 211 q 511 347 511 285 q 500 447 511 410 q 468 500 489 485 q 415 515 447 515 m 367 776 l 176 776 l 46 1019 l 274 1019 l 367 776 m 679 776 l 489 776 l 358 1019 l 586 1019 l 679 776 z "},"ö":{"ha":831,"x_min":38,"x_max":793,"o":"m 415 708 q 614 666 529 708 q 746 543 699 624 q 793 347 793 463 q 746 152 793 233 q 614 28 699 71 q 415 -14 529 -14 q 219 28 304 -14 q 85 152 133 71 q 38 347 38 233 q 85 543 38 463 q 219 666 133 624 q 415 708 304 708 m 415 515 q 363 500 385 515 q 331 447 342 485 q 319 347 319 410 q 331 248 319 285 q 363 195 342 211 q 415 179 385 179 q 468 195 447 179 q 500 248 489 211 q 511 347 511 285 q 500 447 511 410 q 468 500 489 485 q 415 515 447 515 m 254 994 q 353 964 318 994 q 388 876 388 933 q 353 790 388 821 q 254 758 318 758 q 159 790 193 758 q 125 876 125 821 q 159 964 125 933 q 254 994 193 994 m 572 994 q 671 964 636 994 q 706 876 706 933 q 671 790 706 821 q 572 758 636 758 q 477 790 511 758 q 443 876 443 821 q 477 964 443 933 q 572 994 511 994 z "},"ȫ":{"ha":831,"x_min":38,"x_max":793,"o":"m 415 708 q 614 666 529 708 q 746 543 699 624 q 793 347 793 463 q 746 152 793 233 q 614 28 699 71 q 415 -14 529 -14 q 219 28 304 -14 q 85 152 133 71 q 38 347 38 233 q 85 543 38 463 q 219 666 133 624 q 415 708 304 708 m 415 515 q 363 500 385 515 q 331 447 342 485 q 319 347 319 410 q 331 248 319 285 q 363 195 342 211 q 415 179 385 179 q 468 195 447 179 q 500 248 489 211 q 511 347 511 285 q 500 447 511 410 q 468 500 489 485 q 415 515 447 515 m 254 994 q 353 964 318 994 q 388 876 388 933 q 353 790 388 821 q 254 758 318 758 q 159 790 193 758 q 125 876 125 821 q 159 964 125 933 q 254 994 193 994 m 572 994 q 671 964 636 994 q 706 876 706 933 q 671 790 706 821 q 572 758 636 758 q 477 790 511 758 q 443 876 443 821 q 477 964 443 933 q 572 994 511 994 m 676 1215 l 676 1050 l 154 1050 l 154 1215 l 676 1215 z "},"ȱ":{"ha":831,"x_min":38,"x_max":793,"o":"m 415 708 q 614 666 529 708 q 746 543 699 624 q 793 347 793 463 q 746 152 793 233 q 614 28 699 71 q 415 -14 529 -14 q 219 28 304 -14 q 85 152 133 71 q 38 347 38 233 q 85 543 38 463 q 219 666 133 624 q 415 708 304 708 m 415 515 q 363 500 385 515 q 331 447 342 485 q 319 347 319 410 q 331 248 319 285 q 363 195 342 211 q 415 179 385 179 q 468 195 447 179 q 500 248 489 211 q 511 347 511 285 q 500 447 511 410 q 468 500 489 485 q 415 515 447 515 m 415 1006 q 524 975 488 1006 q 561 883 561 944 q 524 793 561 824 q 415 763 488 763 q 309 793 344 763 q 274 883 274 824 q 309 975 274 944 q 415 1006 344 1006 m 679 1221 l 679 1056 l 157 1056 l 157 1221 l 679 1221 z "},"ọ":{"ha":831,"x_min":38,"x_max":793,"o":"m 415 708 q 614 666 529 708 q 746 543 699 624 q 793 347 793 463 q 746 152 793 233 q 614 28 699 71 q 415 -14 529 -14 q 219 28 304 -14 q 85 152 133 71 q 38 347 38 233 q 85 543 38 463 q 219 666 133 624 q 415 708 304 708 m 415 515 q 363 500 385 515 q 331 447 342 485 q 319 347 319 410 q 331 248 319 285 q 363 195 342 211 q 415 179 385 179 q 468 195 447 179 q 500 248 489 211 q 511 347 511 285 q 500 447 511 410 q 468 500 489 485 q 415 515 447 515 m 415 -311 q 309 -281 344 -311 q 274 -189 274 -250 q 309 -99 274 -129 q 415 -68 344 -68 q 524 -99 488 -68 q 561 -189 561 -129 q 524 -281 561 -250 q 415 -311 488 -311 z "}}}
